<svg xmlns="http://www.w3.org/2000/svg" viewBox="0 0 1024 1024" width="1024" height="1024" color="#000">
<path d="M0 -237.6L6 -237.6L12 -237.6L18 -237.6L24 -237.6L29.9 -237.6L35.9 -237.6L41.9 -237.6L47.9 -237.6L53.9 -237.6L59.9 -237.6L65.9 -237.6L71.9 -237.6L77.8 -237.6L83.8 -237.6L89.8 -237.6L95.8 -237.6L101.8 -237.6L107.8 -237.6L113.8 -237.6L119.8 -237.6L125.8 -237.6L131.7 -237.6L137.7 -237.6L143.7 -237.6L149.7 -237.6L155.7 -237.6L161.7 -237.6L167.7 -237.6L173.7 -237.6L179.6 -237.6L185.6 -237.6L191.6 -237.6L197.6 -237.6L203.6 -237.6L209.6 -237.6L215.6 -237.6L221.6 -237.6L227.6 -237.6L233.5 -237.6L239.5 -237.6L245.5 -237.6L251.5 -237.6L257.5 -237.6L263.5 -237.6L269.5 -237.6L275.5 -237.6L281.5 -237.6L287.4 -237.6L293.4 -237.6L299.4 -237.6L305.4 -237.6L311.4 -237.6L317.4 -237.6L323.4 -237.6L329.4 -237.6L335.3 -237.6L341.3 -237.7L347.3 -237.8L353.3 -237.9L359.3 -238.1L365.3 -238.3L371.3 -238.5L377.3 -238.7L383.3 -238.9L389.2 -239.2L395.2 -239.4L401.2 -239.7L407.2 -240L413.2 -240.3L419.2 -240.6L425.2 -240.9L431.2 -241.2L437.1 -241.4L443.1 -241.7L449.1 -242L455.1 -242.3L461.1 -242.6L467.1 -242.8L473.1 -243.1L479.1 -243.3L485.1 -243.5L491 -243.8L497 -244L503 -244.1L509 -244.3L515 -244.5L521 -244.6L527 -244.7L533 -244.8L538.9 -244.9L544.9 -245L550.9 -245L556.9 -245.1L562.9 -245.1L568.9 -245.1L574.9 -245L580.9 -245L586.9 -244.9L592.8 -244.8L598.8 -244.7L604.8 -244.6L610.8 -244.5L616.8 -244.3L622.8 -244.2L628.8 -244L634.8 -243.8L640.7 -243.6L646.7 -243.3L652.7 -243.1L658.7 -242.8L664.7 -242.6L670.7 -242.3L676.7 -242L682.7 -241.8L688.7 -241.5L694.6 -241.2L700.6 -240.9L706.6 -240.6L712.6 -240.3L718.6 -240L724.6 -239.7L730.6 -239.5L736.6 -239.2L742.5 -239L748.5 -238.7L754.5 -238.5L760.5 -238.3L766.5 -238.1L772.5 -237.9L778.5 -237.8L784.5 -237.7L790.5 -237.6L796.4 -237.6L802.4 -237.6L808.4 -237.6L814.4 -237.6L820.4 -237.6L826.4 -237.6L832.4 -237.6L838.4 -237.6L844.4 -237.6L850.3 -237.6L856.3 -237.6L862.3 -237.6L868.3 -237.6L874.3 -237.6L880.3 -237.6L886.3 -237.6L892.3 -237.6L898.2 -237.6L904.2 -237.6L910.2 -237.6L916.2 -237.6L922.2 -237.6L928.2 -237.6L934.2 -237.6L940.2 -237.6L946.2 -237.6L952.1 -237.6L958.1 -237.6L964.1 -237.6L970.1 -237.6L976.1 -237.6L982.1 -237.6L988.1 -237.6L994.1 -237.6L1000 -237.6L1006 -237.6L1012 -237.6L1018 -237.6L1024 -237.6" fill="none" stroke="currentColor" stroke-width="0.75" stroke-linecap="round"/>
<path d="M0 -194.7L6 -194.7L12 -194.7L18 -194.7L24 -194.7L29.9 -194.7L35.9 -194.7L41.9 -194.7L47.9 -194.7L53.9 -194.7L59.9 -194.7L65.9 -194.7L71.9 -194.7L77.8 -194.7L83.8 -194.7L89.8 -194.7L95.8 -194.7L101.8 -194.7L107.8 -194.7L113.8 -194.7L119.8 -194.7L125.8 -194.7L131.7 -194.7L137.7 -194.7L143.7 -194.7L149.7 -194.7L155.7 -194.7L161.7 -194.7L167.7 -194.7L173.7 -194.7L179.6 -194.7L185.6 -194.7L191.6 -194.7L197.6 -194.7L203.6 -194.7L209.6 -194.7L215.6 -194.7L221.6 -194.7L227.6 -194.7L233.5 -194.7L239.5 -194.7L245.5 -194.7L251.5 -194.7L257.5 -194.7L263.5 -194.7L269.5 -194.7L275.5 -194.7L281.5 -194.7L287.4 -194.7L293.4 -194.7L299.4 -194.7L305.4 -194.7L311.4 -194.7L317.4 -194.7L323.4 -194.7L329.4 -194.7L335.3 -194.8L341.3 -194.9L347.3 -195.1L353.3 -195.3L359.3 -195.6L365.3 -195.9L371.3 -196.2L377.3 -196.6L383.3 -197L389.2 -197.4L395.2 -197.8L401.2 -198.2L407.2 -198.7L413.2 -199.2L419.2 -199.6L425.2 -200.1L431.2 -200.6L437.1 -201L443.1 -201.5L449.1 -202L455.1 -202.4L461.1 -202.9L467.1 -203.3L473.1 -203.7L479.1 -204.1L485.1 -204.5L491 -204.8L497 -205.1L503 -205.4L509 -205.7L515 -206L521 -206.2L527 -206.4L533 -206.6L538.9 -206.7L544.9 -206.8L550.9 -206.9L556.9 -206.9L562.9 -207L568.9 -206.9L574.9 -206.9L580.9 -206.8L586.9 -206.7L592.8 -206.6L598.8 -206.4L604.8 -206.2L610.8 -206L616.8 -205.8L622.8 -205.5L628.8 -205.2L634.8 -204.8L640.7 -204.5L646.7 -204.1L652.7 -203.7L658.7 -203.3L664.7 -202.9L670.7 -202.5L676.7 -202L682.7 -201.6L688.7 -201.1L694.6 -200.6L700.6 -200.1L706.6 -199.7L712.6 -199.2L718.6 -198.7L724.6 -198.3L730.6 -197.8L736.6 -197.4L742.5 -197L748.5 -196.6L754.5 -196.2L760.5 -195.9L766.5 -195.6L772.5 -195.3L778.5 -195.1L784.5 -195L790.5 -194.8L796.4 -194.8L802.4 -194.7L808.4 -194.7L814.4 -194.7L820.4 -194.7L826.4 -194.7L832.4 -194.7L838.4 -194.7L844.4 -194.7L850.3 -194.7L856.3 -194.7L862.3 -194.7L868.3 -194.7L874.3 -194.7L880.3 -194.7L886.3 -194.7L892.3 -194.7L898.2 -194.7L904.2 -194.7L910.2 -194.7L916.2 -194.7L922.2 -194.7L928.2 -194.7L934.2 -194.7L940.2 -194.7L946.2 -194.7L952.1 -194.7L958.1 -194.7L964.1 -194.7L970.1 -194.7L976.1 -194.7L982.1 -194.7L988.1 -194.7L994.1 -194.7L1000 -194.7L1006 -194.7L1012 -194.7L1018 -194.7L1024 -194.7" fill="none" stroke="currentColor" stroke-width="0.75" stroke-linecap="round"/>
<path d="M0 -151.9L6 -151.9L12 -151.9L18 -151.9L24 -151.9L29.9 -151.9L35.9 -151.9L41.9 -151.9L47.9 -151.9L53.9 -151.9L59.9 -151.9L65.9 -151.9L71.9 -151.9L77.8 -151.9L83.8 -151.9L89.8 -151.9L95.8 -151.9L101.8 -151.9L107.8 -151.9L113.8 -151.9L119.8 -151.9L125.8 -151.9L131.7 -151.9L137.7 -151.9L143.7 -151.9L149.7 -151.9L155.7 -151.9L161.7 -151.9L167.7 -151.9L173.7 -151.9L179.6 -151.9L185.6 -151.9L191.6 -151.9L197.6 -151.9L203.6 -151.9L209.6 -151.9L215.6 -151.9L221.6 -151.9L227.6 -151.9L233.5 -151.9L239.5 -151.9L245.5 -151.9L251.5 -151.9L257.5 -151.9L263.5 -151.9L269.5 -151.9L275.5 -151.9L281.5 -151.9L287.4 -151.9L293.4 -151.9L299.4 -151.9L305.4 -151.9L311.4 -151.9L317.4 -151.9L323.4 -151.9L329.4 -151.9L335.3 -152L341.3 -152.2L347.3 -152.5L353.3 -152.8L359.3 -153.2L365.3 -153.7L371.3 -154.2L377.3 -154.8L383.3 -155.4L389.2 -156L395.2 -156.7L401.2 -157.4L407.2 -158.1L413.2 -158.8L419.2 -159.6L425.2 -160.3L431.2 -161.1L437.1 -161.8L443.1 -162.5L449.1 -163.3L455.1 -164L461.1 -164.7L467.1 -165.3L473.1 -166L479.1 -166.6L485.1 -167.2L491 -167.7L497 -168.2L503 -168.7L509 -169.1L515 -169.5L521 -169.9L527 -170.2L533 -170.5L538.9 -170.7L544.9 -170.9L550.9 -171L556.9 -171.1L562.9 -171.1L568.9 -171.1L574.9 -171L580.9 -170.9L586.9 -170.7L592.8 -170.5L598.8 -170.2L604.8 -169.9L610.8 -169.6L616.8 -169.2L622.8 -168.7L628.8 -168.3L634.8 -167.8L640.7 -167.2L646.7 -166.6L652.7 -166L658.7 -165.4L664.7 -164.7L670.7 -164L676.7 -163.3L682.7 -162.6L688.7 -161.9L694.6 -161.1L700.6 -160.4L706.6 -159.6L712.6 -158.9L718.6 -158.2L724.6 -157.5L730.6 -156.8L736.6 -156.1L742.5 -155.4L748.5 -154.8L754.5 -154.3L760.5 -153.7L766.5 -153.3L772.5 -152.9L778.5 -152.5L784.5 -152.2L790.5 -152L796.4 -151.9L802.4 -151.9L808.4 -151.9L814.4 -151.9L820.4 -151.9L826.4 -151.9L832.4 -151.9L838.4 -151.9L844.4 -151.9L850.3 -151.9L856.3 -151.9L862.3 -151.9L868.3 -151.9L874.3 -151.9L880.3 -151.9L886.3 -151.9L892.3 -151.9L898.2 -151.9L904.2 -151.9L910.2 -151.9L916.2 -151.9L922.2 -151.9L928.2 -151.9L934.2 -151.9L940.2 -151.9L946.2 -151.9L952.1 -151.9L958.1 -151.9L964.1 -151.9L970.1 -151.9L976.1 -151.9L982.1 -151.9L988.1 -151.9L994.1 -151.9L1000 -151.9L1006 -151.9L1012 -151.9L1018 -151.9L1024 -151.9" fill="none" stroke="currentColor" stroke-width="0.75" stroke-linecap="round"/>
<path d="M0 -109.1L6 -109.1L12 -109.1L18 -109.1L24 -109.1L29.9 -109.1L35.9 -109.1L41.9 -109.1L47.9 -109.1L53.9 -109.1L59.9 -109.1L65.9 -109.1L71.9 -109.1L77.8 -109.1L83.8 -109.1L89.8 -109.1L95.8 -109.1L101.8 -109.1L107.8 -109.1L113.8 -109.1L119.8 -109.1L125.8 -109.1L131.7 -109.1L137.7 -109.1L143.7 -109.1L149.7 -109.1L155.7 -109.1L161.7 -109.1L167.7 -109.1L173.7 -109.1L179.6 -109.1L185.6 -109.1L191.6 -109.1L197.6 -109.1L203.6 -109.1L209.6 -109.1L215.6 -109.1L221.6 -109.1L227.6 -109.1L233.5 -109.1L239.5 -109.1L245.5 -109.1L251.5 -109.1L257.5 -109.1L263.5 -109.1L269.5 -109.1L275.5 -109.1L281.5 -109.1L287.4 -109.1L293.4 -109.1L299.4 -109.1L305.4 -109.1L311.4 -109.1L317.4 -109.1L323.4 -109.1L329.4 -109.1L335.3 -109.3L341.3 -109.5L347.3 -109.9L353.3 -110.5L359.3 -111.1L365.3 -111.8L371.3 -112.6L377.3 -113.4L383.3 -114.3L389.2 -115.3L395.2 -116.3L401.2 -117.4L407.2 -118.4L413.2 -119.5L419.2 -120.6L425.2 -121.8L431.2 -122.9L437.1 -124L443.1 -125.1L449.1 -126.2L455.1 -127.3L461.1 -128.3L467.1 -129.3L473.1 -130.3L479.1 -131.2L485.1 -132.1L491 -132.9L497 -133.7L503 -134.4L509 -135.1L515 -135.7L521 -136.2L527 -136.7L533 -137.1L538.9 -137.4L544.9 -137.7L550.9 -137.9L556.9 -138L562.9 -138L568.9 -138L574.9 -137.9L580.9 -137.7L586.9 -137.4L592.8 -137.1L598.8 -136.7L604.8 -136.3L610.8 -135.7L616.8 -135.1L622.8 -134.5L628.8 -133.8L634.8 -133L640.7 -132.2L646.7 -131.3L652.7 -130.4L658.7 -129.4L664.7 -128.4L670.7 -127.4L676.7 -126.3L682.7 -125.2L688.7 -124.1L694.6 -123L700.6 -121.9L706.6 -120.8L712.6 -119.6L718.6 -118.5L724.6 -117.5L730.6 -116.4L736.6 -115.4L742.5 -114.4L748.5 -113.5L754.5 -112.6L760.5 -111.9L766.5 -111.1L772.5 -110.5L778.5 -110L784.5 -109.6L790.5 -109.3L796.4 -109.1L802.4 -109.1L808.4 -109.1L814.4 -109.1L820.4 -109.1L826.4 -109.1L832.4 -109.1L838.4 -109.1L844.4 -109.1L850.3 -109.1L856.3 -109.1L862.3 -109.1L868.3 -109.1L874.3 -109.1L880.3 -109.1L886.3 -109.1L892.3 -109.1L898.2 -109.1L904.2 -109.1L910.2 -109.1L916.2 -109.1L922.2 -109.1L928.2 -109.1L934.2 -109.1L940.2 -109.1L946.2 -109.1L952.1 -109.1L958.1 -109.1L964.1 -109.1L970.1 -109.1L976.1 -109.1L982.1 -109.1L988.1 -109.1L994.1 -109.1L1000 -109.1L1006 -109.1L1012 -109.1L1018 -109.1L1024 -109.1" fill="none" stroke="currentColor" stroke-width="0.75" stroke-linecap="round"/>
<path d="M0 -66.2L6 -66.2L12 -66.2L18 -66.2L24 -66.2L29.9 -66.2L35.9 -66.2L41.9 -66.2L47.9 -66.2L53.9 -66.2L59.9 -66.2L65.9 -66.2L71.9 -66.2L77.8 -66.2L83.8 -66.2L89.8 -66.2L95.8 -66.2L101.8 -66.2L107.8 -66.2L113.8 -66.2L119.8 -66.2L125.8 -66.2L131.7 -66.2L137.7 -66.2L143.7 -66.2L149.7 -66.2L155.7 -66.2L161.7 -66.2L167.7 -66.2L173.7 -66.2L179.6 -66.2L185.6 -66.2L191.6 -66.2L197.6 -66.2L203.6 -66.2L209.6 -66.2L215.6 -66.2L221.6 -66.2L227.6 -66.2L233.5 -66.2L239.5 -66.2L245.5 -66.2L251.5 -66.2L257.5 -66.2L263.5 -66.2L269.5 -66.2L275.5 -66.2L281.5 -66.2L287.4 -66.2L293.4 -66.2L299.4 -66.2L305.4 -66.2L311.4 -66.2L317.4 -66.2L323.4 -66.2L329.4 -66.3L335.3 -66.5L341.3 -66.9L347.3 -67.5L353.3 -68.3L359.3 -69.2L365.3 -70.2L371.3 -71.3L377.3 -72.5L383.3 -73.9L389.2 -75.3L395.2 -76.7L401.2 -78.3L407.2 -79.8L413.2 -81.4L419.2 -83L425.2 -84.7L431.2 -86.3L437.1 -87.9L443.1 -89.5L449.1 -91.1L455.1 -92.7L461.1 -94.2L467.1 -95.6L473.1 -97L479.1 -98.4L485.1 -99.7L491 -100.9L497 -102L503 -103L509 -104L515 -104.9L521 -105.6L527 -106.3L533 -106.9L538.9 -107.4L544.9 -107.8L550.9 -108L556.9 -108.2L562.9 -108.3L568.9 -108.2L574.9 -108.1L580.9 -107.8L586.9 -107.4L592.8 -107L598.8 -106.4L604.8 -105.7L610.8 -105L616.8 -104.1L622.8 -103.1L628.8 -102.1L634.8 -101L640.7 -99.8L646.7 -98.5L652.7 -97.2L658.7 -95.8L664.7 -94.3L670.7 -92.8L676.7 -91.3L682.7 -89.7L688.7 -88.1L694.6 -86.5L700.6 -84.8L706.6 -83.2L712.6 -81.6L718.6 -80L724.6 -78.4L730.6 -76.9L736.6 -75.4L742.5 -74L748.5 -72.7L754.5 -71.4L760.5 -70.3L766.5 -69.2L772.5 -68.3L778.5 -67.6L784.5 -67L790.5 -66.5L796.4 -66.3L802.4 -66.2L808.4 -66.2L814.4 -66.2L820.4 -66.2L826.4 -66.2L832.4 -66.2L838.4 -66.2L844.4 -66.2L850.3 -66.2L856.3 -66.2L862.3 -66.2L868.3 -66.2L874.3 -66.2L880.3 -66.2L886.3 -66.2L892.3 -66.2L898.2 -66.2L904.2 -66.2L910.2 -66.2L916.2 -66.2L922.2 -66.2L928.2 -66.2L934.2 -66.2L940.2 -66.2L946.2 -66.2L952.1 -66.2L958.1 -66.2L964.1 -66.2L970.1 -66.2L976.1 -66.2L982.1 -66.2L988.1 -66.2L994.1 -66.2L1000 -66.2L1006 -66.2L1012 -66.2L1018 -66.2L1024 -66.2" fill="none" stroke="currentColor" stroke-width="0.75" stroke-linecap="round"/>
<path d="M0 -23.4L6 -23.4L12 -23.4L18 -23.4L24 -23.4L29.9 -23.4L35.9 -23.4L41.9 -23.4L47.9 -23.4L53.9 -23.4L59.9 -23.4L65.9 -23.4L71.9 -23.4L77.8 -23.4L83.8 -23.4L89.8 -23.4L95.8 -23.4L101.8 -23.4L107.8 -23.4L113.8 -23.4L119.8 -23.4L125.8 -23.4L131.7 -23.4L137.7 -23.4L143.7 -23.4L149.7 -23.4L155.7 -23.4L161.7 -23.4L167.7 -23.4L173.7 -23.4L179.6 -23.4L185.6 -23.4L191.6 -23.4L197.6 -23.4L203.6 -23.4L209.6 -23.4L215.6 -23.4L221.6 -23.4L227.6 -23.4L233.5 -23.4L239.5 -23.4L245.5 -23.4L251.5 -23.4L257.5 -23.4L263.5 -23.4L269.5 -23.4L275.5 -23.4L281.5 -23.4L287.4 -23.4L293.4 -23.4L299.4 -23.4L305.4 -23.4L311.4 -23.4L317.4 -23.4L323.4 -23.4L329.4 -23.5L335.3 -23.8L341.3 -24.4L347.3 -25.2L353.3 -26.2L359.3 -27.5L365.3 -28.9L371.3 -30.5L377.3 -32.2L383.3 -34.1L389.2 -36L395.2 -38.1L401.2 -40.2L407.2 -42.4L413.2 -44.6L419.2 -46.9L425.2 -49.2L431.2 -51.5L437.1 -53.7L443.1 -56L449.1 -58.2L455.1 -60.3L461.1 -62.4L467.1 -64.5L473.1 -66.4L479.1 -68.3L485.1 -70.1L491 -71.8L497 -73.4L503 -74.8L509 -76.2L515 -77.4L521 -78.5L527 -79.4L533 -80.2L538.9 -80.9L544.9 -81.4L550.9 -81.8L556.9 -82L562.9 -82.1L568.9 -82.1L574.9 -81.8L580.9 -81.5L586.9 -81L592.8 -80.3L598.8 -79.5L604.8 -78.6L610.8 -77.5L616.8 -76.3L622.8 -75L628.8 -73.5L634.8 -72L640.7 -70.3L646.7 -68.5L652.7 -66.6L658.7 -64.7L664.7 -62.6L670.7 -60.5L676.7 -58.4L682.7 -56.2L688.7 -53.9L694.6 -51.7L700.6 -49.4L706.6 -47.1L712.6 -44.9L718.6 -42.6L724.6 -40.4L730.6 -38.3L736.6 -36.2L742.5 -34.3L748.5 -32.4L754.5 -30.7L760.5 -29.1L766.5 -27.6L772.5 -26.3L778.5 -25.3L784.5 -24.4L790.5 -23.8L796.4 -23.5L802.4 -23.4L808.4 -23.4L814.4 -23.4L820.4 -23.4L826.4 -23.4L832.4 -23.4L838.4 -23.4L844.4 -23.4L850.3 -23.4L856.3 -23.4L862.3 -23.4L868.3 -23.4L874.3 -23.4L880.3 -23.4L886.3 -23.4L892.3 -23.4L898.2 -23.4L904.2 -23.4L910.2 -23.4L916.2 -23.4L922.2 -23.4L928.2 -23.4L934.2 -23.4L940.2 -23.4L946.2 -23.4L952.1 -23.4L958.1 -23.4L964.1 -23.4L970.1 -23.4L976.1 -23.4L982.1 -23.4L988.1 -23.4L994.1 -23.4L1000 -23.4L1006 -23.4L1012 -23.4L1018 -23.4L1024 -23.4" fill="none" stroke="currentColor" stroke-width="0.75" stroke-linecap="round"/>
<path d="M0 19.4L6 19.4L12 19.4L18 19.4L24 19.4L29.9 19.4L35.9 19.4L41.9 19.4L47.9 19.4L53.9 19.4L59.9 19.4L65.9 19.4L71.9 19.4L77.8 19.4L83.8 19.4L89.8 19.4L95.8 19.4L101.8 19.4L107.8 19.4L113.8 19.4L119.8 19.4L125.8 19.4L131.7 19.4L137.7 19.4L143.7 19.4L149.7 19.4L155.7 19.4L161.7 19.4L167.7 19.4L173.7 19.4L179.6 19.4L185.6 19.4L191.6 19.4L197.6 19.4L203.6 19.4L209.6 19.4L215.6 19.4L221.6 19.4L227.6 19.4L233.5 19.4L239.5 19.4L245.5 19.4L251.5 19.4L257.5 19.4L263.5 19.4L269.5 19.4L275.5 19.4L281.5 19.4L287.4 19.4L293.4 19.4L299.4 19.4L305.4 19.4L311.4 19.4L317.4 19.4L323.4 19.4L329.4 19.4L335.3 18.9L341.3 18.1L347.3 17L353.3 15.6L359.3 14L365.3 12L371.3 9.9L377.3 7.6L383.3 5.1L389.2 2.4L395.2 -0.3L401.2 -3.2L407.2 -6.1L413.2 -9.1L419.2 -12.2L425.2 -15.2L431.2 -18.3L437.1 -21.3L443.1 -24.3L449.1 -27.3L455.1 -30.2L461.1 -33.1L467.1 -35.8L473.1 -38.4L479.1 -41L485.1 -43.4L491 -45.6L497 -47.8L503 -49.7L509 -51.5L515 -53.2L521 -54.6L527 -55.9L533 -57L538.9 -57.9L544.9 -58.6L550.9 -59.1L556.9 -59.4L562.9 -59.5L568.9 -59.4L574.9 -59.1L580.9 -58.7L586.9 -58L592.8 -57.1L598.8 -56L604.8 -54.8L610.8 -53.3L616.8 -51.7L622.8 -49.9L628.8 -48L634.8 -45.9L640.7 -43.6L646.7 -41.2L652.7 -38.7L658.7 -36.1L664.7 -33.3L670.7 -30.5L676.7 -27.6L682.7 -24.6L688.7 -21.6L694.6 -18.6L700.6 -15.5L706.6 -12.5L712.6 -9.4L718.6 -6.4L724.6 -3.5L730.6 -0.6L736.6 2.2L742.5 4.8L748.5 7.3L754.5 9.7L760.5 11.8L766.5 13.8L772.5 15.5L778.5 16.9L784.5 18L790.5 18.9L796.4 19.3L802.4 19.4L808.4 19.4L814.4 19.4L820.4 19.4L826.4 19.4L832.4 19.4L838.4 19.4L844.4 19.4L850.3 19.4L856.3 19.4L862.3 19.4L868.3 19.4L874.3 19.4L880.3 19.4L886.3 19.4L892.3 19.4L898.2 19.4L904.2 19.4L910.2 19.4L916.2 19.4L922.2 19.4L928.2 19.4L934.2 19.4L940.2 19.4L946.2 19.4L952.1 19.4L958.1 19.4L964.1 19.4L970.1 19.4L976.1 19.4L982.1 19.4L988.1 19.4L994.1 19.4L1000 19.4L1006 19.4L1012 19.4L1018 19.4L1024 19.4" fill="none" stroke="currentColor" stroke-width="0.75" stroke-linecap="round"/>
<path d="M0 62.3L6 62.3L12 62.3L18 62.3L24 62.3L29.9 62.3L35.9 62.3L41.9 62.3L47.9 62.3L53.9 62.3L59.9 62.3L65.9 62.3L71.9 62.3L77.8 62.3L83.8 62.3L89.8 62.3L95.8 62.3L101.8 62.3L107.8 62.3L113.8 62.3L119.8 62.3L125.8 62.3L131.7 62.3L137.7 62.3L143.7 62.3L149.7 62.3L155.7 62.3L161.7 62.3L167.7 62.3L173.7 62.3L179.6 62.3L185.6 62.3L191.6 62.3L197.6 62.3L203.6 62.3L209.6 62.3L215.6 62.3L221.6 62.3L227.6 62.3L233.5 62.3L239.5 62.3L245.5 62.3L251.5 62.3L257.5 62.3L263.5 62.3L269.5 62.3L275.5 62.3L281.5 62.3L287.4 62.3L293.4 62.3L299.4 62.3L305.4 62.3L311.4 62.3L317.4 62.3L323.4 62.3L329.4 62.2L335.3 61.6L341.3 60.6L347.3 59.2L353.3 57.3L359.3 55.2L365.3 52.7L371.3 49.9L377.3 46.9L383.3 43.7L389.2 40.3L395.2 36.7L401.2 33L407.2 29.2L413.2 25.3L419.2 21.4L425.2 17.4L431.2 13.5L437.1 9.5L443.1 5.6L449.1 1.8L455.1 -2L461.1 -5.6L467.1 -9.2L473.1 -12.6L479.1 -15.9L485.1 -19L491 -21.9L497 -24.7L503 -27.2L509 -29.5L515 -31.7L521 -33.5L527 -35.2L533 -36.6L538.9 -37.8L544.9 -38.7L550.9 -39.4L556.9 -39.8L562.9 -39.9L568.9 -39.8L574.9 -39.4L580.9 -38.8L586.9 -37.9L592.8 -36.7L598.8 -35.4L604.8 -33.7L610.8 -31.9L616.8 -29.8L622.8 -27.4L628.8 -24.9L634.8 -22.2L640.7 -19.3L646.7 -16.2L652.7 -12.9L658.7 -9.5L664.7 -6L670.7 -2.4L676.7 1.4L682.7 5.2L688.7 9.1L694.6 13.1L700.6 17L706.6 21L712.6 24.9L718.6 28.8L724.6 32.6L730.6 36.3L736.6 39.9L742.5 43.4L748.5 46.6L754.5 49.6L760.5 52.4L766.5 54.9L772.5 57.1L778.5 59L784.5 60.5L790.5 61.5L796.4 62.1L802.4 62.3L808.4 62.3L814.4 62.3L820.4 62.3L826.4 62.3L832.4 62.3L838.4 62.3L844.4 62.3L850.3 62.3L856.3 62.3L862.3 62.3L868.3 62.3L874.3 62.3L880.3 62.3L886.3 62.3L892.3 62.3L898.2 62.3L904.2 62.3L910.2 62.3L916.2 62.3L922.2 62.3L928.2 62.3L934.2 62.3L940.2 62.3L946.2 62.3L952.1 62.3L958.1 62.3L964.1 62.3L970.1 62.3L976.1 62.3L982.1 62.3L988.1 62.3L994.1 62.3L1000 62.3L1006 62.3L1012 62.3L1018 62.3L1024 62.3" fill="none" stroke="currentColor" stroke-width="0.75" stroke-linecap="round"/>
<path d="M0 105.1L6 105.1L12 105.1L18 105.1L24 105.1L29.9 105.1L35.9 105.1L41.9 105.1L47.9 105.1L53.9 105.1L59.9 105.1L65.9 105.1L71.9 105.1L77.8 105.1L83.8 105.1L89.8 105.1L95.8 105.1L101.8 105.1L107.8 105.1L113.8 105.1L119.8 105.1L125.8 105.1L131.7 105.1L137.7 105.1L143.7 105.1L149.7 105.1L155.7 105.1L161.7 105.1L167.7 105.1L173.7 105.1L179.6 105.1L185.6 105.1L191.6 105.1L197.6 105.1L203.6 105.1L209.6 105.1L215.6 105.1L221.6 105.1L227.6 105.1L233.5 105.1L239.5 105.1L245.5 105.1L251.5 105.1L257.5 105.1L263.5 105.1L269.5 105.1L275.5 105.1L281.5 105.1L287.4 105.1L293.4 105.1L299.4 105.1L305.4 105.1L311.4 105.1L317.4 105.1L323.4 105.1L329.4 105L335.3 104.3L341.3 103L347.3 101.2L353.3 99L359.3 96.3L365.3 93.2L371.3 89.7L377.3 86L383.3 82L389.2 77.7L395.2 73.3L401.2 68.7L407.2 63.9L413.2 59.1L419.2 54.2L425.2 49.3L431.2 44.3L437.1 39.4L443.1 34.6L449.1 29.8L455.1 25.1L461.1 20.6L467.1 16.1L473.1 11.9L479.1 7.8L485.1 3.9L491 0.3L497 -3.1L503 -6.3L509 -9.2L515 -11.8L521 -14.2L527 -16.2L533 -18L538.9 -19.5L544.9 -20.6L550.9 -21.4L556.9 -21.9L562.9 -22.1L568.9 -21.9L574.9 -21.5L580.9 -20.7L586.9 -19.6L592.8 -18.2L598.8 -16.4L604.8 -14.4L610.8 -12.1L616.8 -9.5L622.8 -6.6L628.8 -3.5L634.8 -0.1L640.7 3.6L646.7 7.4L652.7 11.5L658.7 15.7L664.7 20.1L670.7 24.7L676.7 29.3L682.7 34.1L688.7 39L694.6 43.9L700.6 48.8L706.6 53.7L712.6 58.6L718.6 63.5L724.6 68.2L730.6 72.8L736.6 77.3L742.5 81.6L748.5 85.6L754.5 89.4L760.5 92.9L766.5 96L772.5 98.7L778.5 101L784.5 102.9L790.5 104.2L796.4 104.9L802.4 105.1L808.4 105.1L814.4 105.1L820.4 105.1L826.4 105.1L832.4 105.1L838.4 105.1L844.4 105.1L850.3 105.1L856.3 105.1L862.3 105.1L868.3 105.1L874.3 105.1L880.3 105.1L886.3 105.1L892.3 105.1L898.2 105.1L904.2 105.1L910.2 105.1L916.2 105.1L922.2 105.1L928.2 105.1L934.2 105.1L940.2 105.1L946.2 105.1L952.1 105.1L958.1 105.1L964.1 105.1L970.1 105.1L976.1 105.1L982.1 105.1L988.1 105.1L994.1 105.1L1000 105.1L1006 105.1L1012 105.1L1018 105.1L1024 105.1" fill="none" stroke="currentColor" stroke-width="0.75" stroke-linecap="round"/>
<path d="M0 147.9L6 147.9L12 147.9L18 147.9L24 147.9L29.9 147.9L35.9 147.9L41.9 147.9L47.9 147.9L53.9 147.9L59.9 147.9L65.9 147.9L71.9 147.9L77.8 147.9L83.8 147.9L89.8 147.9L95.8 147.9L101.8 147.9L107.8 147.9L113.8 147.9L119.8 147.9L125.8 147.9L131.7 147.9L137.7 147.9L143.7 147.9L149.7 147.9L155.7 147.9L161.7 147.9L167.7 147.9L173.7 147.9L179.6 147.9L185.6 147.9L191.6 147.9L197.6 147.9L203.6 147.9L209.6 147.9L215.6 147.9L221.6 147.9L227.6 147.9L233.5 147.9L239.5 147.9L245.5 147.9L251.5 147.9L257.5 147.9L263.5 147.9L269.5 147.9L275.5 147.9L281.5 147.9L287.4 147.9L293.4 147.9L299.4 147.9L305.4 147.9L311.4 147.9L317.4 147.9L323.4 147.9L329.4 147.8L335.3 146.9L341.3 145.4L347.3 143.3L353.3 140.6L359.3 137.4L365.3 133.7L371.3 129.5L377.3 125.1L383.3 120.2L389.2 115.1L395.2 109.8L401.2 104.3L407.2 98.6L413.2 92.8L419.2 87L425.2 81.1L431.2 75.2L437.1 69.3L443.1 63.4L449.1 57.7L455.1 52.1L461.1 46.6L467.1 41.3L473.1 36.3L479.1 31.4L485.1 26.7L491 22.4L497 18.3L503 14.5L509 11L515 7.8L521 5L527 2.6L533 0.5L538.9 -1.3L544.9 -2.7L550.9 -3.6L556.9 -4.2L562.9 -4.4L568.9 -4.3L574.9 -3.7L580.9 -2.8L586.9 -1.4L592.8 0.3L598.8 2.3L604.8 4.8L610.8 7.5L616.8 10.7L622.8 14.1L628.8 17.9L634.8 21.9L640.7 26.3L646.7 30.9L652.7 35.8L658.7 40.8L664.7 46.1L670.7 51.6L676.7 57.2L682.7 62.9L688.7 68.7L694.6 74.6L700.6 80.5L706.6 86.4L712.6 92.2L718.6 98L724.6 103.7L730.6 109.3L736.6 114.6L742.5 119.7L748.5 124.6L754.5 129.1L760.5 133.3L766.5 137L772.5 140.3L778.5 143.1L784.5 145.2L790.5 146.8L796.4 147.7L802.4 147.9L808.4 147.9L814.4 147.9L820.4 147.9L826.4 147.9L832.4 147.9L838.4 147.9L844.4 147.9L850.3 147.9L856.3 147.9L862.3 147.9L868.3 147.9L874.3 147.9L880.3 147.9L886.3 147.9L892.3 147.9L898.2 147.9L904.2 147.9L910.2 147.9L916.2 147.9L922.2 147.9L928.2 147.9L934.2 147.9L940.2 147.9L946.2 147.9L952.1 147.9L958.1 147.9L964.1 147.9L970.1 147.9L976.1 147.9L982.1 147.9L988.1 147.9L994.1 147.9L1000 147.9L1006 147.9L1012 147.9L1018 147.9L1024 147.9" fill="none" stroke="currentColor" stroke-width="0.75" stroke-linecap="round"/>
<path d="M0 190.8L6 190.8L12 190.8L18 190.8L24 190.8L29.9 190.8L35.9 190.8L41.9 190.8L47.9 190.8L53.9 190.8L59.9 190.8L65.9 190.8L71.9 190.8L77.8 190.8L83.8 190.8L89.8 190.8L95.8 190.8L101.8 190.8L107.8 190.8L113.8 190.8L119.8 190.8L125.8 190.8L131.7 190.8L137.7 190.8L143.7 190.8L149.7 190.8L155.7 190.8L161.7 190.8L167.7 190.8L173.7 190.8L179.6 190.8L185.6 190.8L191.6 190.8L197.6 190.8L203.6 190.8L209.6 190.8L215.6 190.8L221.6 190.8L227.6 190.8L233.5 190.8L239.5 190.8L245.5 190.8L251.5 190.8L257.5 190.8L263.5 190.8L269.5 190.8L275.5 190.8L281.5 190.8L287.4 190.8L293.4 190.8L299.4 190.8L305.4 190.8L311.4 190.8L317.4 190.8L323.4 190.8L329.4 190.6L335.3 189.6L341.3 187.9L347.3 185.4L353.3 182.3L359.3 178.6L365.3 174.3L371.3 169.6L377.3 164.4L383.3 158.8L389.2 153L395.2 146.8L401.2 140.5L407.2 133.9L413.2 127.2L419.2 120.5L425.2 113.7L431.2 106.9L437.1 100.1L443.1 93.4L449.1 86.8L455.1 80.3L461.1 74L467.1 67.9L473.1 62L479.1 56.4L485.1 51.1L491 46L497 41.3L503 36.9L509 32.9L515 29.3L521 26L527 23.2L533 20.7L538.9 18.7L544.9 17.2L550.9 16L556.9 15.3L562.9 15.1L568.9 15.3L574.9 15.9L580.9 17L586.9 18.6L592.8 20.5L598.8 22.9L604.8 25.7L610.8 28.9L616.8 32.5L622.8 36.5L628.8 40.8L634.8 45.5L640.7 50.5L646.7 55.9L652.7 61.4L658.7 67.3L664.7 73.4L670.7 79.7L676.7 86.1L682.7 92.7L688.7 99.4L694.6 106.2L700.6 113L706.6 119.8L712.6 126.6L718.6 133.3L724.6 139.8L730.6 146.2L736.6 152.4L742.5 158.3L748.5 163.9L754.5 169.1L760.5 173.9L766.5 178.2L772.5 182L778.5 185.1L784.5 187.7L790.5 189.5L796.4 190.5L802.4 190.8L808.4 190.8L814.4 190.8L820.4 190.8L826.4 190.8L832.4 190.8L838.4 190.8L844.4 190.8L850.3 190.8L856.3 190.8L862.3 190.8L868.3 190.8L874.3 190.8L880.3 190.8L886.3 190.8L892.3 190.8L898.2 190.8L904.2 190.8L910.2 190.8L916.2 190.8L922.2 190.8L928.2 190.8L934.2 190.8L940.2 190.8L946.2 190.8L952.1 190.8L958.1 190.8L964.1 190.8L970.1 190.8L976.1 190.8L982.1 190.8L988.1 190.8L994.1 190.8L1000 190.8L1006 190.8L1012 190.8L1018 190.8L1024 190.8" fill="none" stroke="currentColor" stroke-width="0.75" stroke-linecap="round"/>
<path d="M0 233.6L6 233.6L12 233.6L18 233.6L24 233.6L29.9 233.6L35.9 233.6L41.9 233.6L47.9 233.6L53.9 233.6L59.9 233.6L65.9 233.6L71.9 233.6L77.8 233.6L83.8 233.6L89.8 233.6L95.8 233.6L101.8 233.6L107.8 233.6L113.8 233.6L119.8 233.6L125.8 233.6L131.7 233.6L137.7 233.6L143.7 233.6L149.7 233.6L155.7 233.6L161.7 233.6L167.7 233.6L173.7 233.6L179.6 233.6L185.6 233.6L191.6 233.6L197.6 233.6L203.6 233.6L209.6 233.6L215.6 233.6L221.6 233.6L227.6 233.6L233.5 233.6L239.5 233.6L245.5 233.6L251.5 233.6L257.5 233.6L263.5 233.6L269.5 233.6L275.5 233.6L281.5 233.6L287.4 233.6L293.4 233.6L299.4 233.6L305.4 233.6L311.4 233.6L317.4 233.6L323.4 233.6L329.4 233.4L335.3 232.3L341.3 230.4L347.3 227.7L353.3 224.2L359.3 220.1L365.3 215.3L371.3 210.1L377.3 204.3L383.3 198.2L389.2 191.7L395.2 184.9L401.2 177.8L407.2 170.5L413.2 163.1L419.2 155.6L425.2 148.1L431.2 140.5L437.1 133L443.1 125.6L449.1 118.2L455.1 111.1L461.1 104.1L467.1 97.3L473.1 90.8L479.1 84.5L485.1 78.6L491 73L497 67.8L503 62.9L509 58.5L515 54.4L521 50.8L527 47.7L533 45L538.9 42.8L544.9 41L550.9 39.8L556.9 39L562.9 38.7L568.9 39L574.9 39.7L580.9 40.9L586.9 42.6L592.8 44.8L598.8 47.4L604.8 50.5L610.8 54.1L616.8 58.1L622.8 62.5L628.8 67.3L634.8 72.5L640.7 78L646.7 83.9L652.7 90.1L658.7 96.6L664.7 103.4L670.7 110.3L676.7 117.5L682.7 124.8L688.7 132.3L694.6 139.8L700.6 147.3L706.6 154.9L712.6 162.4L718.6 169.8L724.6 177.1L730.6 184.2L736.6 191L742.5 197.5L748.5 203.7L754.5 209.5L760.5 214.8L766.5 219.6L772.5 223.8L778.5 227.4L784.5 230.2L790.5 232.2L796.4 233.3L802.4 233.6L808.4 233.6L814.4 233.6L820.4 233.6L826.4 233.6L832.4 233.6L838.4 233.6L844.4 233.6L850.3 233.6L856.3 233.6L862.3 233.6L868.3 233.6L874.3 233.6L880.3 233.6L886.3 233.6L892.3 233.6L898.2 233.6L904.2 233.6L910.2 233.6L916.2 233.6L922.2 233.6L928.2 233.6L934.2 233.6L940.2 233.6L946.2 233.6L952.1 233.6L958.1 233.6L964.1 233.6L970.1 233.6L976.1 233.6L982.1 233.6L988.1 233.6L994.1 233.6L1000 233.6L1006 233.6L1012 233.6L1018 233.6L1024 233.6" fill="none" stroke="currentColor" stroke-width="0.75" stroke-linecap="round"/>
<path d="M0 276.4L6 276.4L12 276.4L18 276.4L24 276.4L29.9 276.4L35.9 276.4L41.9 276.4L47.9 276.4L53.9 276.4L59.9 276.4L65.9 276.4L71.9 276.4L77.8 276.4L83.8 276.4L89.8 276.4L95.8 276.4L101.8 276.4L107.8 276.4L113.8 276.4L119.8 276.4L125.8 276.4L131.7 276.4L137.7 276.4L143.7 276.4L149.7 276.4L155.7 276.4L161.7 276.4L167.7 276.4L173.7 276.4L179.6 276.4L185.6 276.4L191.6 276.4L197.6 276.4L203.6 276.4L209.6 276.4L215.6 276.4L221.6 276.4L227.6 276.4L233.5 276.4L239.5 276.4L245.5 276.4L251.5 276.4L257.5 276.4L263.5 276.4L269.5 276.4L275.5 276.4L281.5 276.4L287.4 276.4L293.4 276.4L299.4 276.4L305.4 276.4L311.4 276.4L317.4 276.4L323.4 276.4L329.4 276.2L335.3 275.1L341.3 273L347.3 270.1L353.3 266.4L359.3 262L365.3 256.9L371.3 251.3L377.3 245.2L383.3 238.6L389.2 231.7L395.2 224.4L401.2 216.9L407.2 209.1L413.2 201.2L419.2 193.2L425.2 185.1L431.2 177.1L437.1 169.1L443.1 161.1L449.1 153.3L455.1 145.6L461.1 138.2L467.1 130.9L473.1 124L479.1 117.3L485.1 111L491 105L497 99.4L503 94.3L509 89.5L515 85.2L521 81.3L527 78L533 75.1L538.9 72.7L544.9 70.9L550.9 69.5L556.9 68.7L562.9 68.4L568.9 68.7L574.9 69.4L580.9 70.7L586.9 72.5L592.8 74.8L598.8 77.7L604.8 81L610.8 84.8L616.8 89.1L622.8 93.8L628.8 98.9L634.8 104.5L640.7 110.4L646.7 116.7L652.7 123.3L658.7 130.2L664.7 137.4L670.7 144.9L676.7 152.5L682.7 160.3L688.7 168.3L694.6 176.3L700.6 184.3L706.6 192.4L712.6 200.4L718.6 208.3L724.6 216.1L730.6 223.7L736.6 231L742.5 238L748.5 244.6L754.5 250.7L760.5 256.4L766.5 261.5L772.5 266L778.5 269.8L784.5 272.8L790.5 274.9L796.4 276.2L802.4 276.4L808.4 276.4L814.4 276.4L820.4 276.4L826.4 276.4L832.4 276.4L838.4 276.4L844.4 276.4L850.3 276.4L856.3 276.4L862.3 276.4L868.3 276.4L874.3 276.4L880.3 276.4L886.3 276.4L892.3 276.4L898.2 276.4L904.2 276.4L910.2 276.4L916.2 276.4L922.2 276.4L928.2 276.4L934.2 276.4L940.2 276.4L946.2 276.4L952.1 276.4L958.1 276.4L964.1 276.4L970.1 276.4L976.1 276.4L982.1 276.4L988.1 276.4L994.1 276.4L1000 276.4L1006 276.4L1012 276.4L1018 276.4L1024 276.4" fill="none" stroke="currentColor" stroke-width="0.75" stroke-linecap="round"/>
<path d="M0 319.3L6 319.3L12 319.3L18 319.3L24 319.3L29.9 319.3L35.9 319.3L41.9 319.3L47.9 319.3L53.9 319.3L59.9 319.3L65.9 319.3L71.9 319.3L77.8 319.3L83.8 319.3L89.8 319.3L95.8 319.3L101.8 319.3L107.8 319.3L113.8 319.3L119.8 319.3L125.8 319.3L131.7 319.3L137.7 319.3L143.7 319.3L149.7 319.3L155.7 319.3L161.7 319.3L167.7 319.3L173.7 319.3L179.6 319.3L185.6 319.3L191.6 319.3L197.6 319.3L203.6 319.3L209.6 319.3L215.6 319.3L221.6 319.3L227.6 319.3L233.5 319.3L239.5 319.3L245.5 319.3L251.5 319.3L257.5 319.3L263.5 319.3L269.5 319.3L275.5 319.3L281.5 319.3L287.4 319.3L293.4 319.3L299.4 319.3L305.4 319.3L311.4 319.3L317.4 319.3L323.4 319.3L329.4 319L335.3 317.9L341.3 315.8L347.3 312.8L353.3 309L359.3 304.4L365.3 299.3L371.3 293.5L377.3 287.2L383.3 280.4L389.2 273.3L395.2 265.8L401.2 258.1L407.2 250.1L413.2 242L419.2 233.8L425.2 225.5L431.2 217.2L437.1 209L443.1 200.8L449.1 192.8L455.1 184.9L461.1 177.2L467.1 169.8L473.1 162.7L479.1 155.8L485.1 149.3L491 143.2L497 137.5L503 132.1L509 127.3L515 122.8L521 118.9L527 115.4L533 112.5L538.9 110L544.9 108.1L550.9 106.7L556.9 105.9L562.9 105.6L568.9 105.8L574.9 106.6L580.9 108L586.9 109.8L592.8 112.2L598.8 115.1L604.8 118.5L610.8 122.4L616.8 126.8L622.8 131.6L628.8 136.9L634.8 142.6L640.7 148.7L646.7 155.2L652.7 162L658.7 169.1L664.7 176.5L670.7 184.1L676.7 192L682.7 200L688.7 208.1L694.6 216.4L700.6 224.7L706.6 233L712.6 241.2L718.6 249.3L724.6 257.3L730.6 265.1L736.6 272.6L742.5 279.7L748.5 286.5L754.5 292.9L760.5 298.7L766.5 303.9L772.5 308.5L778.5 312.4L784.5 315.5L790.5 317.7L796.4 319L802.4 319.3L808.4 319.3L814.4 319.3L820.4 319.3L826.4 319.3L832.4 319.3L838.4 319.3L844.4 319.3L850.3 319.3L856.3 319.3L862.3 319.3L868.3 319.3L874.3 319.3L880.3 319.3L886.3 319.3L892.3 319.3L898.2 319.3L904.2 319.3L910.2 319.3L916.2 319.3L922.2 319.3L928.2 319.3L934.2 319.3L940.2 319.3L946.2 319.3L952.1 319.3L958.1 319.3L964.1 319.3L970.1 319.3L976.1 319.3L982.1 319.3L988.1 319.3L994.1 319.3L1000 319.3L1006 319.3L1012 319.3L1018 319.3L1024 319.3" fill="none" stroke="currentColor" stroke-width="0.75" stroke-linecap="round"/>
<path d="M0 362.1L6 362.1L12 362.1L18 362.1L24 362.1L29.9 362.1L35.9 362.1L41.9 362.1L47.9 362.1L53.9 362.1L59.9 362.1L65.9 362.1L71.9 362.1L77.8 362.1L83.8 362.1L89.8 362.1L95.8 362.1L101.8 362.1L107.8 362.1L113.8 362.1L119.8 362.1L125.8 362.1L131.7 362.1L137.7 362.1L143.7 362.1L149.7 362.1L155.7 362.1L161.7 362.1L167.7 362.1L173.7 362.1L179.6 362.1L185.6 362.1L191.6 362.1L197.6 362.1L203.6 362.1L209.6 362.1L215.6 362.1L221.6 362.1L227.6 362.1L233.5 362.1L239.5 362.1L245.5 362.1L251.5 362.1L257.5 362.1L263.5 362.1L269.5 362.1L275.5 362.1L281.5 362.1L287.4 362.1L293.4 362.1L299.4 362.1L305.4 362.1L311.4 362.1L317.4 362.1L323.4 362.1L329.4 362.3L335.3 363.4L341.3 365.5L347.3 368.5L353.3 372.3L359.3 376.7L365.3 381.9L371.3 387.6L377.3 393.8L383.3 400.5L389.2 407.5L395.2 414.9L401.2 422.6L407.2 430.4L413.2 438.4L419.2 446.6L425.2 454.8L431.2 462.9L437.1 471.1L443.1 479.2L449.1 487.1L455.1 494.9L461.1 502.5L467.1 509.8L473.1 516.9L479.1 523.6L485.1 530L491 536.1L497 541.8L503 547L509 551.9L515 556.2L521 560.1L527 563.6L533 566.5L538.9 568.9L544.9 570.8L550.9 572.1L556.9 573L562.9 573.3L568.9 573L574.9 572.2L580.9 570.9L586.9 569.1L592.8 566.7L598.8 563.9L604.8 560.5L610.8 556.6L616.8 552.3L622.8 547.5L628.8 542.3L634.8 536.7L640.7 530.7L646.7 524.3L652.7 517.5L658.7 510.5L664.7 503.2L670.7 495.6L676.7 487.9L682.7 480L688.7 471.9L694.6 463.8L700.6 455.6L706.6 447.4L712.6 439.2L718.6 431.2L724.6 423.3L730.6 415.7L736.6 408.2L742.5 401.1L748.5 394.4L754.5 388.2L760.5 382.4L766.5 377.2L772.5 372.7L778.5 368.8L784.5 365.8L790.5 363.6L796.4 362.4L802.4 362.1L808.4 362.1L814.4 362.1L820.4 362.1L826.4 362.1L832.4 362.1L838.4 362.1L844.4 362.1L850.3 362.1L856.3 362.1L862.3 362.1L868.3 362.1L874.3 362.1L880.3 362.1L886.3 362.1L892.3 362.1L898.2 362.1L904.2 362.1L910.2 362.1L916.2 362.1L922.2 362.1L928.2 362.1L934.2 362.1L940.2 362.1L946.2 362.1L952.1 362.1L958.1 362.1L964.1 362.1L970.1 362.1L976.1 362.1L982.1 362.1L988.1 362.1L994.1 362.1L1000 362.1L1006 362.1L1012 362.1L1018 362.1L1024 362.1" fill="none" stroke="currentColor" stroke-width="0.75" stroke-linecap="round"/>
<path d="M0 404.9L6 404.9L12 404.9L18 404.9L24 404.9L29.9 404.9L35.9 404.9L41.9 404.9L47.9 404.9L53.9 404.9L59.9 404.9L65.9 404.9L71.9 404.9L77.8 404.9L83.8 404.9L89.8 404.9L95.8 404.9L101.8 404.9L107.8 404.9L113.8 404.9L119.8 404.9L125.8 404.9L131.7 404.9L137.7 404.9L143.7 404.9L149.7 404.9L155.7 404.9L161.7 404.9L167.7 404.9L173.7 404.9L179.6 404.9L185.6 404.9L191.6 404.9L197.6 404.9L203.6 404.9L209.6 404.9L215.6 404.9L221.6 404.9L227.6 404.9L233.5 404.9L239.5 404.9L245.5 404.9L251.5 404.9L257.5 404.9L263.5 404.9L269.5 404.9L275.5 404.9L281.5 404.9L287.4 404.9L293.4 404.9L299.4 404.9L305.4 404.9L311.4 404.9L317.4 404.9L323.4 404.9L329.4 405.1L335.3 406.2L341.3 408.2L347.3 411L353.3 414.6L359.3 418.8L365.3 423.7L371.3 429.1L377.3 435.1L383.3 441.4L389.2 448.1L395.2 455.1L401.2 462.4L407.2 469.9L413.2 477.5L419.2 485.3L425.2 493.1L431.2 500.8L437.1 508.6L443.1 516.3L449.1 523.8" fill="none" stroke="currentColor" stroke-width="0.75" stroke-linecap="round"/>
<path d="M682.7 517L688.7 509.4L694.6 501.6L700.6 493.8L706.6 486L712.6 478.3L718.6 470.7L724.6 463.2L730.6 455.9L736.6 448.8L742.5 442.1L748.5 435.7L754.5 429.7L760.5 424.2L766.5 419.3L772.5 415L778.5 411.3L784.5 408.4L790.5 406.4L796.4 405.2L802.4 404.9L808.4 404.9L814.4 404.9L820.4 404.9L826.4 404.9L832.4 404.9L838.4 404.9L844.4 404.9L850.3 404.9L856.3 404.9L862.3 404.9L868.3 404.9L874.3 404.9L880.3 404.9L886.3 404.9L892.3 404.9L898.2 404.9L904.2 404.9L910.2 404.9L916.2 404.9L922.2 404.9L928.2 404.9L934.2 404.9L940.2 404.9L946.2 404.9L952.1 404.9L958.1 404.9L964.1 404.9L970.1 404.9L976.1 404.9L982.1 404.9L988.1 404.9L994.1 404.9L1000 404.9L1006 404.9L1012 404.9L1018 404.9L1024 404.9" fill="none" stroke="currentColor" stroke-width="0.75" stroke-linecap="round"/>
<path d="M0 447.8L6 447.8L12 447.8L18 447.8L24 447.8L29.9 447.8L35.9 447.8L41.9 447.8L47.9 447.8L53.9 447.8L59.9 447.8L65.9 447.8L71.9 447.8L77.8 447.8L83.8 447.8L89.8 447.8L95.8 447.8L101.8 447.8L107.8 447.8L113.8 447.8L119.8 447.8L125.8 447.8L131.7 447.8L137.7 447.8L143.7 447.8L149.7 447.8L155.7 447.8L161.7 447.8L167.7 447.8L173.7 447.8L179.6 447.8L185.6 447.8L191.6 447.8L197.6 447.8L203.6 447.8L209.6 447.8L215.6 447.8L221.6 447.8L227.6 447.8L233.5 447.8L239.5 447.8L245.5 447.8L251.5 447.8L257.5 447.8L263.5 447.8L269.5 447.8L275.5 447.8L281.5 447.8L287.4 447.8L293.4 447.8L299.4 447.8L305.4 447.8L311.4 447.8L317.4 447.8L323.4 447.8L329.4 447.9L335.3 448.9L341.3 450.8L347.3 453.3L353.3 456.6L359.3 460.5L365.3 465L371.3 469.9L377.3 475.3L383.3 481.1L389.2 487.3L395.2 493.7L401.2 500.4L407.2 507.2L413.2 514.2L419.2 521.3L425.2 528.4L431.2 535.5L437.1 542.6L443.1 549.7L449.1 556.6L455.1 563.3L461.1 569.9L467.1 576.3L473.1 582.5L479.1 588.3L485.1 593.9L491 599.2L497 604.2L503 608.7L509 612.9L515 616.7L521 620.1L527 623.1L533 625.7L538.9 627.8L544.9 629.4L550.9 630.6L556.9 631.3L562.9 631.6L568.9 631.4L574.9 630.7L580.9 629.5L586.9 627.9L592.8 625.9L598.8 623.4L604.8 620.5L610.8 617.1L616.8 613.3L622.8 609.2L628.8 604.6L634.8 599.7L640.7 594.5L646.7 588.9L652.7 583.1L658.7 576.9L664.7 570.6L670.7 564L676.7 557.3L682.7 550.4L688.7 543.3L694.6 536.3L700.6 529.1L706.6 522L712.6 514.9L718.6 507.9L724.6 501.1L730.6 494.4L736.6 487.9L742.5 481.7L748.5 475.9L754.5 470.5L760.5 465.4L766.5 460.9L772.5 457L778.5 453.6L784.5 451L790.5 449.1L796.4 448L802.4 447.8L808.4 447.8L814.4 447.8L820.4 447.8L826.4 447.8L832.4 447.8L838.4 447.8L844.4 447.8L850.3 447.8L856.3 447.8L862.3 447.8L868.3 447.8L874.3 447.8L880.3 447.8L886.3 447.8L892.3 447.8L898.2 447.8L904.2 447.8L910.2 447.8L916.2 447.8L922.2 447.8L928.2 447.8L934.2 447.8L940.2 447.8L946.2 447.8L952.1 447.8L958.1 447.8L964.1 447.8L970.1 447.8L976.1 447.8L982.1 447.8L988.1 447.8L994.1 447.8L1000 447.8L1006 447.8L1012 447.8L1018 447.8L1024 447.8" fill="none" stroke="currentColor" stroke-width="0.75" stroke-linecap="round"/>
<path d="M18 490.6L24 490.6L29.9 490.6L35.9 490.6L41.9 490.6L47.9 490.6L53.9 490.6L59.9 490.6L65.9 490.6L71.9 490.6L77.8 490.6L83.8 490.6L89.8 490.6L95.8 490.6L101.8 490.6L107.8 490.6L113.8 490.6L119.8 490.6L125.8 490.6L131.7 490.6L137.7 490.6L143.7 490.6L149.7 490.6L155.7 490.6L161.7 490.6L167.7 490.6L173.7 490.6L179.6 490.6L185.6 490.6L191.6 490.6L197.6 490.6L203.6 490.6L209.6 490.6L215.6 490.6L221.6 490.6L227.6 490.6L233.5 490.6L239.5 490.6L245.5 490.6L251.5 490.6L257.5 490.6L263.5 490.6L269.5 490.6L275.5 490.6L281.5 490.6L287.4 490.6L293.4 490.6L299.4 490.6L305.4 490.6L311.4 490.6L317.4 490.6L323.4 490.6L329.4 490.7L335.3 491.6" fill="none" stroke="currentColor" stroke-width="0.75" stroke-linecap="round"/>
<path d="M790.5 491.8L796.4 490.8L802.4 490.6L808.4 490.6L814.4 490.6L820.4 490.6L826.4 490.6L832.4 490.6L838.4 490.6L844.4 490.6L850.3 490.6L856.3 490.6L862.3 490.6L868.3 490.6L874.3 490.6L880.3 490.6L886.3 490.6L892.3 490.6L898.2 490.6L904.2 490.6L910.2 490.6L916.2 490.6L922.2 490.6L928.2 490.6L934.2 490.6L940.2 490.6L946.2 490.6L952.1 490.6L958.1 490.6L964.1 490.6" fill="none" stroke="currentColor" stroke-width="0.75" stroke-linecap="round"/>
<path d="M185.6 533.4L191.6 533.4L197.6 533.4L203.6 533.4L209.6 533.4L215.6 533.4L221.6 533.4L227.6 533.4L233.5 533.4L239.5 533.4L245.5 533.4L251.5 533.4L257.5 533.4L263.5 533.4L269.5 533.4L275.5 533.4L281.5 533.4L287.4 533.4L293.4 533.4L299.4 533.4L305.4 533.4L311.4 533.4L317.4 533.4L323.4 533.4L329.4 533.5L335.3 534.3L341.3 535.7L347.3 537.6L353.3 540L359.3 542.9L365.3 546.3L371.3 550L377.3 554L383.3 558.3L389.2 562.9L395.2 567.7L401.2 572.7L407.2 577.8L413.2 583L419.2 588.3L425.2 593.6L431.2 598.9L437.1 604.2L443.1 609.5L449.1 614.6L455.1 619.7L461.1 624.6L467.1 629.4L473.1 634L479.1 638.3L485.1 642.5L491 646.5L497 650.1L503 653.6L509 656.7L515 659.5L521 662.1" fill="none" stroke="currentColor" stroke-width="0.75" stroke-linecap="round"/>
<path d="M604.8 662.3L610.8 659.8L616.8 657L622.8 653.9L628.8 650.5L634.8 646.8L640.7 642.9L646.7 638.8L652.7 634.4L658.7 629.8L664.7 625.1L670.7 620.2L676.7 615.1L682.7 610L688.7 604.8L694.6 599.5L700.6 594.1L706.6 588.8L712.6 583.5L718.6 578.3L724.6 573.2L730.6 568.2L736.6 563.4L742.5 558.8L748.5 554.4L754.5 550.4L760.5 546.6L766.5 543.2L772.5 540.3L778.5 537.8L784.5 535.8L790.5 534.4L796.4 533.6L802.4 533.4L808.4 533.4L814.4 533.4L820.4 533.4L826.4 533.4L832.4 533.4L838.4 533.4L844.4 533.4L850.3 533.4L856.3 533.4L862.3 533.4L868.3 533.4L874.3 533.4L880.3 533.4L886.3 533.4L892.3 533.4L898.2 533.4L904.2 533.4L910.2 533.4L916.2 533.4L922.2 533.4L928.2 533.4L934.2 533.4L940.2 533.4L946.2 533.4L952.1 533.4L958.1 533.4" fill="none" stroke="currentColor" stroke-width="0.75" stroke-linecap="round"/>
<path d="M18 576.2L24 576.2L29.9 576.2L35.9 576.2L41.9 576.2L47.9 576.2L53.9 576.2L59.9 576.2L65.9 576.2L71.9 576.2L77.8 576.2L83.8 576.2L89.8 576.2L95.8 576.2L101.8 576.2L107.8 576.2L113.8 576.2L119.8 576.2L125.8 576.2L131.7 576.2L137.7 576.2L143.7 576.2L149.7 576.2L155.7 576.2L161.7 576.2L167.7 576.2L173.7 576.2L179.6 576.2L185.6 576.2L191.6 576.2L197.6 576.2L203.6 576.2L209.6 576.2L215.6 576.2L221.6 576.2L227.6 576.2L233.5 576.2L239.5 576.2L245.5 576.2L251.5 576.2L257.5 576.2L263.5 576.2L269.5 576.2L275.5 576.2L281.5 576.2L287.4 576.2L293.4 576.2L299.4 576.2L305.4 576.2L311.4 576.2L317.4 576.2L323.4 576.2L329.4 576.4L335.3 577L341.3 578.1L347.3 579.6L353.3 581.6L359.3 584L365.3 586.7L371.3 589.7L377.3 593L383.3 596.6L389.2 600.3L395.2 604.2L401.2 608.3L407.2 612.4L413.2 616.7L419.2 621L425.2 625.3L431.2 629.7L437.1 634L443.1 638.3L449.1 642.5L455.1 646.6L461.1 650.6L467.1 654.5L473.1 658.2L479.1 661.8L485.1 665.2L491 668.4L497 671.4L503 674.2L509 676.8L515 679.1L521 681.2L527 683L533 684.5L538.9 685.8L544.9 686.8L550.9 687.5L556.9 688L562.9 688.1L568.9 688L574.9 687.6L580.9 686.9L586.9 685.9L592.8 684.7L598.8 683.1L604.8 681.4L610.8 679.3L616.8 677L622.8 674.5L628.8 671.7L634.8 668.7L640.7 665.5L646.7 662.2L652.7 658.6L658.7 654.9L664.7 651L670.7 647L676.7 642.9L682.7 638.7L688.7 634.4L694.6 630.1L700.6 625.8L706.6 621.4L712.6 617.1L718.6 612.9L724.6 608.7L730.6 604.6L736.6 600.7L742.5 596.9L748.5 593.4L754.5 590.1L760.5 587L766.5 584.3L772.5 581.9L778.5 579.8L784.5 578.2L790.5 577.1L796.4 576.4L802.4 576.2L808.4 576.2L814.4 576.2L820.4 576.2L826.4 576.2L832.4 576.2L838.4 576.2L844.4 576.2L850.3 576.2L856.3 576.2L862.3 576.2L868.3 576.2" fill="none" stroke="currentColor" stroke-width="0.75" stroke-linecap="round"/>
</svg>
