<svg xmlns="http://www.w3.org/2000/svg" viewBox="0 0 1024 1024" width="1024" height="1024" color="#000">
<path d="M276.7 81.9L276.1 91.3L274.3 100.5L271.2 109.4L267.1 117.9L261.9 125.7L255.7 132.8L248.6 139L240.8 144.2L232.3 148.4L223.4 151.4L214.2 153.2L204.8 153.8L195.4 153.2L186.2 151.4L177.3 148.4L168.8 144.2L161 139L153.9 132.8L147.7 125.7L142.5 117.9L138.4 109.4L135.3 100.5L133.5 91.3L132.9 81.9L133.5 72.5L135.3 63.3L138.4 54.4L142.5 46L147.7 38.1L153.9 31.1L161 24.9L168.8 19.6L177.3 15.5L186.2 12.5L195.4 10.6L204.8 10L214.2 10.6L223.4 12.5L232.3 15.5L240.8 19.6L248.6 24.9L255.7 31.1L261.9 38.1L267.1 46L271.2 54.4L274.3 63.3L276.1 72.5L276.7 81.9" fill="none" stroke="currentColor" stroke-width="0.75" stroke-linecap="round"/>
<path d="M346.8 81.9L345.6 100.5L342 118.7L336 136.3L327.8 152.9L317.4 168.4L305.2 182.3L291.2 194.6L275.8 204.9L259.1 213.1L241.5 219.1L223.3 222.7L204.8 223.9L186.3 222.7L168.1 219.1L150.5 213.1L133.8 204.9L118.4 194.6L104.4 182.3L92.2 168.4L81.8 152.9L73.6 136.3L67.6 118.7L64 100.5L62.8 81.9L64 63.4L67.6 45.2L73.6 27.6L81.8 10.9L92.2 -4.5L104.4 -18.5L118.4 -30.7L133.8 -41L150.5 -49.3L168.1 -55.2L186.3 -58.9L204.8 -60.1L223.3 -58.9L241.5 -55.2L259.1 -49.3L275.8 -41L291.2 -30.7L305.2 -18.5L317.4 -4.5L327.8 10.9L336 27.6L342 45.2L345.6 63.4L346.8 81.9" fill="none" stroke="currentColor" stroke-width="0.75" stroke-linecap="round"/>
<path d="M415 81.9L414.2 100.8L411.6 119.5L407.4 137.8L401.6 155.8L394.2 173.1L385.3 189.7L374.9 205.5L363.1 220.2L350.1 233.9L335.9 246.3L320.6 257.4L304.4 267L287.4 275.2L269.8 281.8L251.6 286.9L233 290.2L214.2 291.9L195.4 291.9L176.6 290.2L158 286.9L139.8 281.8L122.2 275.2L105.2 267L89 257.4L73.7 246.3L59.5 233.9L46.5 220.2L34.7 205.5L24.3 189.7L15.4 173.1L8 155.8L2.2 137.8L-2 119.5L-4.6 100.8L-5.4 81.9L-4.6 63.1L-2 44.4L2.2 26L8 8.1L15.4 -9.3L24.3 -25.9L34.7 -41.6L46.5 -56.4L59.5 -70L73.7 -82.4L89 -93.5L105.2 -103.2L122.2 -111.4L139.8 -118L158 -123L176.6 -126.4L195.4 -128.1L214.2 -128.1L233 -126.4L251.6 -123L269.8 -118L287.4 -111.4L304.4 -103.2L320.6 -93.5L335.9 -82.4L350.1 -70L363.1 -56.4L374.9 -41.6L385.3 -25.9L394.2 -9.3L401.6 8.1L407.4 26L411.6 44.4L414.2 63.1L415 81.9" fill="none" stroke="currentColor" stroke-width="0.75" stroke-linecap="round"/>
<path d="M481.4 81.9L480.7 100.8L478.8 119.6L475.6 138.2L471.1 156.5L465.4 174.5L458.5 192.1L450.4 209.2L441.1 225.6L430.7 241.4L419.3 256.5L406.9 270.7L393.6 284L379.3 296.5L364.3 307.9L348.5 318.2L332 327.5L315 335.6L297.4 342.5L279.4 348.2L261.1 352.7L242.5 355.9L223.7 357.8L204.8 358.5L185.9 357.8L167.1 355.9L148.5 352.7L130.2 348.2L112.2 342.5L94.6 335.6L77.6 327.5L61.1 318.2L45.3 307.9L30.3 296.5L16 284L2.7 270.7L-9.7 256.5L-21.1 241.4L-31.5 225.6L-40.8 209.2L-48.9 192.1L-55.8 174.5L-61.5 156.5L-66 138.2L-69.2 119.6L-71.1 100.8L-71.8 81.9L-71.1 63L-69.2 44.3L-66 25.7L-61.5 7.3L-55.8 -10.7L-48.9 -28.3L-40.8 -45.3L-31.5 -61.8L-21.1 -77.6L-9.7 -92.6L2.7 -106.9L16 -120.2L30.3 -132.6L45.3 -144L61.1 -154.4L77.6 -163.6L94.6 -171.8L112.2 -178.7L130.2 -184.4L148.5 -188.9L167.1 -192.1L185.9 -194L204.8 -194.6L223.7 -194L242.5 -192.1L261.1 -188.9L279.4 -184.4L297.4 -178.7L315 -171.8L332 -163.6L348.5 -154.4L364.3 -144L379.3 -132.6L393.6 -120.2L406.9 -106.9L419.3 -92.6L430.7 -77.6L441.1 -61.8L450.4 -45.3L458.5 -28.3L465.4 -10.7L471.1 7.3L475.6 25.7L478.8 44.3L480.7 63L481.4 81.9" fill="none" stroke="currentColor" stroke-width="0.75" stroke-linecap="round"/>
<path d="M545.8 81.9L545.3 100.7L543.8 119.4L541.2 138.1L537.6 156.5L533 174.7L527.4 192.7L520.8 210.3L513.2 227.5L504.7 244.2L495.3 260.5L485.1 276.2L473.9 291.4L462 305.9L449.2 319.7L435.8 332.8L421.6 345.2L406.8 356.7L391.3 367.4L375.3 377.3L358.8 386.2L341.8 394.2L324.4 401.3L306.6 407.4L288.5 412.5L270.2 416.6L251.6 419.7L233 421.8L214.2 422.8L195.4 422.8L176.6 421.8L158 419.7L139.4 416.6L121.1 412.5L103 407.4L85.2 401.3L67.8 394.2L50.8 386.2L34.3 377.3L18.3 367.4L2.8 356.7L-12 345.2L-26.2 332.8L-39.6 319.7L-52.4 305.9L-64.3 291.4L-75.5 276.2L-85.7 260.5L-95.1 244.2L-103.6 227.5L-111.2 210.3L-117.8 192.7L-123.4 174.7L-128 156.5L-131.6 138.1L-134.2 119.4L-135.7 100.7L-136.2 81.9L-135.7 63.1L-134.2 44.4L-131.6 25.8L-128 7.3L-123.4 -10.9L-117.8 -28.8L-111.2 -46.4L-103.6 -63.6L-95.1 -80.4L-85.7 -96.7L-75.5 -112.4L-64.3 -127.5L-52.4 -142.1L-39.6 -155.9L-26.2 -169L-12 -181.3L2.8 -192.9L18.3 -203.6L34.3 -213.4L50.8 -222.4L67.8 -230.4L85.2 -237.5L103 -243.6L121.1 -248.7L139.4 -252.8L158 -255.9L176.6 -258L195.4 -259L214.2 -259L233 -258L251.6 -255.9L270.2 -252.8L288.5 -248.7L306.6 -243.6L324.4 -237.5L341.8 -230.4L358.8 -222.4L375.3 -213.4L391.3 -203.6L406.8 -192.9L421.6 -181.3L435.8 -169L449.2 -155.9L462 -142.1L473.9 -127.5L485.1 -112.4L495.3 -96.7L504.7 -80.4L513.2 -63.6L520.8 -46.4L527.4 -28.8L533 -10.9L537.6 7.3L541.2 25.8L543.8 44.4L545.3 63.1L545.8 81.9" fill="none" stroke="currentColor" stroke-width="0.75" stroke-linecap="round"/>
<path d="M608.4 81.9L608 100.7L606.7 119.4L604.5 138.1L601.4 156.6L597.5 175L592.8 193.2L587.2 211.1L580.7 228.7L573.5 246.1L565.5 263.1L556.7 279.6L547.1 295.8L536.7 311.5L525.7 326.7L514 341.3L501.6 355.5L488.5 369L474.9 381.9L460.6 394.1L445.8 405.7L430.5 416.5L414.7 426.7L398.4 436L381.7 444.7L364.7 452.5L347.2 459.5L329.5 465.8L311.5 471.2L293.3 475.7L274.9 479.4L256.3 482.2L237.6 484.2L218.9 485.3L200.1 485.5L181.3 484.8L162.6 483.3L144 480.9L125.5 477.6L107.2 473.5L89 468.6L71.2 462.8L53.6 456.1L36.4 448.7L19.5 440.5L3 431.4L-13 421.7L-28.6 411.2L-43.7 400L-58.2 388.1L-72.2 375.5L-85.5 362.3L-98.3 348.5L-110.3 334.1L-121.7 319.1L-132.4 303.7L-142.4 287.8L-151.6 271.4L-160 254.6L-167.6 237.5L-174.5 220L-180.5 202.2L-185.6 184.1L-190 165.8L-193.5 147.4L-196.1 128.8L-197.8 110.1L-198.7 91.3L-198.7 72.5L-197.8 53.8L-196.1 35.1L-193.5 16.5L-190 -2L-185.6 -20.3L-180.5 -38.3L-174.5 -56.1L-167.6 -73.6L-160 -90.8L-151.6 -107.6L-142.4 -123.9L-132.4 -139.9L-121.7 -155.3L-110.3 -170.2L-98.3 -184.6L-85.5 -198.4L-72.2 -211.6L-58.2 -224.2L-43.7 -236.1L-28.6 -247.3L-13 -257.8L3 -267.6L19.5 -276.6L36.4 -284.9L53.6 -292.3L71.2 -298.9L89 -304.7L107.2 -309.7L125.5 -313.8L144 -317.1L162.6 -319.5L181.3 -321L200.1 -321.7L218.9 -321.4L237.6 -320.3L256.3 -318.4L274.9 -315.5L293.3 -311.9L311.5 -307.3L329.5 -301.9L347.2 -295.7L364.7 -288.7L381.7 -280.8L398.4 -272.2L414.7 -262.8L430.5 -252.7L445.8 -241.8L460.6 -230.3L474.9 -218L488.5 -205.1L501.6 -191.6L514 -177.5L525.7 -162.8L536.7 -147.6L547.1 -132L556.7 -115.8L565.5 -99.2L573.5 -82.2L580.7 -64.9L587.2 -47.3L592.8 -29.3L597.5 -11.2L601.4 7.2L604.5 25.7L606.7 44.4L608 63.1L608.4 81.9" fill="none" stroke="currentColor" stroke-width="0.75" stroke-linecap="round"/>
<path d="M669 81.9L668.7 100.7L667.5 119.5L665.6 138.2L662.9 156.9L659.5 175.4L655.4 193.7L650.5 211.9L644.8 229.8L638.5 247.6L631.4 265L623.6 282.1L615.2 298.9L606.1 315.4L596.3 331.5L585.8 347.1L574.8 362.3L563.1 377.1L550.8 391.4L538 405.2L524.6 418.4L510.7 431.1L496.3 443.2L481.5 454.7L466.1 465.6L450.4 475.9L434.2 485.5L417.7 494.5L400.8 502.8L383.5 510.4L366 517.3L348.3 523.4L330.2 528.9L312 533.6L293.6 537.6L275.1 540.8L256.4 543.3L237.7 545L218.9 545.9L200.1 546.1L181.3 545.6L162.5 544.2L143.8 542.1L125.2 539.3L106.7 535.7L88.4 531.3L70.3 526.3L52.4 520.4L34.8 513.9L17.4 506.7L0.4 498.7L-16.4 490.1L-32.7 480.8L-48.7 470.8L-64.3 460.2L-79.4 449L-94 437.2L-108.2 424.8L-121.8 411.8L-134.9 398.3L-147.4 384.3L-159.4 369.8L-170.8 354.8L-181.5 339.3L-191.6 323.5L-201.1 307.2L-209.9 290.6L-218 273.6L-225.4 256.3L-232.1 238.7L-238.1 220.9L-243.4 202.8L-247.9 184.6L-251.7 166.1L-254.8 147.6L-257.1 128.9L-258.6 110.1L-259.3 91.3L-259.3 72.5L-258.6 53.7L-257.1 35L-254.8 16.3L-251.7 -2.3L-247.9 -20.7L-243.4 -39L-238.1 -57.1L-232.1 -74.9L-225.4 -92.5L-218 -109.8L-209.9 -126.7L-201.1 -143.4L-191.6 -159.6L-181.5 -175.5L-170.8 -191L-159.4 -205.9L-147.4 -220.5L-134.9 -234.5L-121.8 -248L-108.2 -261L-94 -273.4L-79.4 -285.2L-64.3 -296.4L-48.7 -307L-32.7 -316.9L-16.4 -326.2L0.4 -334.9L17.4 -342.8L34.8 -350.1L52.4 -356.6L70.3 -362.4L88.4 -367.5L106.7 -371.8L125.2 -375.4L143.8 -378.3L162.5 -380.4L181.3 -381.7L200.1 -382.3L218.9 -382.1L237.7 -381.1L256.4 -379.4L275.1 -377L293.6 -373.7L312 -369.8L330.2 -365L348.3 -359.6L366 -353.4L383.5 -346.5L400.8 -338.9L417.7 -330.6L434.2 -321.7L450.4 -312.1L466.1 -301.8L481.5 -290.9L496.3 -279.4L510.7 -267.2L524.6 -254.6L538 -241.3L550.8 -227.5L563.1 -213.3L574.8 -198.5L585.8 -183.3L596.3 -167.6L606.1 -151.6L615.2 -135.1L623.6 -118.3L631.4 -101.2L638.5 -83.7L644.8 -66L650.5 -48L655.4 -29.9L659.5 -11.5L662.9 7L665.6 25.6L667.5 44.3L668.7 63.1L669 81.9" fill="none" stroke="currentColor" stroke-width="0.75" stroke-linecap="round"/>
<path d="M727.7 81.9L727.4 100.8L726.4 119.7L724.7 138.5L722.3 157.2L719.2 175.8L715.5 194.3L711.1 212.7L706.1 230.9L700.4 248.9L694 266.7L687 284.2L679.4 301.5L671.2 318.5L662.3 335.2L652.9 351.5L642.8 367.5L632.3 383.1L621.1 398.4L609.4 413.2L597.2 427.6L584.4 441.5L571.2 455L557.5 468L543.3 480.5" fill="none" stroke="currentColor" stroke-width="0.75" stroke-linecap="round"/>
<path d="M-133.7 480.5L-147.9 468L-161.6 455L-174.8 441.5L-187.6 427.6L-199.8 413.2L-211.5 398.4L-222.7 383.1L-233.2 367.5L-243.3 351.5L-252.7 335.2L-261.6 318.5L-269.8 301.5L-277.4 284.2L-284.4 266.7L-290.8 248.9L-296.5 230.9L-301.5 212.7L-305.9 194.3L-309.6 175.8L-312.7 157.2L-315.1 138.5L-316.8 119.7L-317.8 100.8L-318.1 81.9L-317.8 63L-316.8 44.2L-315.1 25.4L-312.7 6.7L-309.6 -12L-305.9 -30.5L-301.5 -48.9L-296.5 -67.1L-290.8 -85.1L-284.4 -102.8L-277.4 -120.4L-269.8 -137.7L-261.6 -154.6L-252.7 -171.3L-243.3 -187.7L-233.2 -203.7L-222.7 -219.3L-211.5 -234.5L-199.8 -249.4L-187.6 -263.8L-174.8 -277.7L-161.6 -291.2L-147.9 -304.2L-133.7 -316.6L-119.1 -328.6L-104.1 -340L-88.7 -350.9L-72.8 -361.2L-56.7 -370.9L-40.1 -380.1L-23.3 -388.6L-6.2 -396.6L11.2 -403.9L28.9 -410.5L46.8 -416.6L64.9 -421.9L83.2 -426.7L101.6 -430.7L120.2 -434.1L138.9 -436.8L157.7 -438.9L176.5 -440.2L195.4 -440.9L214.2 -440.9L233.1 -440.2L251.9 -438.9L270.7 -436.8L289.4 -434.1L308 -430.7L326.4 -426.7L344.7 -421.9L362.8 -416.6L380.7 -410.5L398.4 -403.9L415.8 -396.6L432.9 -388.6L449.7 -380.1L466.3 -370.9L482.4 -361.2L498.3 -350.9L513.7 -340L528.7 -328.6L543.3 -316.6L557.5 -304.2L571.2 -291.2L584.4 -277.7L597.2 -263.8L609.4 -249.4L621.1 -234.5L632.3 -219.3L642.8 -203.7L652.9 -187.7L662.3 -171.3L671.2 -154.6L679.4 -137.7L687 -120.4L694 -102.8L700.4 -85.1L706.1 -67.1L711.1 -48.9L715.5 -30.5L719.2 -12L722.3 6.7L724.7 25.4L726.4 44.2L727.4 63L727.7 81.9" fill="none" stroke="currentColor" stroke-width="0.75" stroke-linecap="round"/>
<path d="M784.5 81.9L784.1 100.8L783.2 119.6L781.7 138.4L779.5 157.2L776.8 175.9L773.4 194.4L769.5 212.9L764.9 231.2L759.7 249.3L754 267.3L747.7 285.1L740.8 302.7L733.3 320L725.3 337.1L716.7 353.9L707.6 370.4L697.9 386.6L687.7 402.5L677.1 418L665.9 433.2L654.2 448L642 462.5L629.4 476.5L616.3 490.1L602.8 503.3L588.9 516L574.6 528.3L559.8 540.1L544.7 551.4" fill="none" stroke="currentColor" stroke-width="0.75" stroke-linecap="round"/>
<path d="M-142.7 545.8L-157.7 534.3L-172.2 522.2L-186.3 509.7L-200 496.8L-213.3 483.4L-226.2 469.5L-238.6 455.3L-250.5 440.7L-261.9 425.7L-272.9 410.3L-283.3 394.6L-293.2 378.5L-302.6 362.2L-311.5 345.5L-319.8 328.6L-327.5 311.3L-334.7 293.9L-341.3 276.2L-347.3 258.3L-352.8 240.3L-357.7 222L-361.9 203.7L-365.6 185.2L-368.6 166.5L-371.1 147.8L-372.9 129L-374.2 110.2L-374.8 91.4L-374.8 72.5L-374.2 53.6L-372.9 34.8L-371.1 16L-368.6 -2.7L-365.6 -21.3L-361.9 -39.8L-357.7 -58.2L-352.8 -76.4L-347.3 -94.5L-341.3 -112.4L-334.7 -130.1L-327.5 -147.5L-319.8 -164.7L-311.5 -181.7L-302.6 -198.3L-293.2 -214.7L-283.3 -230.7L-272.9 -246.5L-261.9 -261.8L-250.5 -276.8L-238.6 -291.5L-226.2 -305.7L-213.3 -319.5L-200 -332.9L-186.3 -345.9L-172.2 -358.4L-157.7 -370.4L-142.7 -382L-127.5 -393.1L-111.8 -403.6L-95.9 -413.7L-79.6 -423.2L-63 -432.2L-46.1 -440.6L-29 -448.5L-11.6 -455.8L6.1 -462.6L23.9 -468.8L41.9 -474.4L60.1 -479.4L78.4 -483.8L96.9 -487.6L115.5 -490.8L134.2 -493.4L153 -495.4L171.8 -496.8L190.6 -497.6L209.5 -497.7L228.4 -497.3L247.2 -496.2L266 -494.5L284.7 -492.2L303.4 -489.3L321.9 -485.8L340.3 -481.7L358.6 -476.9L376.7 -471.6L394.7 -465.8L412.4 -459.3L429.9 -452.2L447.2 -444.6L464.2 -436.5L480.9 -427.7L497.3 -418.5L513.5 -408.7L529.3 -398.4L544.7 -387.6L559.8 -376.3L574.6 -364.5L588.9 -352.2L602.8 -339.5L616.3 -326.3L629.4 -312.7L642 -298.6L654.2 -284.2L665.9 -269.4L677.1 -254.2L687.7 -238.6L697.9 -222.8L707.6 -206.5L716.7 -190L725.3 -173.2L733.3 -156.1L740.8 -138.8L747.7 -121.2L754 -103.5L759.7 -85.5L764.9 -67.3L769.5 -49L773.4 -30.6L776.8 -12L779.5 6.7L781.7 25.4L783.2 44.2L784.1 63.1L784.5 81.9" fill="none" stroke="currentColor" stroke-width="0.75" stroke-linecap="round"/>
<path d="M839.2 81.9L838.9 100.8L838.1 119.7L836.7 138.5L834.7 157.3L832.2 176L829.1 194.7L825.5 213.2L821.3 231.6L816.5 249.9L811.3 268L805.5 286L799.1 303.8L792.2 321.4L784.8 338.8L776.9 356L768.5 372.9L759.6 389.5L750.2 405.9L740.3 422L730 437.8L719.1 453.3L707.9 468.4L696.1 483.2L684 497.7L671.4 511.8L658.4 525.5L645 538.8L631.2 551.7L617 564.2L602.4 576.2" fill="none" stroke="currentColor" stroke-width="0.75" stroke-linecap="round"/>
<path d="M-185.4 582.1L-200.2 570.2L-214.5 558L-228.5 545.3L-242.1 532.2L-255.3 518.7L-268.1 504.8L-280.5 490.5L-292.4 475.9L-303.9 460.9L-315 445.6L-325.6 429.9L-335.7 414L-345.4 397.7L-354.5 381.2L-363.2 364.4L-371.4 347.4L-379 330.1L-386.1 312.6L-392.7 294.9L-398.8 277.1L-404.4 259L-409.4 240.8L-413.8 222.4L-417.7 203.9L-421.1 185.4L-423.9 166.7L-426.1 147.9L-427.8 129.1L-429 110.2L-429.5 91.4L-429.5 72.5L-429 53.6L-427.8 34.7L-426.1 15.9L-423.9 -2.8L-421.1 -21.5L-417.7 -40.1L-413.8 -58.6L-409.4 -76.9L-404.4 -95.2L-398.8 -113.2L-392.7 -131.1L-386.1 -148.8L-379 -166.3L-371.4 -183.6L-363.2 -200.6L-354.5 -217.4L-345.4 -233.9L-335.7 -250.1L-325.6 -266.1L-315 -281.7L-303.9 -297L-292.4 -312L-280.5 -326.7L-268.1 -340.9L-255.3 -354.8L-242.1 -368.3L-228.5 -381.4L-214.5 -394.1L-200.2 -406.4L-185.4 -418.2L-170.4 -429.6L-155 -440.6L-139.3 -451.1L-123.2 -461.1L-106.9 -470.6L-90.3 -479.6L-73.5 -488.2L-56.4 -496.2L-39.1 -503.7L-21.5 -510.7L-3.8 -517.2L14.2 -523.1L32.3 -528.6L50.5 -533.4L68.9 -537.7L87.4 -541.5L106 -544.7L124.7 -547.4L143.5 -549.5L162.3 -551L181.2 -552L200.1 -552.4L219 -552.3L237.8 -551.6L256.7 -550.3L275.5 -548.5L294.2 -546.1L312.9 -543.2L331.5 -539.7L349.9 -535.6L368.2 -531.1L386.4 -525.9L404.4 -520.2L422.3 -514L439.9 -507.3L457.4 -500L474.6 -492.2L491.5 -484L508.3 -475.2L524.7 -465.9L540.9 -456.1L556.8 -445.9L572.3 -435.2L587.5 -424L602.4 -412.4L617 -400.3L631.2 -387.8L645 -374.9L658.4 -361.6L671.4 -347.9L684 -333.8L696.1 -319.4L707.9 -304.6L719.1 -289.4L730 -274L740.3 -258.2L750.2 -242.1L759.6 -225.7L768.5 -209L776.9 -192.1L784.8 -175L792.2 -157.6L799.1 -140L805.5 -122.2L811.3 -104.2L816.5 -86.1L821.3 -67.8L825.5 -49.4L829.1 -30.8L832.2 -12.2L834.7 6.5L836.7 25.3L838.1 44.2L838.9 63L839.2 81.9" fill="none" stroke="currentColor" stroke-width="0.75" stroke-linecap="round"/>
<path d="M891.9 81.9L891.6 100.8L890.9 119.6L889.6 138.4L887.8 157.2L885.4 175.9L882.6 194.5L879.3 213.1L875.4 231.5L871.1 249.9L866.2 268.1L860.8 286.2L855 304.1L848.7 321.8L841.8 339.4L834.5 356.8L826.7 374L818.5 390.9L809.8 407.6L800.6 424.1L791 440.3L781 456.3L770.5 471.9L759.6 487.3" fill="none" stroke="currentColor" stroke-width="0.75" stroke-linecap="round"/>
<path d="M-255.4 592.1L-269.3 579.3L-282.7 566.1L-295.8 552.5L-308.5 538.6L-320.9 524.4L-332.8 509.8L-344.4 494.9L-355.5 479.7L-366.2 464.1L-376.4 448.3L-386.3 432.3L-395.7 415.9L-404.6 399.3L-413.1 382.5L-421.1 365.4L-428.6 348.1L-435.7 330.6L-442.3 313L-448.4 295.1L-454 277.1L-459.1 259L-463.7 240.7L-467.8 222.3L-471.4 203.8L-474.5 185.2L-477.1 166.5L-479.1 147.8L-480.7 129L-481.7 110.2L-482.2 91.3L-482.2 72.5L-481.7 53.6L-480.7 34.8L-479.1 16L-477.1 -2.7L-474.5 -21.4L-471.4 -40L-467.8 -58.5L-463.7 -76.9L-459.1 -95.2L-454 -113.3L-448.4 -131.3L-442.3 -149.1L-435.7 -166.8L-428.6 -184.3L-421.1 -201.6L-413.1 -218.6L-404.6 -235.5L-395.7 -252.1L-386.3 -268.4L-376.4 -284.5L-366.2 -300.3L-355.5 -315.8L-344.4 -331L-332.8 -346L-320.9 -360.5L-308.5 -374.8L-295.8 -388.7L-282.7 -402.3L-269.3 -415.5L-255.4 -428.3L-241.3 -440.7L-226.8 -452.8L-211.9 -464.4L-196.8 -475.6L-181.3 -486.4L-165.6 -496.8L-149.6 -506.7L-133.3 -516.2L-116.8 -525.3L-100 -533.9L-83 -542L-65.7 -549.7L-48.3 -556.9L-30.7 -563.6L-12.9 -569.8L5.1 -575.5L23.2 -580.7L41.4 -585.5L59.8 -589.7L78.3 -593.4L96.8 -596.6L115.5 -599.4L134.2 -601.5L153 -603.2L171.8 -604.4L190.7 -605L209.5 -605.2L228.4 -604.8L247.2 -603.9L266 -602.5L284.7 -600.5L303.4 -598.1L322.1 -595.1L340.6 -591.6L359 -587.7L377.3 -583.2L395.5 -578.2L413.5 -572.7L431.4 -566.7L449.1 -560.3L466.7 -553.3L484 -545.9L501.1 -538L518 -529.6L534.7 -520.8L551.1 -511.6L567.2 -501.8L583.1 -491.7L598.7 -481.1L614 -470.1L629 -458.6L643.6 -446.8L658 -434.5L672 -421.9L685.6 -408.9L698.9 -395.5L711.8 -381.8L724.4 -367.7L736.5 -353.3L748.2 -338.5L759.6 -323.5L770.5 -308.1L781 -292.4L791 -276.5L800.6 -260.3L809.8 -243.8L818.5 -227.1L826.7 -210.1L834.5 -192.9L841.8 -175.6L848.7 -158L855 -140.2L860.8 -122.3L866.2 -104.2L871.1 -86L875.4 -67.7L879.3 -49.2L882.6 -30.7L885.4 -12L887.8 6.7L889.6 25.4L890.9 44.2L891.6 63.1L891.9 81.9" fill="none" stroke="currentColor" stroke-width="0.75" stroke-linecap="round"/>
<path d="M942.6 81.9L942.3 100.8L941.6 119.6L940.4 138.4L938.7 157.2L936.6 175.9L933.9 194.5L930.8 213.1L927.2 231.6L923.2 250L918.6 268.3L913.7 286.5L908.2 304.5L902.3 322.4L895.9 340.1L889.1 357.7L881.8 375.1L874.1 392.3L866 409.3L857.4 426.1L848.4 442.6L839 458.9L829.1 475L818.9 490.8" fill="none" stroke="currentColor" stroke-width="0.75" stroke-linecap="round"/>
<path d="M-313.5 606.9L-326.8 593.5L-339.7 579.8L-352.2 565.7L-364.4 551.3L-376.2 536.6L-387.6 521.7L-398.7 506.4L-409.3 490.8L-419.5 475L-429.4 458.9L-438.8 442.6L-447.8 426.1L-456.4 409.3L-464.5 392.3L-472.2 375.1L-479.5 357.7L-486.3 340.1L-492.7 322.4L-498.6 304.5L-504.1 286.5L-509 268.3L-513.6 250L-517.6 231.6L-521.2 213.1L-524.3 194.5L-527 175.9L-529.1 157.2L-530.8 138.4L-532 119.6L-532.7 100.8L-533 81.9L-532.7 63.1L-532 44.2L-530.8 25.4L-529.1 6.7L-527 -12L-524.3 -30.7L-521.2 -49.3L-517.6 -67.8L-513.6 -86.2L-509 -104.5L-504.1 -122.6L-498.6 -140.7L-492.7 -158.6L-486.3 -176.3L-479.5 -193.9L-472.2 -211.3L-464.5 -228.5L-456.4 -245.4L-447.8 -262.2L-438.8 -278.8L-429.4 -295.1L-419.5 -311.2L-409.3 -327L-398.7 -342.5L-387.6 -357.8L-376.2 -372.8L-364.4 -387.5L-352.2 -401.9L-339.7 -415.9L-326.8 -429.7L-313.5 -443.1L-300 -456.2L-286.1 -468.9L-271.8 -481.2L-257.3 -493.2L-242.5 -504.8L-227.3 -516.1L-211.9 -526.9L-196.2 -537.3L-180.3 -547.4L-164.1 -557L-147.7 -566.2L-131 -575L-114.1 -583.4L-97 -591.3L-79.7 -598.8L-62.2 -605.8L-44.6 -612.4L-26.8 -618.6L-8.8 -624.3L9.3 -629.5L27.5 -634.2L45.9 -638.5L64.3 -642.4L82.9 -645.7L101.5 -648.6L120.2 -651L138.9 -652.9L157.7 -654.4L176.5 -655.3L195.4 -655.8L214.2 -655.8L233.1 -655.3L251.9 -654.4L270.7 -652.9L289.4 -651L308.1 -648.6L326.7 -645.7L345.3 -642.4L363.7 -638.5L382.1 -634.2L400.3 -629.5L418.4 -624.3L436.4 -618.6L454.2 -612.4L471.8 -605.8L489.3 -598.8L506.6 -591.3L523.7 -583.4L540.6 -575L557.3 -566.2L573.7 -557L589.9 -547.4L605.8 -537.3L621.5 -526.9L636.9 -516.1L652.1 -504.8L666.9 -493.2L681.4 -481.2L695.7 -468.9L709.6 -456.2L723.1 -443.1L736.4 -429.7L749.3 -415.9L761.8 -401.9L774 -387.5L785.8 -372.8L797.2 -357.8L808.3 -342.5L818.9 -327L829.1 -311.2L839 -295.1L848.4 -278.8L857.4 -262.2L866 -245.4L874.1 -228.5L881.8 -211.3L889.1 -193.9L895.9 -176.3L902.3 -158.6L908.2 -140.7L913.7 -122.6L918.6 -104.5L923.2 -86.2L927.2 -67.8L930.8 -49.3L933.9 -30.7L936.6 -12L938.7 6.7L940.4 25.4L941.6 44.2L942.3 63.1L942.6 81.9" fill="none" stroke="currentColor" stroke-width="0.75" stroke-linecap="round"/>
<path d="M991.2 81.9L991 100.8L990.3 119.6L989.2 138.4L987.6 157.2L985.5 176L983.1 194.7L980.1 213.3L976.8 231.9L972.9 250.3L968.7 268.7L964 287L958.8 305.1L953.3 323.1L947.3 341L940.9 358.7L934 376.3L926.7 393.7L919.1 410.9L911 428L902.5 444.8L893.6 461.4L884.3 477.8L874.6 494L864.5 510L854 525.6L843.2 541.1L832 556.3" fill="none" stroke="currentColor" stroke-width="0.75" stroke-linecap="round"/>
<path d="M-361.2 627.9L-374.1 614.2L-386.7 600.1L-399 585.8L-410.9 571.2L-422.4 556.3L-433.6 541.1L-444.4 525.6L-454.9 510L-465 494L-474.7 477.8L-484 461.4L-492.9 444.8L-501.4 428L-509.5 410.9L-517.1 393.7L-524.4 376.3L-531.3 358.7L-537.7 341L-543.7 323.1L-549.2 305.1L-554.4 287L-559.1 268.7L-563.3 250.3L-567.2 231.9L-570.5 213.3L-573.5 194.7L-575.9 176L-578 157.2L-579.6 138.4L-580.7 119.6L-581.4 100.8L-581.6 81.9L-581.4 63.1L-580.7 44.2L-579.6 25.4L-578 6.6L-575.9 -12.1L-573.5 -30.8L-570.5 -49.5L-567.2 -68L-563.3 -86.5L-559.1 -104.9L-554.4 -123.1L-549.2 -141.3L-543.7 -159.3L-537.7 -177.2L-531.3 -194.9L-524.4 -212.5L-517.1 -229.9L-509.5 -247.1L-501.4 -264.1L-492.9 -281L-484 -297.6L-474.7 -314L-465 -330.2L-454.9 -346.1L-444.4 -361.8L-433.6 -377.3L-422.4 -392.4L-410.9 -407.3L-399 -422L-386.7 -436.3L-374.1 -450.3L-361.2 -464L-347.9 -477.5L-334.3 -490.6L-320.5 -503.3L-306.3 -515.7L-291.8 -527.8L-277 -539.6L-262 -550.9L-246.7 -562L-231.1 -572.6L-215.3 -582.9L-199.2 -592.7L-182.9 -602.2L-166.4 -611.3L-149.7 -620L-132.8 -628.3L-115.6 -636.2L-98.3 -643.7L-80.8 -650.8L-63.2 -657.4L-45.4 -663.6L-27.4 -669.4L-9.3 -674.8L8.9 -679.7L27.2 -684.1L45.6 -688.2L64.1 -691.8L82.7 -694.9L101.4 -697.6L120.1 -699.9L138.9 -701.7L157.7 -703.1L176.5 -704L195.4 -704.4L214.2 -704.4L233.1 -704L251.9 -703.1L270.7 -701.7L289.5 -699.9L308.2 -697.6L326.9 -694.9L345.5 -691.8L364 -688.2L382.4 -684.1L400.7 -679.7L418.9 -674.8L437 -669.4L455 -663.6L472.8 -657.4L490.4 -650.8L507.9 -643.7L525.2 -636.2L542.4 -628.3L559.3 -620L576 -611.3L592.5 -602.2L608.8 -592.7L624.9 -582.9L640.7 -572.6L656.3 -562L671.6 -550.9L686.6 -539.6L701.4 -527.8L715.9 -515.7L730.1 -503.3L743.9 -490.6L757.5 -477.5L770.8 -464L783.7 -450.3L796.3 -436.3L808.6 -422L820.5 -407.3L832 -392.4L843.2 -377.3L854 -361.8L864.5 -346.1L874.6 -330.2L884.3 -314L893.6 -297.6L902.5 -281L911 -264.1L919.1 -247.1L926.7 -229.9L934 -212.5L940.9 -194.9L947.3 -177.2L953.3 -159.3L958.8 -141.3L964 -123.1L968.7 -104.9L972.9 -86.5L976.8 -68L980.1 -49.5L983.1 -30.8L985.5 -12.1L987.6 6.6L989.2 25.4L990.3 44.2L991 63.1L991.2 81.9" fill="none" stroke="currentColor" stroke-width="0.75" stroke-linecap="round"/>
<path d="M-443.9 604.4L-455.5 589.6L-466.8 574.5L-477.8 559.2L-488.4 543.7L-498.6 527.9L-508.5 511.9L-518.1 495.6L-527.2 479.2L-536 462.6L-544.4 445.7L-552.5 428.7L-560.1 411.5L-567.4 394.1L-574.2 376.6L-580.7 358.9L-586.7 341.1L-592.4 323.1L-597.7 305.1L-602.5 286.9L-606.9 268.6L-610.9 250.2L-614.5 231.7L-617.7 213.1L-620.5 194.5L-622.8 175.8L-624.7 157.1L-626.2 138.4L-627.2 119.6L-627.9 100.7L-628.1 81.9L-627.9 63.1L-627.2 44.3L-626.2 25.5L-624.7 6.7L-622.8 -12L-620.5 -30.7L-617.7 -49.3L-614.5 -67.9L-610.9 -86.3L-606.9 -104.7L-602.5 -123L-597.7 -141.2L-592.4 -159.3L-586.7 -177.2L-580.7 -195.1L-574.2 -212.8L-567.4 -230.3L-560.1 -247.7L-552.5 -264.9L-544.4 -281.9L-536 -298.7L-527.2 -315.4L-518.1 -331.8L-508.5 -348L-498.6 -364.1L-488.4 -379.8L-477.8 -395.4L-466.8 -410.7L-455.5 -425.7L-443.9 -440.5L-431.9 -455.1L-419.6 -469.3L-407 -483.3L-394 -497L-380.8 -510.3L-367.3 -523.4L-353.4 -536.2L-339.3 -548.7L-324.9 -560.8L-310.3 -572.6L-295.4 -584.1L-280.2 -595.2L-264.8 -606L-249.1 -616.4L-233.2 -626.5L-217.1 -636.2L-200.7 -645.6L-184.2 -654.6L-167.4 -663.2L-150.5 -671.4L-133.4 -679.2L-116.1 -686.7L-98.7 -693.7L-81.1 -700.4L-63.3 -706.6L-45.4 -712.5L-27.4 -718L-9.3 -723L9 -727.6L27.3 -731.9L45.8 -735.7L64.3 -739L82.9 -742L101.5 -744.6L120.2 -746.7L139 -748.4L157.8 -749.6L176.6 -750.5L195.4 -750.9L214.2 -750.9L233 -750.5L251.8 -749.6L270.6 -748.4L289.4 -746.7L308.1 -744.6L326.7 -742L345.3 -739L363.8 -735.7L382.3 -731.9L400.6 -727.6L418.9 -723L437 -718L455 -712.5L472.9 -706.6L490.7 -700.4L508.3 -693.7L525.7 -686.7L543 -679.2L560.1 -671.4L577 -663.2L593.8 -654.6L610.3 -645.6L626.7 -636.2L642.8 -626.5L658.7 -616.4L674.4 -606L689.8 -595.2L705 -584.1L719.9 -572.6L734.5 -560.8L748.9 -548.7L763 -536.2L776.9 -523.4L790.4 -510.3L803.6 -497L816.6 -483.3L829.2 -469.3L841.5 -455.1L853.5 -440.5L865.1 -425.7L876.4 -410.7L887.4 -395.4L898 -379.8L908.2 -364.1L918.1 -348L927.7 -331.8L936.8 -315.4L945.6 -298.7L954 -281.9L962.1 -264.9L969.7 -247.7L977 -230.3L983.8 -212.8L990.3 -195.1L996.3 -177.2L1002 -159.3L1007.3 -141.2L1012.1 -123L1016.5 -104.7L1020.5 -86.3L1024.1 -67.9L1027.3 -49.3L1030.1 -30.7L1032.4 -12L1034.3 6.7L1035.8 25.5L1036.8 44.3L1037.5 63.1L1037.7 81.9" fill="none" stroke="currentColor" stroke-width="0.75" stroke-linecap="round"/>
<path d="M1082.1 81.9L1081.9 100.8L1081.3 119.7L1080.2 138.5L1078.8 157.3L1077 176.1L1074.8 194.9L1072.1 213.6L1069.1 232.2L1065.7 250.8L1061.8 269.2L1057.6 287.6L1053 305.9L1048 324.1L1042.6 342.2L1036.8 360.2L1030.6 378L1024 395.7L1017.1 413.3L1009.8 430.7L1002.1 447.9L994 465L985.6 481.9L976.8 498.6" fill="none" stroke="currentColor" stroke-width="0.75" stroke-linecap="round"/>
<path d="M-460.4 653.8L-472.6 639.4L-484.4 624.7L-496 609.7L-507.1 594.5L-518 579.1L-528.5 563.4L-538.7 547.5L-548.6 531.4L-558.1 515.1L-567.2 498.6L-576 481.9L-584.4 465L-592.5 447.9L-600.2 430.7L-607.5 413.3L-614.4 395.7L-621 378L-627.2 360.2L-633 342.2L-638.4 324.1L-643.4 305.9L-648 287.6L-652.2 269.2L-656.1 250.8L-659.5 232.2L-662.5 213.6L-665.2 194.9L-667.4 176.1L-669.2 157.3L-670.6 138.5L-671.7 119.7L-672.3 100.8L-672.5 81.9L-672.3 63L-671.7 44.2L-670.6 25.3L-669.2 6.5L-667.4 -12.3L-665.2 -31L-662.5 -49.7L-659.5 -68.4L-656.1 -86.9L-652.2 -105.4L-648 -123.8L-643.4 -142.1L-638.4 -160.3L-633 -178.4L-627.2 -196.3L-621 -214.2L-614.4 -231.9L-607.5 -249.4L-600.2 -266.8L-592.5 -284.1L-584.4 -301.1L-576 -318L-567.2 -334.7L-558.1 -351.3L-548.6 -367.6L-538.7 -383.7L-528.5 -399.6L-518 -415.2L-507.1 -430.7L-496 -445.9L-484.4 -460.8L-472.6 -475.5L-460.4 -490L-448 -504.2L-435.2 -518.1L-422.2 -531.7L-408.8 -545L-395.2 -558.1L-381.3 -570.9L-367.1 -583.3L-352.7 -595.5L-337.9 -607.3L-323 -618.8L-307.8 -630L-292.4 -640.9L-276.7 -651.4L-260.8 -661.6L-244.7 -671.5L-228.4 -681L-211.9 -690.1L-195.2 -698.9L-178.3 -707.3L-161.2 -715.4L-144 -723.1L-126.6 -730.4L-109 -737.3L-91.3 -743.9L-73.5 -750.1L-55.5 -755.9L-37.4 -761.3L-19.2 -766.3L-0.9 -770.9L17.5 -775.1L36 -779L54.5 -782.4L73.2 -785.4L91.9 -788.1L110.6 -790.3L129.4 -792.1L148.2 -793.5L167.1 -794.5L185.9 -795.2L204.8 -795.4L223.7 -795.2L242.5 -794.5L261.4 -793.5L280.2 -792.1L299 -790.3L317.7 -788.1L336.4 -785.4L355.1 -782.4L373.6 -779L392.1 -775.1L410.5 -770.9L428.8 -766.3L447 -761.3L465.1 -755.9L483.1 -750.1L500.9 -743.9L518.6 -737.3L536.2 -730.4L553.6 -723.1L570.8 -715.4L587.9 -707.3L604.8 -698.9L621.5 -690.1L638 -681L654.3 -671.5L670.4 -661.6L686.3 -651.4L702 -640.9L717.4 -630L732.6 -618.8L747.5 -607.3L762.3 -595.5L776.7 -583.3L790.9 -570.9L804.8 -558.1L818.4 -545L831.8 -531.7L844.8 -518.1L857.6 -504.2L870 -490L882.2 -475.5L894 -460.8L905.6 -445.9L916.7 -430.7L927.6 -415.2L938.1 -399.6L948.3 -383.7L958.2 -367.6L967.7 -351.3L976.8 -334.7L985.6 -318L994 -301.1L1002.1 -284.1L1009.8 -266.8L1017.1 -249.4L1024 -231.9L1030.6 -214.2L1036.8 -196.3L1042.6 -178.4L1048 -160.3L1053 -142.1L1057.6 -123.8L1061.8 -105.4L1065.7 -86.9L1069.1 -68.4L1072.1 -49.7L1074.8 -31L1077 -12.3L1078.8 6.5L1080.2 25.3L1081.3 44.2L1081.9 63L1082.1 81.9" fill="none" stroke="currentColor" stroke-width="0.75" stroke-linecap="round"/>
<path d="M1124.3 81.9L1124.1 100.8L1123.5 119.7L1122.5 138.5L1121.2 157.4L1119.4 176.2L1117.3 194.9L1114.8 213.6L1111.9 232.3L1108.6 250.9L1105 269.4L1100.9 287.8L1096.5 306.2L1091.7 324.5L1086.6 342.6L1081 360.7L1075.1 378.6L1068.8 396.4L1062.2 414.1L1055.2 431.6L1047.8 449L1040.1 466.2L1032.1 483.3L1023.6 500.2L1014.9 516.9L1005.8 533.5L996.3 549.8L986.6 566" fill="none" stroke="currentColor" stroke-width="0.75" stroke-linecap="round"/>
<path d="M-499.6 673L-511.6 658.4L-523.2 643.5L-534.6 628.5L-545.7 613.2L-556.4 597.7L-566.9 581.9L-577 566L-586.7 549.8L-596.2 533.5L-605.3 516.9L-614 500.2L-622.5 483.3L-630.5 466.2L-638.2 449L-645.6 431.6L-652.6 414.1L-659.2 396.4L-665.5 378.6L-671.4 360.7L-677 342.6L-682.1 324.5L-686.9 306.2L-691.3 287.8L-695.4 269.4L-699 250.9L-702.3 232.3L-705.2 213.6L-707.7 194.9L-709.8 176.2L-711.6 157.4L-712.9 138.5L-713.9 119.7L-714.5 100.8L-714.7 81.9L-714.5 63L-713.9 44.2L-712.9 25.3L-711.6 6.5L-709.8 -12.3L-707.7 -31.1L-705.2 -49.8L-702.3 -68.4L-699 -87L-695.4 -105.6L-691.3 -124L-686.9 -142.4L-682.1 -160.6L-677 -178.8L-671.4 -196.8L-665.5 -214.8L-659.2 -232.6L-652.6 -250.2L-645.6 -267.8L-638.2 -285.2L-630.5 -302.4L-622.5 -319.5L-614 -336.4L-605.3 -353.1L-596.2 -369.6L-586.7 -386L-577 -402.1L-566.9 -418.1L-556.4 -433.8L-545.7 -449.3L-534.6 -464.6L-523.2 -479.7L-511.6 -494.5L-499.6 -509.1L-487.3 -523.5L-474.7 -537.5L-461.8 -551.4L-448.7 -564.9L-435.3 -578.2L-421.6 -591.2L-407.6 -603.9L-393.4 -616.3L-379 -628.5L-364.3 -640.3L-349.3 -651.8L-334.1 -663.1L-318.7 -674L-303.1 -684.6L-287.2 -694.8L-271.2 -704.8L-254.9 -714.4L-238.5 -723.7L-221.9 -732.6L-205.1 -741.2L-188.1 -749.4L-170.9 -757.3L-153.6 -764.8L-136.1 -772L-118.5 -778.8L-100.8 -785.3L-82.9 -791.4L-64.9 -797.1L-46.8 -802.5L-28.6 -807.4L-10.3 -812.1L8.1 -816.3L26.6 -820.1L45.1 -823.6L63.8 -826.7L82.4 -829.4L101.2 -831.7L120 -833.6L138.8 -835.2L157.6 -836.4L176.5 -837.1L195.4 -837.5L214.2 -837.5L233.1 -837.1L252 -836.4L270.8 -835.2L289.6 -833.6L308.4 -831.7L327.2 -829.4L345.8 -826.7L364.5 -823.6L383 -820.1L401.5 -816.3L419.9 -812.1L438.2 -807.4L456.4 -802.5L474.5 -797.1L492.5 -791.4L510.4 -785.3L528.1 -778.8L545.7 -772L563.2 -764.8L580.5 -757.3L597.7 -749.4L614.7 -741.2L631.5 -732.6L648.1 -723.7L664.5 -714.4L680.8 -704.8L696.8 -694.8L712.7 -684.6L728.3 -674L743.7 -663.1L758.9 -651.8L773.9 -640.3L788.6 -628.5L803 -616.3L817.2 -603.9L831.2 -591.2L844.9 -578.2L858.3 -564.9L871.4 -551.4L884.3 -537.5L896.9 -523.5L909.2 -509.1L921.2 -494.5L932.8 -479.7L944.2 -464.6L955.3 -449.3L966 -433.8L976.5 -418.1L986.6 -402.1L996.3 -386L1005.8 -369.6L1014.9 -353.1L1023.6 -336.4L1032.1 -319.5L1040.1 -302.4L1047.8 -285.2L1055.2 -267.8L1062.2 -250.2L1068.8 -232.6L1075.1 -214.8L1081 -196.8L1086.6 -178.8L1091.7 -160.6L1096.5 -142.4L1100.9 -124L1105 -105.6L1108.6 -87L1111.9 -68.4L1114.8 -49.8L1117.3 -31.1L1119.4 -12.3L1121.2 6.5L1122.5 25.3L1123.5 44.2L1124.1 63L1124.3 81.9" fill="none" stroke="currentColor" stroke-width="0.75" stroke-linecap="round"/>
<path d="M-582.4 630.6L-593 615L-603.3 599.2L-613.3 583.3L-623 567.1L-632.4 550.8L-641.4 534.2L-650.1 517.5L-658.5 500.7L-666.6 483.6L-674.3 466.4L-681.7 449.1L-688.7 431.6L-695.4 414L-701.7 396.3L-707.7 378.4L-713.4 360.4L-718.7 342.4L-723.6 324.2L-728.2 305.9L-732.4 287.5L-736.3 269.1L-739.8 250.6L-742.9 232L-745.7 213.4L-748.1 194.7L-750.1 176L-751.7 157.2L-753 138.4L-754 119.6L-754.5 100.8L-754.7 81.9L-754.5 63.1L-754 44.3L-753 25.4L-751.7 6.6L-750.1 -12.1L-748.1 -30.9L-745.7 -49.5L-742.9 -68.2L-739.8 -86.8L-736.3 -105.3L-732.4 -123.7L-728.2 -142.1L-723.6 -160.3L-718.7 -178.5L-713.4 -196.6L-707.7 -214.6L-701.7 -232.4L-695.4 -250.2L-688.7 -267.8L-681.7 -285.3L-674.3 -302.6L-666.6 -319.8L-658.5 -336.8L-650.1 -353.7L-641.4 -370.4L-632.4 -386.9L-623 -403.3L-613.3 -419.4L-603.3 -435.4L-593 -451.2L-582.4 -466.7L-571.5 -482.1L-560.2 -497.2L-548.7 -512.1L-536.9 -526.8L-524.8 -541.2L-512.4 -555.4L-499.8 -569.4L-486.9 -583.1L-473.7 -596.5L-460.2 -609.7L-446.5 -622.7L-432.6 -635.3L-418.3 -647.7L-403.9 -659.8L-389.2 -671.6L-374.3 -683.1L-359.2 -694.3L-343.8 -705.3L-328.3 -715.9L-312.5 -726.2L-296.5 -736.2L-280.4 -745.9L-264 -755.2L-247.5 -764.3L-230.8 -773L-213.9 -781.4L-196.9 -789.4L-179.7 -797.2L-162.4 -804.5L-144.9 -811.6L-127.3 -818.3L-109.6 -824.6L-91.7 -830.6L-73.7 -836.3L-55.6 -841.6L-37.5 -846.5L-19.2 -851.1L-0.8 -855.3L17.6 -859.1L36.1 -862.6L54.7 -865.8L73.3 -868.5L92 -870.9L110.8 -873L129.5 -874.6L148.3 -875.9L167.1 -876.8L186 -877.4L204.8 -877.6L223.6 -877.4L242.5 -876.8L261.3 -875.9L280.1 -874.6L298.8 -873L317.6 -870.9L336.3 -868.5L354.9 -865.8L373.5 -862.6L392 -859.1L410.4 -855.3L428.8 -851.1L447.1 -846.5L465.2 -841.6L483.3 -836.3L501.3 -830.6L519.2 -824.6L536.9 -818.3L554.5 -811.6L572 -804.5L589.3 -797.2L606.5 -789.4L623.5 -781.4L640.4 -773L657.1 -764.3L673.6 -755.2L690 -745.9L706.1 -736.2L722.1 -726.2L737.9 -715.9L753.4 -705.3L768.8 -694.3L783.9 -683.1L798.8 -671.6L813.5 -659.8L827.9 -647.7L842.2 -635.3L856.1 -622.7L869.8 -609.7L883.3 -596.5L896.5 -583.1L909.4 -569.4L922 -555.4L934.4 -541.2L946.5 -526.8L958.3 -512.1L969.8 -497.2L981.1 -482.1L992 -466.7L1002.6 -451.2L1012.9 -435.4L1022.9 -419.4L1032.6 -403.3L1042 -386.9L1051 -370.4L1059.7 -353.7L1068.1 -336.8L1076.2 -319.8L1083.9 -302.6L1091.3 -285.3L1098.3 -267.8L1105 -250.2L1111.3 -232.4L1117.3 -214.6L1123 -196.6L1128.3 -178.5L1133.2 -160.3L1137.8 -142.1L1142 -123.7L1145.9 -105.3L1149.4 -86.8L1152.5 -68.2L1155.3 -49.5L1157.7 -30.9L1159.7 -12.1L1161.3 6.6L1162.6 25.4L1163.6 44.3L1164.1 63.1L1164.3 81.9" fill="none" stroke="currentColor" stroke-width="0.75" stroke-linecap="round"/>
<path d="M-714.7 467.9L-721.9 450.4L-728.7 432.8L-735.2 415.1L-741.3 397.3L-747.1 379.3L-752.6 361.2L-757.7 343.1L-762.4 324.8L-766.9 306.5L-770.9 288L-774.7 269.5L-778 251L-781.1 232.3L-783.7 213.6L-786 194.9L-788 176.1L-789.6 157.3L-790.9 138.5L-791.8 119.7L-792.3 100.8L-792.5 81.9L-792.3 63L-791.8 44.2L-790.9 25.3L-789.6 6.5L-788 -12.3L-786 -31.1L-783.7 -49.8L-781.1 -68.5L-778 -87.1L-774.7 -105.7L-770.9 -124.2L-766.9 -142.6L-762.4 -161L-757.7 -179.2L-752.6 -197.4L-747.1 -215.5L-741.3 -233.4L-735.2 -251.3L-728.7 -269L-721.9 -286.6L-714.7 -304.1L-707.3 -321.4L-699.5 -338.6L-691.4 -355.6L-682.9 -372.5L-674.2 -389.2L-665.1 -405.8L-655.7 -422.2L-646 -438.3L-636 -454.4L-625.7 -470.2L-615.1 -485.8L-604.2 -501.2L-593 -516.4L-581.6 -531.4L-569.8 -546.2L-557.8 -560.7L-545.5 -575L-532.9 -589.1L-520.1 -603L-507 -616.6L-493.7 -629.9L-480.1 -643L-466.2 -655.8L-452.2 -668.4L-437.8 -680.7L-423.3 -692.7L-408.5 -704.5L-393.5 -715.9L-378.3 -727.1L-362.9 -738L-347.3 -748.6L-331.5 -758.9L-315.5 -768.9L-299.3 -778.6L-282.9 -788L-266.3 -797L-249.6 -805.8L-232.8 -814.2L-215.7 -822.4L-198.5 -830.1L-181.2 -837.6L-163.7 -844.8L-146.1 -851.6L-128.4 -858L-110.5 -864.2L-92.6 -870L-74.5 -875.4L-56.3 -880.5L-38.1 -885.3L-19.7 -889.7L-1.3 -893.8L17.2 -897.5L35.8 -900.9L54.4 -903.9L73.1 -906.6L91.8 -908.9L110.6 -910.9L129.4 -912.5L148.2 -913.7L167.1 -914.6L185.9 -915.2L204.8 -915.3L223.7 -915.2L242.5 -914.6L261.4 -913.7L280.2 -912.5L299 -910.9L317.8 -908.9L336.5 -906.6L355.2 -903.9L373.8 -900.9L392.4 -897.5L410.9 -893.8L429.3 -889.7L447.7 -885.3L465.9 -880.5L484.1 -875.4L502.2 -870L520.1 -864.2L538 -858L555.7 -851.6L573.3 -844.8L590.8 -837.6L608.1 -830.1L625.3 -822.4L642.4 -814.2L659.2 -805.8L675.9 -797L692.5 -788L708.9 -778.6L725.1 -768.9L741.1 -758.9L756.9 -748.6L772.5 -738L787.9 -727.1L803.1 -715.9L818.1 -704.5L832.9 -692.7L847.4 -680.7L861.8 -668.4L875.8 -655.8L889.7 -643L903.3 -629.9L916.6 -616.6L929.7 -603L942.5 -589.1L955.1 -575L967.4 -560.7L979.4 -546.2L991.2 -531.4L1002.6 -516.4L1013.8 -501.2L1024.7 -485.8L1035.3 -470.2L1045.6 -454.4L1055.6 -438.3L1065.3 -422.2L1074.7 -405.8L1083.8 -389.2L1092.5 -372.5L1101 -355.6L1109.1 -338.6L1116.9 -321.4L1124.3 -304.1L1131.5 -286.6L1138.3 -269L1144.8 -251.3L1150.9 -233.4L1156.7 -215.5L1162.2 -197.4L1167.3 -179.2L1172 -161L1176.5 -142.6L1180.5 -124.2L1184.3 -105.7L1187.6 -87.1L1190.7 -68.5L1193.3 -49.8L1195.6 -31.1L1197.6 -12.3L1199.2 6.5L1200.5 25.3L1201.4 44.2L1201.9 63L1202.1 81.9" fill="none" stroke="currentColor" stroke-width="0.75" stroke-linecap="round"/>
<path d="M-730.3 520.3L-738.1 503.1L-745.7 485.8L-752.9 468.4L-759.8 450.8L-766.4 433.2L-772.6 415.4L-778.6 397.5L-784.2 379.5L-789.4 361.3L-794.4 343.1L-799 324.8L-803.2 306.5L-807.2 288L-810.8 269.5L-814 250.9L-816.9 232.3L-819.5 213.6L-821.7 194.9L-823.6 176.1L-825.2 157.3L-826.4 138.5L-827.3 119.6L-827.8 100.8L-827.9 81.9L-827.8 63.1L-827.3 44.2L-826.4 25.4L-825.2 6.5L-823.6 -12.3L-821.7 -31L-819.5 -49.8L-816.9 -68.4L-814 -87.1L-810.8 -105.7L-807.2 -124.2L-803.2 -142.6L-799 -161L-794.4 -179.3L-789.4 -197.5L-784.2 -215.6L-778.6 -233.6L-772.6 -251.5L-766.4 -269.3L-759.8 -287L-752.9 -304.6L-745.7 -322L-738.1 -339.3L-730.3 -356.4L-722.1 -373.4L-713.7 -390.3L-704.9 -407L-695.8 -423.5L-686.4 -439.9L-676.7 -456.1L-666.8 -472.1L-656.5 -487.9L-646 -503.6L-635.1 -519L-624 -534.2L-612.6 -549.3L-600.9 -564.1L-589 -578.7L-576.8 -593.1L-564.4 -607.2L-551.6 -621.2L-538.7 -634.9L-525.5 -648.3L-512 -661.6L-498.3 -674.5L-484.4 -687.2L-470.2 -699.7L-455.8 -711.9L-441.2 -723.8L-426.4 -735.5L-411.4 -746.9L-396.1 -758L-380.7 -768.8L-365 -779.4L-349.2 -789.7L-333.2 -799.6L-317 -809.3L-300.6 -818.7L-284.1 -827.8L-267.4 -836.5L-250.6 -845L-233.6 -853.2L-216.4 -861L-199.1 -868.6L-181.7 -875.8L-164.1 -882.7L-146.4 -889.3L-128.7 -895.5L-110.7 -901.4L-92.7 -907L-74.6 -912.3L-56.4 -917.2L-38.1 -921.8L-19.7 -926.1L-1.3 -930L17.2 -933.6L35.8 -936.9L54.4 -939.8L73.1 -942.4L91.8 -944.6L110.6 -946.5L129.4 -948.1L148.2 -949.3L167.1 -950.1L185.9 -950.7L204.8 -950.8L223.7 -950.7L242.5 -950.1L261.4 -949.3L280.2 -948.1L299 -946.5L317.8 -944.6L336.5 -942.4L355.2 -939.8L373.8 -936.9L392.4 -933.6L410.9 -930L429.3 -926.1L447.7 -921.8L466 -917.2L484.2 -912.3L502.3 -907L520.3 -901.4L538.3 -895.5L556 -889.3L573.7 -882.7L591.3 -875.8L608.7 -868.6L626 -861L643.2 -853.2L660.2 -845L677 -836.5L693.7 -827.8L710.2 -818.7L726.6 -809.3L742.8 -799.6L758.8 -789.7L774.6 -779.4L790.3 -768.8L805.7 -758L821 -746.9L836 -735.5L850.8 -723.8L865.4 -711.9L879.8 -699.7L894 -687.2L907.9 -674.5L921.6 -661.6L935.1 -648.3L948.3 -634.9L961.2 -621.2L974 -607.2L986.4 -593.1L998.6 -578.7L1010.5 -564.1L1022.2 -549.3L1033.6 -534.2L1044.7 -519L1055.6 -503.6L1066.1 -487.9L1076.4 -472.1L1086.3 -456.1L1096 -439.9L1105.4 -423.5L1114.5 -407L1123.3 -390.3L1131.7 -373.4L1139.9 -356.4L1147.7 -339.3L1155.3 -322L1162.5 -304.6L1169.4 -287L1176 -269.3L1182.2 -251.5L1188.2 -233.6L1193.8 -215.6L1199 -197.5L1204 -179.3L1208.6 -161L1212.8 -142.6L1216.8 -124.2L1220.4 -105.7L1223.6 -87.1L1226.5 -68.4L1229.1 -49.8L1231.3 -31L1233.2 -12.3L1234.8 6.5L1236 25.4L1236.9 44.2L1237.4 63.1L1237.5 81.9" fill="none" stroke="currentColor" stroke-width="0.75" stroke-linecap="round"/>
<path d="M-791.7 460.2L-798.2 442.5L-804.5 424.7L-810.4 406.8L-816 388.8L-821.2 370.7L-826.2 352.5L-830.8 334.2L-835.1 315.8L-839.1 297.4L-842.7 278.9L-846 260.3L-849 241.7L-851.7 223L-854 204.3L-856 185.5L-857.7 166.7L-859 147.9L-860 129.1L-860.7 110.2L-861 91.4L-861 72.5L-860.7 53.6L-860 34.8L-859 15.9L-857.7 -2.9L-856 -21.7L-854 -40.4L-851.7 -59.2L-849 -77.8L-846 -96.5L-842.7 -115L-839.1 -133.5L-835.1 -152L-830.8 -170.3L-826.2 -188.6L-821.2 -206.8L-816 -224.9L-810.4 -243L-804.5 -260.9L-798.2 -278.7L-791.7 -296.4L-784.8 -314L-777.7 -331.4L-770.2 -348.7L-762.4 -365.9L-754.4 -383L-746 -399.9L-737.3 -416.6L-728.3 -433.2L-719.1 -449.7L-709.5 -465.9L-699.7 -482L-689.6 -497.9L-679.1 -513.7L-668.5 -529.2L-657.5 -544.6L-646.3 -559.8L-634.8 -574.7L-623 -589.5L-611 -604L-598.8 -618.3L-586.3 -632.5L-573.5 -646.3L-560.5 -660L-547.2 -673.4L-533.7 -686.6L-520 -699.6L-506.1 -712.3L-491.9 -724.7L-477.5 -736.9L-462.9 -748.9L-448.1 -760.6L-433.1 -772L-417.9 -783.2L-402.5 -794L-386.9 -804.7L-371.1 -815L-355.1 -825L-339 -834.8L-322.7 -844.3L-306.2 -853.5L-289.6 -862.4L-272.8 -871L-255.8 -879.3L-238.8 -887.3L-221.5 -895L-204.2 -902.4L-186.7 -909.5L-169.1 -916.2L-151.4 -922.7L-133.5 -928.8L-115.6 -934.7L-97.5 -940.2L-79.4 -945.4L-61.2 -950.2L-42.9 -954.8L-24.5 -959L-6 -962.9L12.5 -966.5L31.1 -969.7L49.7 -972.6L68.4 -975.2L87.1 -977.4L105.9 -979.4L124.7 -980.9L143.5 -982.2L162.4 -983.1L181.2 -983.7L200.1 -983.9L218.9 -983.9L237.8 -983.4L256.7 -982.7L275.5 -981.6L294.3 -980.2L313.1 -978.4L331.8 -976.4L350.5 -973.9L369.2 -971.2L387.8 -968.1L406.4 -964.7L424.9 -961L443.3 -956.9L461.6 -952.6L479.9 -947.8L498.1 -942.8L516.2 -937.5L534.2 -931.8L552.1 -925.8L569.8 -919.5L587.5 -912.9L605.1 -906L622.5 -898.7L639.8 -891.2L656.9 -883.3L673.9 -875.2L690.8 -866.7L707.5 -858L724.1 -848.9L740.5 -839.6L756.7 -830L772.7 -820L788.6 -809.9L804.3 -799.4L819.8 -788.6L835.1 -777.6L850.2 -766.3L865.1 -754.8L879.8 -743L894.3 -730.9L908.6 -718.5L922.7 -706L936.5 -693.1L950.1 -680.1L963.5 -666.8L976.6 -653.2L989.5 -639.4L1002.1 -625.4L1014.5 -611.2L1026.7 -596.8L1038.6 -582.1L1050.2 -567.3L1061.5 -552.2L1072.6 -536.9L1083.4 -521.5L1094 -505.8L1104.2 -490L1114.2 -474L1123.9 -457.8L1133.3 -441.5L1142.4 -424.9L1151.3 -408.3L1159.8 -391.4L1168 -374.5L1176 -357.3L1183.6 -340.1L1190.9 -322.7L1197.9 -305.2L1204.6 -287.6L1211 -269.8L1217 -251.9L1222.8 -234L1228.2 -215.9L1233.3 -197.7L1238.1 -179.5L1242.6 -161.2L1246.7 -142.8L1250.5 -124.3L1254 -105.7L1257.2 -87.1L1260 -68.5L1262.5 -49.8L1264.7 -31.1L1266.5 -12.3L1268 6.5L1269.2 25.4L1270 44.2L1270.5 63.1L1270.7 81.9" fill="none" stroke="currentColor" stroke-width="0.75" stroke-linecap="round"/>
<path d="M1301.4 81.9L1301.3 100.7L1300.8 119.6L1300 138.4L1298.8 157.2L1297.4 175.9L1295.6 194.7L1293.5 213.4L1291.1 232.1L1288.4 250.7L1285.3 269.3L1281.9 287.8L1278.2 306.2L1274.2 324.6L1269.9 343L1265.3 361.2L1260.3 379.4L1255.1 397.4L1249.5 415.4L1243.6 433.3L1237.4 451.1L1230.9 468.8L1224.1 486.3L1217 503.8" fill="none" stroke="currentColor" stroke-width="0.75" stroke-linecap="round"/>
<path d="M-758.7 605.6L-767.6 589L-776.1 572.2L-784.4 555.3L-792.4 538.3L-800.1 521.1L-807.4 503.8L-814.5 486.3L-821.3 468.8L-827.8 451.1L-834 433.3L-839.9 415.4L-845.5 397.4L-850.7 379.4L-855.7 361.2L-860.3 343L-864.6 324.6L-868.6 306.2L-872.3 287.8L-875.7 269.3L-878.8 250.7L-881.5 232.1L-883.9 213.4L-886 194.7L-887.8 175.9L-889.2 157.2L-890.4 138.4L-891.2 119.6L-891.7 100.7L-891.8 81.9L-891.7 63.1L-891.2 44.3L-890.4 25.5L-889.2 6.7L-887.8 -12.1L-886 -30.8L-883.9 -49.5L-881.5 -68.2L-878.8 -86.8L-875.7 -105.4L-872.3 -123.9L-868.6 -142.4L-864.6 -160.8L-860.3 -179.1L-855.7 -197.4L-850.7 -215.5L-845.5 -233.6L-839.9 -251.6L-834 -269.5L-827.8 -287.2L-821.3 -304.9L-814.5 -322.5L-807.4 -339.9L-800.1 -357.2L-792.4 -374.4L-784.4 -391.5L-776.1 -408.4L-767.6 -425.1L-758.7 -441.8L-749.6 -458.2L-740.2 -474.5L-730.5 -490.7L-720.5 -506.6L-710.3 -522.4L-699.8 -538L-689 -553.5L-677.9 -568.7L-666.6 -583.8L-655.1 -598.7L-643.3 -613.3L-631.2 -627.8L-618.9 -642L-606.4 -656L-593.6 -669.9L-580.5 -683.5L-567.3 -696.8L-553.8 -710L-540.1 -722.9L-526.2 -735.5L-512 -748L-497.7 -760.2L-483.1 -772.1L-468.4 -783.8L-453.4 -795.2L-438.3 -806.4L-422.9 -817.3L-407.4 -827.9L-391.7 -838.3L-375.8 -848.4L-359.7 -858.2L-343.5 -867.8L-327.1 -877.1L-310.6 -886L-293.9 -894.7L-277.1 -903.2L-260.1 -911.3L-243 -919.1L-225.7 -926.7L-208.3 -933.9L-190.8 -940.8L-173.2 -947.5L-155.5 -953.8L-137.7 -959.9L-119.7 -965.6L-101.7 -971L-83.6 -976.1L-65.4 -980.9L-47.1 -985.4L-28.7 -989.5L-10.3 -993.4L8.2 -996.9L26.7 -1000.1L45.3 -1003L64 -1005.6L82.7 -1007.9L101.4 -1009.8L120.2 -1011.4L138.9 -1012.7L157.7 -1013.7L176.6 -1014.3L195.4 -1014.7L214.2 -1014.7L233 -1014.3L251.9 -1013.7L270.7 -1012.7L289.4 -1011.4L308.2 -1009.8L326.9 -1007.9L345.6 -1005.6L364.3 -1003L382.9 -1000.1L401.4 -996.9L419.9 -993.4L438.3 -989.5L456.7 -985.4L475 -980.9L493.2 -976.1L511.3 -971L529.3 -965.6L547.3 -959.9L565.1 -953.8L582.8 -947.5L600.4 -940.8L617.9 -933.9L635.3 -926.7L652.6 -919.1L669.7 -911.3L686.7 -903.2L703.5 -894.7L720.2 -886L736.7 -877.1L753.1 -867.8L769.3 -858.2L785.4 -848.4L801.3 -838.3L817 -827.9L832.5 -817.3L847.9 -806.4L863 -795.2L878 -783.8L892.7 -772.1L907.3 -760.2L921.6 -748L935.8 -735.5L949.7 -722.9L963.4 -710L976.9 -696.8L990.1 -683.5L1003.2 -669.9L1016 -656L1028.5 -642L1040.8 -627.8L1052.9 -613.3L1064.7 -598.7L1076.2 -583.8L1087.5 -568.7L1098.6 -553.5L1109.4 -538L1119.9 -522.4L1130.1 -506.6L1140.1 -490.7L1149.8 -474.5L1159.2 -458.2L1168.3 -441.8L1177.2 -425.1L1185.7 -408.4L1194 -391.5L1202 -374.4L1209.7 -357.2L1217 -339.9L1224.1 -322.5L1230.9 -304.9L1237.4 -287.2L1243.6 -269.5L1249.5 -251.6L1255.1 -233.6L1260.3 -215.5L1265.3 -197.4L1269.9 -179.1L1274.2 -160.8L1278.2 -142.4L1281.9 -123.9L1285.3 -105.4L1288.4 -86.8L1291.1 -68.2L1293.5 -49.5L1295.6 -30.8L1297.4 -12.1L1298.8 6.7L1300 25.5L1300.8 44.3L1301.3 63.1L1301.4 81.9" fill="none" stroke="currentColor" stroke-width="0.75" stroke-linecap="round"/>
<path d="M-757.4 664.6L-767 648.4L-776.4 632.1L-785.5 615.6L-794.3 598.9L-802.8 582.1L-811 565.1L-819 548.1L-826.6 530.8L-834 513.5L-841.1 496L-847.9 478.4L-854.4 460.7L-860.6 442.9L-866.5 425L-872.1 407.1L-877.4 389L-882.4 370.8L-887.1 352.5L-891.4 334.2L-895.5 315.8L-899.3 297.3L-902.7 278.8L-905.9 260.2L-908.7 241.6L-911.2 222.9L-913.4 204.2L-915.3 185.4L-916.9 166.7L-918.2 147.8L-919.1 129L-919.7 110.2L-920.1 91.3L-920.1 72.5L-919.7 53.7L-919.1 34.8L-918.2 16L-916.9 -2.8L-915.3 -21.6L-913.4 -40.3L-911.2 -59.1L-908.7 -77.7L-905.9 -96.4L-902.7 -115L-899.3 -133.5L-895.5 -152L-891.4 -170.4L-887.1 -188.7L-882.4 -206.9L-877.4 -225.1L-872.1 -243.2L-866.5 -261.2L-860.6 -279.1L-854.4 -296.9L-847.9 -314.6L-841.1 -332.2L-834 -349.6L-826.6 -367L-819 -384.2L-811 -401.3L-802.8 -418.2L-794.3 -435.1L-785.5 -451.7L-776.4 -468.2L-767 -484.6L-757.4 -500.8L-747.5 -516.8L-737.3 -532.7L-726.9 -548.4L-716.2 -563.9L-705.3 -579.3L-694.1 -594.4L-682.6 -609.4L-670.9 -624.2L-658.9 -638.7L-646.7 -653.1L-634.3 -667.3L-621.6 -681.2L-608.7 -695L-595.6 -708.5L-582.3 -721.8L-568.7 -734.9L-554.9 -747.7L-540.9 -760.3L-526.7 -772.7L-512.2 -784.8L-497.6 -796.7L-482.8 -808.4L-467.8 -819.8L-452.6 -830.9L-437.2 -841.8L-421.6 -852.4L-405.9 -862.8L-390 -872.9L-373.9 -882.7L-357.6 -892.3L-341.2 -901.6L-324.7 -910.6L-308 -919.3L-291.1 -927.8L-274.2 -935.9L-257 -943.8L-239.8 -951.4L-222.4 -958.7L-204.9 -965.7L-187.3 -972.4L-169.6 -978.8L-151.8 -985L-133.8 -990.8L-115.8 -996.3L-97.7 -1001.5L-79.5 -1006.5L-61.2 -1011.1L-42.9 -1015.4L-24.5 -1019.4L-6 -1023.1L12.6 -1026.4L31.2 -1029.5L49.8 -1032.2L68.5 -1034.7L87.2 -1036.8L106 -1038.6L124.8 -1040.1L143.6 -1041.3L162.4 -1042.2L181.2 -1042.7L200.1 -1043L218.9 -1042.9L237.8 -1042.5L256.6 -1041.8L275.4 -1040.8L294.2 -1039.4L313 -1037.8L331.8 -1035.8L350.5 -1033.5L369.1 -1030.9L387.8 -1028L406.3 -1024.8L424.8 -1021.2L443.3 -1017.4L461.7 -1013.3L480 -1008.8L498.2 -1004L516.4 -999L534.4 -993.6L552.4 -987.9L570.3 -981.9L588.1 -975.7L605.7 -969.1L623.3 -962.2L640.7 -955.1L658 -947.6L675.2 -939.9L692.3 -931.9L709.2 -923.6L726 -915L742.6 -906.1L759.1 -896.9L775.4 -887.5L791.6 -877.8L807.6 -867.9L823.4 -857.6L839 -847.1L854.5 -836.4L869.8 -825.4L884.9 -814.1L899.8 -802.6L914.6 -790.8L929.1 -778.8L943.4 -766.5L957.5 -754L971.4 -741.3L985.1 -728.4L998.6 -715.2L1011.8 -701.8L1024.8 -688.1L1037.6 -674.3L1050.2 -660.2L1062.5 -646L1074.5 -631.5L1086.4 -616.8L1098 -601.9L1109.3 -586.9L1120.4 -571.6L1131.2 -556.2L1141.8 -540.6L1152.1 -524.8L1162.1 -508.8L1171.8 -492.7L1181.3 -476.4L1190.6 -460L1199.5 -443.4L1208.2 -426.7L1216.5 -409.8L1224.6 -392.8L1232.4 -375.6L1240 -358.3L1247.2 -340.9L1254.1 -323.4L1260.8 -305.8L1267.1 -288L1273.2 -270.2L1278.9 -252.2L1284.4 -234.2L1289.5 -216L1294.4 -197.8L1298.9 -179.5L1303.1 -161.2L1307 -142.7L1310.6 -124.2L1313.9 -105.7L1316.9 -87.1L1319.6 -68.4L1322 -49.7L1324 -31L1325.8 -12.2L1327.2 6.6L1328.3 25.4L1329.1 44.2L1329.5 63.1L1329.7 81.9" fill="none" stroke="currentColor" stroke-width="0.75" stroke-linecap="round"/>
<path d="M-835.4 573.9L-843.3 556.8L-850.9 539.6L-858.3 522.3L-865.3 504.8L-872.1 487.2L-878.6 469.6L-884.8 451.8L-890.7 433.9L-896.3 415.9L-901.6 397.9L-906.6 379.7L-911.4 361.5L-915.8 343.2L-919.9 324.8L-923.7 306.4L-927.3 287.9L-930.5 269.4L-933.4 250.8L-936 232.1L-938.3 213.4L-940.3 194.7L-942 176L-943.4 157.2L-944.5 138.4L-945.2 119.6L-945.7 100.7L-945.8 81.9L-945.7 63.1L-945.2 44.3L-944.5 25.5L-943.4 6.7L-942 -12.1L-940.3 -30.9L-938.3 -49.6L-936 -68.3L-933.4 -86.9L-930.5 -105.5L-927.3 -124.1L-923.7 -142.6L-919.9 -161L-915.8 -179.4L-911.4 -197.7L-906.6 -215.9L-901.6 -234L-896.3 -252.1L-890.7 -270.1L-884.8 -287.9L-878.6 -305.7L-872.1 -323.4L-865.3 -341L-858.3 -358.4L-850.9 -375.7L-843.3 -393L-835.4 -410L-827.2 -427L-818.7 -443.8L-810 -460.5L-801 -477L-791.7 -493.4L-782.1 -509.6L-772.3 -525.7L-762.3 -541.6L-751.9 -557.3L-741.3 -572.9L-730.5 -588.3L-719.4 -603.5L-708.1 -618.5L-696.5 -633.4L-684.7 -648L-672.6 -662.5L-660.3 -676.8L-647.8 -690.8L-635 -704.7L-622 -718.3L-608.8 -731.7L-595.4 -744.9L-581.8 -757.9L-567.9 -770.7L-553.9 -783.2L-539.6 -795.5L-525.2 -807.5L-510.5 -819.4L-495.7 -830.9L-480.6 -842.3L-465.4 -853.4L-450 -864.2L-434.5 -874.8L-418.7 -885.1L-402.8 -895.2L-386.7 -905L-370.5 -914.6L-354.1 -923.8L-337.6 -932.9L-320.9 -941.6L-304.1 -950.1L-287.2 -958.2L-270.1 -966.2L-252.9 -973.8L-235.5 -981.1L-218.1 -988.2L-200.5 -995L-182.8 -1001.5L-165.1 -1007.7L-147.2 -1013.6L-129.2 -1019.2L-111.2 -1024.5L-93 -1029.5L-74.8 -1034.2L-56.5 -1038.7L-38.1 -1042.8L-19.7 -1046.6L-1.2 -1050.1L17.4 -1053.4L36 -1056.3L54.6 -1058.9L73.3 -1061.2L92 -1063.2L110.8 -1064.9L129.5 -1066.3L148.3 -1067.3L167.2 -1068.1L186 -1068.6L204.8 -1068.7L223.6 -1068.6L242.4 -1068.1L261.3 -1067.3L280.1 -1066.3L298.8 -1064.9L317.6 -1063.2L336.3 -1061.2L355 -1058.9L373.6 -1056.3L392.2 -1053.4L410.8 -1050.1L429.3 -1046.6L447.7 -1042.8L466.1 -1038.7L484.4 -1034.2L502.6 -1029.5L520.8 -1024.5L538.8 -1019.2L556.8 -1013.6L574.7 -1007.7L592.4 -1001.5L610.1 -995L627.7 -988.2L645.1 -981.1L662.5 -973.8L679.7 -966.2L696.8 -958.2L713.7 -950.1L730.5 -941.6L747.2 -932.9L763.7 -923.8L780.1 -914.6L796.3 -905L812.4 -895.2L828.3 -885.1L844.1 -874.8L859.6 -864.2L875 -853.4L890.2 -842.3L905.3 -830.9L920.1 -819.4L934.8 -807.5L949.2 -795.5L963.5 -783.2L977.5 -770.7L991.4 -757.9L1005 -744.9L1018.4 -731.7L1031.6 -718.3L1044.6 -704.7L1057.4 -690.8L1069.9 -676.8L1082.2 -662.5L1094.3 -648L1106.1 -633.4L1117.7 -618.5L1129 -603.5L1140.1 -588.3L1150.9 -572.9L1161.5 -557.3L1171.9 -541.6L1181.9 -525.7L1191.7 -509.6L1201.3 -493.4L1210.6 -477L1219.6 -460.5L1228.3 -443.8L1236.8 -427L1245 -410L1252.9 -393L1260.5 -375.7L1267.9 -358.4L1274.9 -341L1281.7 -323.4L1288.2 -305.7L1294.4 -287.9L1300.3 -270.1L1305.9 -252.1L1311.2 -234L1316.2 -215.9L1321 -197.7L1325.4 -179.4L1329.5 -161L1333.3 -142.6L1336.9 -124.1L1340.1 -105.5L1343 -86.9L1345.6 -68.3L1347.9 -49.6L1349.9 -30.9L1351.6 -12.1L1353 6.7L1354.1 25.5L1354.8 44.3L1355.3 63.1L1355.4 81.9" fill="none" stroke="currentColor" stroke-width="0.75" stroke-linecap="round"/>
<path d="M-879.2 532.2L-886.3 514.7L-893.1 497.1L-899.6 479.4L-905.9 461.6L-911.8 443.7L-917.5 425.7L-922.9 407.7L-927.9 389.5L-932.7 371.3L-937.2 352.9L-941.5 334.6L-945.4 316.1L-949 297.6L-952.3 279L-955.3 260.4L-958 241.7L-960.5 223L-962.6 204.3L-964.4 185.5L-965.9 166.7L-967.1 147.9L-968 129.1L-968.6 110.2L-968.9 91.4L-968.9 72.5L-968.6 53.6L-968 34.8L-967.1 15.9L-965.9 -2.9L-964.4 -21.7L-962.6 -40.5L-960.5 -59.2L-958 -77.9L-955.3 -96.6L-952.3 -115.2L-949 -133.8L-945.4 -152.3L-941.5 -170.7L-937.2 -189.1L-932.7 -207.4L-927.9 -225.7L-922.9 -243.8L-917.5 -261.9L-911.8 -279.9L-905.9 -297.8L-899.6 -315.6L-893.1 -333.3L-886.3 -350.9L-879.2 -368.3L-871.8 -385.7L-864.1 -402.9L-856.2 -420.1L-848 -437L-839.5 -453.9L-830.8 -470.6L-821.8 -487.2L-812.5 -503.6L-803 -519.9L-793.2 -536L-783.1 -551.9L-772.8 -567.7L-762.2 -583.4L-751.4 -598.8L-740.3 -614.1L-729 -629.2L-717.5 -644.1L-705.7 -658.8L-693.7 -673.4L-681.4 -687.7L-668.9 -701.8L-656.2 -715.8L-643.3 -729.5L-630.2 -743L-616.8 -756.4L-603.2 -769.4L-589.4 -782.3L-575.4 -795L-561.3 -807.4L-546.9 -819.6L-532.3 -831.6L-517.5 -843.3L-502.6 -854.8L-487.4 -866L-472.1 -877L-456.6 -887.8L-440.9 -898.3L-425.1 -908.5L-409.1 -918.5L-392.9 -928.2L-376.6 -937.7L-360.2 -946.9L-343.6 -955.9L-326.8 -964.6L-309.9 -973L-292.9 -981.1L-275.8 -989L-258.5 -996.5L-241.1 -1003.8L-223.6 -1010.9L-206 -1017.6L-188.3 -1024.1L-170.4 -1030.2L-152.5 -1036.1L-134.5 -1041.7L-116.4 -1047L-98.2 -1052.1L-80 -1056.8L-61.6 -1061.2L-43.2 -1065.3L-24.8 -1069.2L-6.2 -1072.7L12.3 -1076L31 -1078.9L49.6 -1081.5L68.4 -1083.9L87.1 -1085.9L105.9 -1087.7L124.7 -1089.1L143.5 -1090.2L162.4 -1091.1L181.2 -1091.6L200.1 -1091.8L218.9 -1091.8L237.8 -1091.4L256.7 -1090.7L275.5 -1089.7L294.3 -1088.4L313.1 -1086.8L331.9 -1084.9L350.6 -1082.8L369.3 -1080.3L388 -1077.5L406.6 -1074.4L425.1 -1071L443.6 -1067.3L462 -1063.3L480.4 -1059L498.7 -1054.5L516.9 -1049.6L535.1 -1044.4L553.1 -1039L571.1 -1033.2L589 -1027.2L606.7 -1020.9L624.4 -1014.3L642 -1007.4L659.4 -1000.2L676.8 -992.8L694 -985.1L711 -977.1L728 -968.8L744.8 -960.2L761.5 -951.4L778 -942.4L794.4 -933L810.6 -923.4L826.7 -913.5L842.6 -903.4L858.4 -893L874 -882.4L889.4 -871.5L904.6 -860.4L919.7 -849.1L934.5 -837.4L949.2 -825.6L963.7 -813.5L978 -801.2L992.1 -788.7L1006 -775.9L1019.6 -762.9L1033.1 -749.7L1046.4 -736.3L1059.4 -722.7L1072.2 -708.8L1084.8 -694.8L1097.2 -680.6L1109.3 -666.1L1121.2 -651.5L1132.9 -636.7L1144.3 -621.7L1155.5 -606.5L1166.4 -591.1L1177.1 -575.6L1187.6 -559.9L1197.8 -544L1207.7 -528L1217.4 -511.8L1226.8 -495.4L1235.9 -478.9L1244.8 -462.3L1253.4 -445.5L1261.7 -428.6L1269.8 -411.5L1277.6 -394.3L1285.1 -377L1292.3 -359.6L1299.3 -342.1L1306 -324.5L1312.4 -306.7L1318.5 -288.9L1324.3 -270.9L1329.8 -252.9L1335 -234.8L1340 -216.6L1344.6 -198.3L1349 -179.9L1353 -161.5L1356.8 -143L1360.3 -124.5L1363.4 -105.9L1366.3 -87.2L1368.9 -68.6L1371.1 -49.8L1373.1 -31.1L1374.8 -12.3L1376.1 6.5L1377.2 25.4L1378 44.2L1378.4 63.1L1378.6 81.9" fill="none" stroke="currentColor" stroke-width="0.75" stroke-linecap="round"/>
<path d="M-911.5 506.1L-918.1 488.4L-924.3 470.6L-930.3 452.7L-936 434.8L-941.5 416.7L-946.6 398.6L-951.5 380.4L-956 362.1L-960.3 343.7L-964.3 325.3L-968 306.8L-971.4 288.3L-974.5 269.7L-977.3 251L-979.9 232.3L-982.1 213.6L-984 194.9L-985.6 176.1L-987 157.3L-988 138.5L-988.8 119.6L-989.2 100.8L-989.4 81.9L-989.2 63.1L-988.8 44.2L-988 25.4L-987 6.6L-985.6 -12.2L-984 -31L-982.1 -49.8L-979.9 -68.5L-977.3 -87.2L-974.5 -105.8L-971.4 -124.4L-968 -143L-964.3 -161.4L-960.3 -179.9L-956 -198.2L-951.5 -216.5L-946.6 -234.7L-941.5 -252.9L-936 -270.9L-930.3 -288.9L-924.3 -306.8L-918.1 -324.5L-911.5 -342.2L-904.7 -359.8L-897.6 -377.2L-890.2 -394.6L-882.5 -411.8L-874.6 -428.9L-866.4 -445.9L-857.9 -462.7L-849.2 -479.4L-840.2 -496L-830.9 -512.4L-821.4 -528.7L-811.7 -544.8L-801.6 -560.8L-791.4 -576.6L-780.9 -592.3L-770.1 -607.7L-759.1 -623L-747.8 -638.2L-736.3 -653.1L-724.6 -667.9L-712.7 -682.5L-700.5 -696.8L-688.1 -711L-675.5 -725L-662.6 -738.8L-649.5 -752.4L-636.3 -765.8L-622.8 -779L-609.1 -791.9L-595.2 -804.7L-581.1 -817.2L-566.8 -829.5L-552.3 -841.6L-537.6 -853.4L-522.8 -865L-507.7 -876.4L-492.5 -887.5L-477.1 -898.4L-461.6 -909L-445.9 -919.4L-430 -929.6L-413.9 -939.5L-397.7 -949.1L-381.4 -958.5L-364.9 -967.6L-348.2 -976.5L-331.5 -985.1L-314.5 -993.4L-297.5 -1001.5L-280.3 -1009.3L-263.1 -1016.8L-245.6 -1024L-228.1 -1031L-210.5 -1037.7L-192.8 -1044.1L-175 -1050.3L-157 -1056.1L-139 -1061.7L-120.9 -1067L-102.8 -1072L-84.5 -1076.7L-66.2 -1081.1L-47.8 -1085.2L-29.3 -1089.1L-10.8 -1092.6L7.8 -1095.9L26.4 -1098.8L45 -1101.5L63.7 -1103.9L82.5 -1106L101.2 -1107.7L120 -1109.2L138.9 -1110.4L157.7 -1111.3L176.5 -1111.9L195.4 -1112.2L214.2 -1112.2L233.1 -1111.9L251.9 -1111.3L270.7 -1110.4L289.6 -1109.2L308.4 -1107.7L327.1 -1106L345.9 -1103.9L364.6 -1101.5L383.2 -1098.8L401.8 -1095.9L420.4 -1092.6L438.9 -1089.1L457.4 -1085.2L475.8 -1081.1L494.1 -1076.7L512.4 -1072L530.5 -1067L548.6 -1061.7L566.6 -1056.1L584.6 -1050.3L602.4 -1044.1L620.1 -1037.7L637.7 -1031L655.2 -1024L672.7 -1016.8L689.9 -1009.3L707.1 -1001.5L724.1 -993.4L741.1 -985.1L757.8 -976.5L774.5 -967.6L791 -958.5L807.3 -949.1L823.5 -939.5L839.6 -929.6L855.5 -919.4L871.2 -909L886.7 -898.4L902.1 -887.5L917.3 -876.4L932.4 -865L947.2 -853.4L961.9 -841.6L976.4 -829.5L990.7 -817.2L1004.8 -804.7L1018.7 -791.9L1032.4 -779L1045.9 -765.8L1059.1 -752.4L1072.2 -738.8L1085.1 -725L1097.7 -711L1110.1 -696.8L1122.3 -682.5L1134.2 -667.9L1145.9 -653.1L1157.4 -638.2L1168.7 -623L1179.7 -607.7L1190.5 -592.3L1201 -576.6L1211.2 -560.8L1221.3 -544.8L1231 -528.7L1240.5 -512.4L1249.8 -496L1258.8 -479.4L1267.5 -462.7L1276 -445.9L1284.2 -428.9L1292.1 -411.8L1299.8 -394.6L1307.2 -377.2L1314.3 -359.8L1321.1 -342.2L1327.7 -324.5L1333.9 -306.8L1339.9 -288.9L1345.6 -270.9L1351.1 -252.9L1356.2 -234.7L1361.1 -216.5L1365.6 -198.2L1369.9 -179.9L1373.9 -161.4L1377.6 -143L1381 -124.4L1384.1 -105.8L1386.9 -87.2L1389.5 -68.5L1391.7 -49.8L1393.6 -31L1395.2 -12.2L1396.6 6.6L1397.6 25.4L1398.4 44.2L1398.8 63.1L1399 81.9" fill="none" stroke="currentColor" stroke-width="0.75" stroke-linecap="round"/>
<path d="M1416.5 81.9L1416.4 100.8L1415.9 119.6L1415.2 138.4L1414.2 157.3L1412.8 176.1L1411.2 194.8L1409.3 213.6L1407.1 232.3L1404.7 251L1401.9 269.6L1398.8 288.2L1395.5 306.8L1391.8 325.2L1387.9 343.7L1383.7 362L1379.2 380.3L1374.4 398.6L1369.3 416.7L1364 434.8L1358.4 452.8L1352.5 470.7L1346.3 488.5L1339.8 506.2L1333.1 523.8L1326.1 541.3L1318.8 558.6L1311.2 575.9L1303.4 593.1L1295.3 610.1L1287 627L1278.4 643.7L1269.5 660.4L1260.4 676.9L1251 693.2L1241.4 709.4L1231.5 725.4L1221.4 741.3" fill="none" stroke="currentColor" stroke-width="0.75" stroke-linecap="round"/>
<path d="M-811.8 741.3L-821.9 725.4L-831.8 709.4L-841.4 693.2L-850.8 676.9L-859.9 660.4L-868.8 643.7L-877.4 627L-885.7 610.1L-893.8 593.1L-901.6 575.9L-909.2 558.6L-916.5 541.3L-923.5 523.8L-930.2 506.2L-936.7 488.5L-942.9 470.7L-948.8 452.8L-954.4 434.8L-959.7 416.7L-964.8 398.6L-969.6 380.3L-974.1 362L-978.3 343.7L-982.2 325.2L-985.9 306.8L-989.2 288.2L-992.3 269.6L-995.1 251L-997.5 232.3L-999.7 213.6L-1001.6 194.8L-1003.2 176.1L-1004.6 157.3L-1005.6 138.4L-1006.3 119.6L-1006.8 100.8L-1006.9 81.9L-1006.8 63.1L-1006.3 44.2L-1005.6 25.4L-1004.6 6.6L-1003.2 -12.2L-1001.6 -31L-999.7 -49.7L-997.5 -68.5L-995.1 -87.1L-992.3 -105.8L-989.2 -124.4L-985.9 -142.9L-982.2 -161.4L-978.3 -179.8L-974.1 -198.2L-969.6 -216.5L-964.8 -234.7L-959.7 -252.9L-954.4 -270.9L-948.8 -288.9L-942.9 -306.8L-936.7 -324.6L-930.2 -342.3L-923.5 -359.9L-916.5 -377.4L-909.2 -394.8L-901.6 -412.1L-893.8 -429.2L-885.7 -446.2L-877.4 -463.1L-868.8 -479.9L-859.9 -496.5L-850.8 -513L-841.4 -529.4L-831.8 -545.6L-821.9 -561.6L-811.8 -577.5L-801.4 -593.2L-790.8 -608.8L-779.9 -624.2L-768.8 -639.4L-757.5 -654.5L-745.9 -669.4L-734.1 -684L-722.1 -698.6L-709.8 -712.9L-697.4 -727L-684.7 -740.9L-671.8 -754.7L-658.6 -768.2L-645.3 -781.5L-631.8 -794.6L-618.1 -807.5L-604.1 -820.2L-590 -832.7L-575.7 -845L-561.2 -857L-546.5 -868.8L-531.6 -880.4L-516.5 -891.7L-501.3 -902.8L-485.9 -913.6L-470.3 -924.3L-454.6 -934.6L-438.7 -944.8L-422.7 -954.7L-406.5 -964.3L-390.1 -973.7L-373.7 -982.8L-357 -991.7L-340.3 -1000.3L-323.4 -1008.6L-306.3 -1016.7L-289.2 -1024.5L-271.9 -1032.1L-254.5 -1039.3L-237.1 -1046.4L-219.5 -1053.1L-201.7 -1059.6L-183.9 -1065.7L-166.1 -1071.6L-148.1 -1077.3L-130 -1082.6L-111.8 -1087.7L-93.6 -1092.5L-75.3 -1097L-57 -1101.2L-38.5 -1105.1L-20 -1108.8L-1.5 -1112.1L17.1 -1115.2L35.7 -1117.9L54.4 -1120.4L73.1 -1122.6L91.9 -1124.5L110.7 -1126.1L129.5 -1127.4L148.3 -1128.5L167.1 -1129.2L186 -1129.6L204.8 -1129.8L223.6 -1129.6L242.5 -1129.2L261.3 -1128.5L280.1 -1127.4L298.9 -1126.1L317.7 -1124.5L336.5 -1122.6L355.2 -1120.4L373.9 -1117.9L392.5 -1115.2L411.1 -1112.1L429.6 -1108.8L448.1 -1105.1L466.6 -1101.2L484.9 -1097L503.2 -1092.5L521.4 -1087.7L539.6 -1082.6L557.7 -1077.3L575.7 -1071.6L593.5 -1065.7L611.3 -1059.6L629.1 -1053.1L646.7 -1046.4L664.1 -1039.3L681.5 -1032.1L698.8 -1024.5L715.9 -1016.7L733 -1008.6L749.9 -1000.3L766.6 -991.7L783.3 -982.8L799.7 -973.7L816.1 -964.3L832.3 -954.7L848.3 -944.8L864.2 -934.6L879.9 -924.3L895.5 -913.6L910.9 -902.8L926.1 -891.7L941.2 -880.4L956.1 -868.8L970.8 -857L985.3 -845L999.6 -832.7L1013.7 -820.2L1027.7 -807.5L1041.4 -794.6L1054.9 -781.5L1068.2 -768.2L1081.4 -754.7L1094.3 -740.9L1107 -727L1119.4 -712.9L1131.7 -698.6L1143.7 -684L1155.5 -669.4L1167.1 -654.5L1178.4 -639.4L1189.5 -624.2L1200.4 -608.8L1211 -593.2L1221.4 -577.5L1231.5 -561.6L1241.4 -545.6L1251 -529.4L1260.4 -513L1269.5 -496.5L1278.4 -479.9L1287 -463.1L1295.3 -446.2L1303.4 -429.2L1311.2 -412.1L1318.8 -394.8L1326.1 -377.4L1333.1 -359.9L1339.8 -342.3L1346.3 -324.6L1352.5 -306.8L1358.4 -288.9L1364 -270.9L1369.3 -252.9L1374.4 -234.7L1379.2 -216.5L1383.7 -198.2L1387.9 -179.8L1391.8 -161.4L1395.5 -142.9L1398.8 -124.4L1401.9 -105.8L1404.7 -87.1L1407.1 -68.5L1409.3 -49.7L1411.2 -31L1412.8 -12.2L1414.2 6.6L1415.2 25.4L1415.9 44.2L1416.4 63.1L1416.5 81.9" fill="none" stroke="currentColor" stroke-width="0.75" stroke-linecap="round"/>
<path d="M1431 81.9L1430.9 100.8L1430.5 119.6L1429.7 138.4L1428.7 157.2L1427.4 176L1425.8 194.8L1424 213.5L1421.8 232.2L1419.3 250.9L1416.6 269.6L1413.6 288.2L1410.3 306.7L1406.7 325.2L1402.8 343.6L1398.6 362L1394.2 380.3L1389.5 398.5L1384.5 416.7L1379.2 434.8L1373.6 452.8L1367.8 470.7L1361.7 488.5L1355.3 506.2L1348.6 523.9L1341.7 541.4L1334.5 558.8L1327.1 576.1L1319.3 593.3L1311.3 610.3L1303.1 627.3" fill="none" stroke="currentColor" stroke-width="0.75" stroke-linecap="round"/>
<path d="M-823.5 749.9L-833.7 734L-843.6 718L-853.2 701.8L-862.6 685.5L-871.8 669L-880.6 652.4L-889.3 635.7L-897.7 618.8L-905.8 601.8L-913.6 584.7L-921.2 567.4L-928.5 550.1L-935.6 532.6L-942.4 515.1L-948.9 497.4L-955.2 479.6L-961.1 461.7L-966.8 443.8L-972.2 425.7L-977.4 407.6L-982.3 389.4L-986.8 371.2L-991.1 352.8L-995.2 334.4L-998.9 315.9L-1002.4 297.4L-1005.5 278.9L-1008.4 260.2L-1011 241.6L-1013.3 222.9L-1015.3 204.2L-1017.1 185.4L-1018.5 166.6L-1019.7 147.8L-1020.5 129L-1021.1 110.2L-1021.4 91.3L-1021.4 72.5L-1021.1 53.7L-1020.5 34.8L-1019.7 16L-1018.5 -2.8L-1017.1 -21.6L-1015.3 -40.3L-1013.3 -59.1L-1011 -77.7L-1008.4 -96.4L-1005.5 -115L-1002.4 -133.6L-998.9 -152.1L-995.2 -170.6L-991.1 -189L-986.8 -207.3L-982.3 -225.6L-977.4 -243.8L-972.2 -261.9L-966.8 -279.9L-961.1 -297.9L-955.2 -315.8L-948.9 -333.5L-942.4 -351.2L-935.6 -368.8L-928.5 -386.3L-921.2 -403.6L-913.6 -420.8L-905.8 -438L-897.7 -455L-889.3 -471.8L-880.6 -488.6L-871.8 -505.2L-862.6 -521.7L-853.2 -538L-843.6 -554.2L-833.7 -570.2L-823.5 -586.1L-813.1 -601.8L-802.5 -617.3L-791.7 -632.7L-780.6 -648L-769.2 -663L-757.7 -677.9L-745.9 -692.6L-733.9 -707.1L-721.6 -721.4L-709.2 -735.6L-696.5 -749.5L-683.7 -763.2L-670.6 -776.8L-657.3 -790.1L-643.8 -803.3L-630.1 -816.2L-616.2 -828.9L-602.1 -841.4L-587.8 -853.7L-573.3 -865.8L-558.7 -877.6L-543.9 -889.2L-528.9 -900.6L-513.7 -911.8L-498.3 -922.7L-482.8 -933.4L-467.1 -943.8L-451.3 -954L-435.3 -964L-419.2 -973.7L-402.9 -983.2L-386.4 -992.4L-369.9 -1001.3L-353.2 -1010L-336.3 -1018.5L-319.4 -1026.7L-302.3 -1034.6L-285 -1042.2L-267.7 -1049.6L-250.3 -1056.7L-232.7 -1063.6L-215.1 -1070.2L-197.3 -1076.5L-179.5 -1082.5L-161.6 -1088.3L-143.5 -1093.8L-125.4 -1099L-107.3 -1103.9L-89 -1108.6L-70.7 -1113L-52.3 -1117.1L-33.9 -1120.9L-15.3 -1124.4L3.2 -1127.6L21.8 -1130.6L40.5 -1133.3L59.2 -1135.6L77.9 -1137.7L96.6 -1139.5L115.4 -1141.1L134.2 -1142.3L153 -1143.2L171.8 -1143.9L190.7 -1144.2L209.5 -1144.3L228.3 -1144.1L247.2 -1143.6L266 -1142.8L284.8 -1141.7L303.6 -1140.3L322.4 -1138.7L341.1 -1136.7L359.8 -1134.5L378.5 -1132L397.1 -1129.1L415.7 -1126.1L434.2 -1122.7L452.7 -1119L471.1 -1115.1L489.5 -1110.8L507.7 -1106.3L526 -1101.5L544.1 -1096.4L562.2 -1091.1L580.1 -1085.5L598 -1079.6L615.8 -1073.4L633.5 -1066.9L651.1 -1060.2L668.6 -1053.2L686 -1046L703.3 -1038.4L720.4 -1030.6L737.5 -1022.6L754.4 -1014.3L771.1 -1005.7L787.8 -996.9L804.3 -987.8L820.6 -978.5L836.9 -968.9L852.9 -959L868.8 -949L884.6 -938.6L900.2 -928.1L915.6 -917.3L930.9 -906.2L946 -895L960.9 -883.5L975.6 -871.7L990.2 -859.8L1004.6 -847.6L1018.8 -835.2L1032.8 -822.6L1046.6 -809.8L1060.1 -796.7L1073.5 -783.5L1086.7 -770L1099.7 -756.4L1112.5 -742.6L1125.1 -728.5L1137.4 -714.3L1149.5 -699.9L1161.4 -685.3L1173.1 -670.5L1184.5 -655.5L1195.7 -640.4L1206.7 -625.1L1217.5 -609.6L1228 -593.9L1238.2 -578.2L1248.2 -562.2L1258 -546.1L1267.5 -529.8L1276.8 -513.4L1285.8 -496.9L1294.6 -480.2L1303.1 -463.4L1311.3 -446.5L1319.3 -429.4L1327.1 -412.2L1334.5 -394.9L1341.7 -377.5L1348.6 -360L1355.3 -342.4L1361.7 -324.7L1367.8 -306.8L1373.6 -288.9L1379.2 -270.9L1384.5 -252.9L1389.5 -234.7L1394.2 -216.5L1398.6 -198.2L1402.8 -179.8L1406.7 -161.3L1410.3 -142.9L1413.6 -124.3L1416.6 -105.7L1419.3 -87.1L1421.8 -68.4L1424 -49.7L1425.8 -30.9L1427.4 -12.2L1428.7 6.6L1429.7 25.4L1430.5 44.3L1430.9 63.1L1431 81.9" fill="none" stroke="currentColor" stroke-width="0.75" stroke-linecap="round"/>
<path d="M-954.5 515L-960.9 497.3L-967.1 479.5L-973 461.6L-978.7 443.7L-984 425.6L-989.1 407.5L-993.9 389.3L-998.5 371L-1002.7 352.7L-1006.7 334.3L-1010.4 315.8L-1013.8 297.3L-1017 278.8L-1019.8 260.2L-1022.4 241.5L-1024.7 222.8L-1026.7 204.1L-1028.4 185.3L-1029.8 166.6L-1031 147.8L-1031.8 129L-1032.4 110.2L-1032.7 91.3L-1032.7 72.5L-1032.4 53.7L-1031.8 34.9L-1031 16.1L-1029.8 -2.7L-1028.4 -21.5L-1026.7 -40.3L-1024.7 -59L-1022.4 -77.7L-1019.8 -96.3L-1017 -114.9L-1013.8 -133.5L-1010.4 -152L-1006.7 -170.5L-1002.7 -188.9L-998.5 -207.2L-993.9 -225.5L-989.1 -243.7L-984 -261.8L-978.7 -279.8L-973 -297.8L-967.1 -315.7L-960.9 -333.5L-954.5 -351.2L-947.7 -368.7L-940.8 -386.2L-933.5 -403.6L-926 -420.9L-918.2 -438L-910.2 -455L-901.9 -471.9L-893.3 -488.7L-884.5 -505.3L-875.4 -521.8L-866.1 -538.2L-856.6 -554.4L-846.8 -570.5L-836.7 -586.4L-826.4 -602.2L-815.9 -617.8L-805.2 -633.2L-794.2 -648.5L-782.9 -663.6L-771.5 -678.6L-759.8 -693.3L-747.9 -707.9L-735.8 -722.3L-723.4 -736.5L-710.9 -750.6L-698.1 -764.4L-685.1 -778L-671.9 -791.5L-658.5 -804.7L-644.9 -817.7L-631.2 -830.6L-617.2 -843.2L-603 -855.6L-588.7 -867.8L-574.1 -879.7L-559.4 -891.5L-544.5 -903L-529.4 -914.3L-514.2 -925.3L-498.8 -936.1L-483.2 -946.7L-467.5 -957.1L-451.6 -967.2L-435.6 -977L-419.4 -986.7L-403.1 -996L-386.6 -1005.1L-370 -1014L-353.2 -1022.6L-336.4 -1031L-319.4 -1039.1L-302.3 -1046.9L-285 -1054.5L-267.7 -1061.8L-250.2 -1068.9L-232.7 -1075.7L-215 -1082.2L-197.3 -1088.5L-179.4 -1094.4L-161.5 -1100.2L-143.4 -1105.6L-125.3 -1110.8L-107.2 -1115.6L-88.9 -1120.2L-70.6 -1124.6L-52.2 -1128.6L-33.7 -1132.4L-15.2 -1135.9L3.3 -1139.1L21.9 -1142L40.5 -1144.7L59.2 -1147L77.9 -1149.1L96.7 -1150.9L115.4 -1152.4L134.2 -1153.6L153 -1154.5L171.9 -1155.2L190.7 -1155.5L209.5 -1155.6L228.3 -1155.4L247.2 -1154.9L266 -1154.1L284.8 -1153L303.5 -1151.7L322.3 -1150L341 -1148.1L359.7 -1145.9L378.4 -1143.4L397 -1140.6L415.6 -1137.5L434.1 -1134.2L452.6 -1130.5L471 -1126.6L489.3 -1122.4L507.6 -1118L525.9 -1113.2L544 -1108.2L562.1 -1102.9L580 -1097.3L597.9 -1091.5L615.7 -1085.4L633.5 -1079L651.1 -1072.3L668.6 -1065.4L686 -1058.2L703.3 -1050.8L720.4 -1043.1L737.5 -1035.1L754.4 -1026.8L771.2 -1018.4L787.9 -1009.6L804.4 -1000.6L820.8 -991.4L837.1 -981.9L853.2 -972.1L869.2 -962.1L885 -951.9L900.6 -941.5L916.1 -930.7L931.4 -919.8L946.6 -908.6L961.6 -897.2L976.4 -885.6L991 -873.8L1005.5 -861.7L1019.7 -849.4L1033.8 -836.9L1047.7 -824.2L1061.4 -811.3L1074.9 -798.1L1088.1 -784.8L1101.2 -771.2L1114.1 -757.5L1126.8 -743.6L1139.2 -729.5L1151.4 -715.1L1163.5 -700.7L1175.3 -686L1186.8 -671.1L1198.2 -656.1L1209.3 -640.9L1220.2 -625.5L1230.8 -610L1241.2 -594.3L1251.4 -578.5L1261.3 -562.5L1271 -546.3L1280.4 -530L1289.6 -513.6L1298.5 -497L1307.2 -480.3L1315.7 -463.5L1323.8 -446.5L1331.7 -429.4L1339.4 -412.2L1346.8 -394.9L1353.9 -377.5L1360.7 -360L1367.3 -342.3L1373.7 -324.6L1379.7 -306.8L1385.5 -288.8L1391 -270.8L1396.2 -252.7L1401.2 -234.6L1405.8 -216.3L1410.2 -198L1414.4 -179.7L1418.2 -161.2L1421.8 -142.8L1425 -124.2L1428 -105.6L1430.7 -87L1433.2 -68.3L1435.3 -49.6L1437.2 -30.9L1438.7 -12.1L1440 6.7L1441 25.5L1441.7 44.3L1442.2 63.1L1442.3 81.9" fill="none" stroke="currentColor" stroke-width="0.75" stroke-linecap="round"/>
<path d="M-980.9 462.2L-986.5 444.2L-991.9 426.1L-996.9 408L-1001.7 389.8L-1006.3 371.5L-1010.5 353.1L-1014.5 334.7L-1018.2 316.2L-1021.6 297.6L-1024.7 279L-1027.5 260.4L-1030.1 241.7L-1032.4 223L-1034.4 204.3L-1036.1 185.5L-1037.5 166.7L-1038.6 147.9L-1039.5 129L-1040.1 110.2L-1040.4 91.3L-1040.4 72.5L-1040.1 53.6L-1039.5 34.8L-1038.6 16L-1037.5 -2.9L-1036.1 -21.6L-1034.4 -40.4L-1032.4 -59.2L-1030.1 -77.9L-1027.5 -96.6L-1024.7 -115.2L-1021.6 -133.8L-1018.2 -152.3L-1014.5 -170.8L-1010.5 -189.3L-1006.3 -207.6L-1001.7 -225.9L-996.9 -244.2L-991.9 -262.3L-986.5 -280.4L-980.9 -298.4L-975 -316.3L-968.8 -334.1L-962.4 -351.8L-955.7 -369.4L-948.7 -387L-941.5 -404.4L-934 -421.7L-926.3 -438.9L-918.2 -455.9L-910 -472.9L-901.4 -489.7L-892.7 -506.4L-883.6 -522.9L-874.4 -539.3L-864.8 -555.6L-855.1 -571.7L-845 -587.7L-834.8 -603.5L-824.3 -619.2L-813.5 -634.7L-802.6 -650L-791.4 -665.2L-780 -680.2L-768.3 -695L-756.4 -709.6L-744.3 -724.1L-732 -738.4L-719.5 -752.4L-706.8 -766.3L-693.8 -780L-680.7 -793.6L-667.3 -806.9L-653.8 -820L-640 -832.9L-626.1 -845.5L-611.9 -858L-597.6 -870.3L-583.1 -882.3L-568.4 -894.1L-553.5 -905.7L-538.5 -917.1L-523.3 -928.2L-507.9 -939.1L-492.4 -949.8L-476.7 -960.2L-460.8 -970.4L-444.8 -980.4L-428.6 -990.1L-412.3 -999.6L-395.9 -1008.8L-379.3 -1017.8L-362.6 -1026.5L-345.8 -1034.9L-328.8 -1043.2L-311.7 -1051.1L-294.5 -1058.8L-277.2 -1066.2L-259.7 -1073.4L-242.2 -1080.3L-224.5 -1086.9L-206.8 -1093.3L-188.9 -1099.4L-171 -1105.2L-153 -1110.8L-134.9 -1116L-116.7 -1121L-98.5 -1125.8L-80.2 -1130.2L-61.8 -1134.4L-43.3 -1138.3L-24.8 -1141.9L-6.3 -1145.3L12.3 -1148.3L31 -1151.1L49.7 -1153.6L68.4 -1155.8L87.1 -1157.7L105.9 -1159.3L124.7 -1160.7L143.6 -1161.8L162.4 -1162.6L181.2 -1163.1L200.1 -1163.3L218.9 -1163.2L237.8 -1162.8L256.6 -1162.2L275.5 -1161.3L294.3 -1160.1L313.1 -1158.6L331.8 -1156.8L350.6 -1154.7L369.3 -1152.4L387.9 -1149.7L406.6 -1146.8L425.2 -1143.6L443.7 -1140.1L462.2 -1136.4L480.6 -1132.4L498.9 -1128L517.2 -1123.4L535.4 -1118.6L553.6 -1113.4L571.6 -1108L589.6 -1102.3L607.5 -1096.4L625.3 -1090.1L643 -1083.6L660.6 -1076.9L678 -1069.8L695.4 -1062.5L712.7 -1055L729.9 -1047.2L746.9 -1039.1L763.8 -1030.7L780.6 -1022.2L797.2 -1013.3L813.7 -1004.2L830.1 -994.9L846.3 -985.3L862.4 -975.4L878.4 -965.4L894.1 -955.1L909.8 -944.5L925.2 -933.7L940.5 -922.7L955.6 -911.4L970.6 -900L985.4 -888.2L1000 -876.3L1014.4 -864.2L1028.6 -851.8L1042.7 -839.2L1056.5 -826.4L1070.2 -813.4L1083.6 -800.2L1096.9 -786.8L1109.9 -773.2L1122.8 -759.4L1135.4 -745.4L1147.8 -731.2L1160 -716.9L1172 -702.3L1183.8 -687.6L1195.3 -672.7L1206.6 -657.6L1217.7 -642.3L1228.5 -626.9L1239.2 -611.3L1249.5 -595.6L1259.7 -579.7L1269.6 -563.7L1279.2 -547.5L1288.6 -531.1L1297.8 -514.6L1306.7 -498L1315.3 -481.3L1323.7 -464.4L1331.9 -447.4L1339.8 -430.3L1347.4 -413L1354.8 -395.7L1361.9 -378.2L1368.7 -360.6L1375.3 -343L1381.6 -325.2L1387.6 -307.3L1393.3 -289.4L1398.8 -271.4L1404 -253.2L1409 -235L1413.6 -216.8L1418 -198.4L1422.1 -180L1426 -161.6L1429.5 -143.1L1432.8 -124.5L1435.7 -105.9L1438.5 -87.2L1440.9 -68.5L1443 -49.8L1444.9 -31L1446.4 -12.3L1447.7 6.6L1448.7 25.4L1449.4 44.2L1449.9 63.1L1450 81.9" fill="none" stroke="currentColor" stroke-width="0.75" stroke-linecap="round"/>
<path d="M-909.3 645.3L-917.7 628.4L-925.8 611.4L-933.7 594.3L-941.3 577L-948.6 559.7L-955.7 542.2L-962.5 524.6L-969.1 506.9L-975.4 489.2L-981.4 471.3L-987.1 453.3L-992.6 435.3L-997.8 417.2L-1002.7 399L-1007.4 380.7L-1011.7 362.3L-1015.8 343.9L-1019.7 325.5L-1023.2 307L-1026.4 288.4L-1029.4 269.8L-1032.1 251.1L-1034.5 232.4L-1036.7 213.7L-1038.5 194.9L-1040.1 176.1L-1041.4 157.3L-1042.4 138.5L-1043.1 119.6L-1043.5 100.8L-1043.6 81.9L-1043.5 63.1L-1043.1 44.2L-1042.4 25.4L-1041.4 6.5L-1040.1 -12.3L-1038.5 -31.1L-1036.7 -49.8L-1034.5 -68.6L-1032.1 -87.3L-1029.4 -105.9L-1026.4 -124.5L-1023.2 -143.1L-1019.7 -161.6L-1015.8 -180.1L-1011.7 -198.5L-1007.4 -216.9L-1002.7 -235.1L-997.8 -253.3L-992.6 -271.5L-987.1 -289.5L-981.4 -307.5L-975.4 -325.3L-969.1 -343.1L-962.5 -360.8L-955.7 -378.4L-948.6 -395.8L-941.3 -413.2L-933.7 -430.5L-925.8 -447.6L-917.7 -464.6L-909.3 -481.5L-900.6 -498.3L-891.8 -514.9L-882.6 -531.4L-873.2 -547.7L-863.6 -563.9L-853.7 -580L-843.6 -595.9L-833.2 -611.7L-822.6 -627.3L-811.8 -642.7L-800.8 -658L-789.5 -673.1L-778 -688L-766.2 -702.8L-754.2 -717.3L-742.1 -731.7L-729.7 -745.9L-717.1 -760L-704.2 -773.8L-691.2 -787.4L-678 -800.9L-664.5 -814.1L-650.9 -827.1L-637.1 -839.9L-623.1 -852.6L-608.9 -864.9L-594.5 -877.1L-579.9 -889.1L-565.1 -900.8L-550.2 -912.3L-535.1 -923.6L-519.8 -934.7L-504.4 -945.5L-488.8 -956.1L-473 -966.5L-457.1 -976.6L-441.1 -986.5L-424.9 -996.1L-408.5 -1005.5L-392 -1014.6L-375.4 -1023.5L-358.6 -1032.2L-341.7 -1040.5L-324.7 -1048.7L-307.6 -1056.5L-290.3 -1064.1L-273 -1071.5L-255.5 -1078.6L-237.9 -1085.4L-220.2 -1091.9L-202.4 -1098.2L-184.6 -1104.2L-166.6 -1110L-148.6 -1115.5L-130.4 -1120.7L-112.2 -1125.6L-94 -1130.2L-75.6 -1134.6L-57.2 -1138.7L-38.8 -1142.5L-20.2 -1146.1L-1.7 -1149.3L17 -1152.3L35.6 -1155L54.3 -1157.4L73.1 -1159.5L91.8 -1161.4L110.6 -1163L129.4 -1164.2L148.3 -1165.2L167.1 -1166L185.9 -1166.4L204.8 -1166.5L223.7 -1166.4L242.5 -1166L261.3 -1165.2L280.2 -1164.2L299 -1163L317.8 -1161.4L336.5 -1159.5L355.3 -1157.4L374 -1155L392.6 -1152.3L411.3 -1149.3L429.8 -1146.1L448.4 -1142.5L466.8 -1138.7L485.2 -1134.6L503.6 -1130.2L521.8 -1125.6L540 -1120.7L558.2 -1115.5L576.2 -1110L594.2 -1104.2L612 -1098.2L629.8 -1091.9L647.5 -1085.4L665.1 -1078.6L682.6 -1071.5L699.9 -1064.1L717.2 -1056.5L734.3 -1048.7L751.3 -1040.5L768.2 -1032.2L785 -1023.5L801.6 -1014.6L818.1 -1005.5L834.5 -996.1L850.7 -986.5L866.7 -976.6L882.6 -966.5L898.4 -956.1L914 -945.5L929.4 -934.7L944.7 -923.6L959.8 -912.3L974.7 -900.8L989.5 -889.1L1004.1 -877.1L1018.5 -864.9L1032.7 -852.6L1046.7 -839.9L1060.5 -827.1L1074.1 -814.1L1087.6 -800.9L1100.8 -787.4L1113.8 -773.8L1126.7 -760L1139.3 -745.9L1151.7 -731.7L1163.8 -717.3L1175.8 -702.8L1187.6 -688L1199.1 -673.1L1210.4 -658L1221.4 -642.7L1232.2 -627.3L1242.8 -611.7L1253.2 -595.9L1263.3 -580L1273.2 -563.9L1282.8 -547.7L1292.2 -531.4L1301.4 -514.9L1310.2 -498.3L1318.9 -481.5L1327.3 -464.6L1335.4 -447.6L1343.3 -430.5L1350.9 -413.2L1358.2 -395.8L1365.3 -378.4L1372.1 -360.8L1378.7 -343.1L1385 -325.3L1391 -307.5L1396.7 -289.5L1402.2 -271.5L1407.4 -253.3L1412.3 -235.1L1417 -216.9L1421.3 -198.5L1425.4 -180.1L1429.3 -161.6L1432.8 -143.1L1436 -124.5L1439 -105.9L1441.7 -87.3L1444.1 -68.6L1446.3 -49.8L1448.1 -31.1L1449.7 -12.3L1451 6.5L1452 25.4L1452.7 44.2L1453.1 63.1L1453.2 81.9" fill="none" stroke="currentColor" stroke-width="0.75" stroke-linecap="round"/>
</svg>
