<svg xmlns="http://www.w3.org/2000/svg" viewBox="0 0 1024 1024" width="1024" height="1024" color="#000">
<path d="M0 -20L6 -18.4L12 -16.8L18 -15.2L24 -13.6L29.9 -12L35.9 -10.4L41.9 -8.8L47.9 -7.2L53.9 -5.6L59.9 -4L65.9 -2.4L71.9 -0.8L77.8 -0.8L83.8 -2.4L89.8 -4L95.8 -5.6L101.8 -7.1L107.8 -8.7L113.8 -10.3L119.8 -11.9L125.8 -13.5L131.7 -15.1L137.7 -16.7L143.7 -18.3L149.7 -19.9L155.7 -18.5L161.7 -16.9L167.7 -15.3L173.7 -13.7L179.6 -12.1L185.6 -10.5L191.6 -8.9L197.6 -7.3L203.6 -5.7L209.6 -4.1L215.6 -2.5L221.6 -0.9L227.6 -0.7L233.5 -2.3L239.5 -3.9L245.5 -5.5L251.5 -7.1L257.5 -8.7L263.5 -10.3L269.5 -11.9L275.5 -13.5L281.5 -15.1L287.4 -16.7L293.4 -18.2L299.4 -19.8L305.4 -18.6L311.4 -17L317.4 -15.4L323.4 -13.8L329.4 -12.2L335.3 -10.6L341.3 -9L347.3 -7.4L353.3 -5.8L359.3 -4.2L365.3 -2.6L371.3 -1L377.3 -0.6L383.3 -2.2L389.2 -3.8L395.2 -5.4L401.2 -7L407.2 -8.6L413.2 -10.2L419.2 -11.8L425.2 -13.4L431.2 -15L437.1 -16.6L443.1 -18.2L449.1 -19.8L455.1 -18.6L461.1 -17L467.1 -15.4L473.1 -13.8L479.1 -12.2L485.1 -10.7L491 -9.1L497 -7.5L503 -5.9L509 -4.3L515 -2.7L521 -1.1L527 -0.5L533 -2.1L538.9 -3.7L544.9 -5.3L550.9 -6.9L556.9 -8.5L562.9 -10.1L568.9 -11.7L574.9 -13.3L580.9 -14.9L586.9 -16.5L592.8 -18.1L598.8 -19.7L604.8 -18.7L610.8 -17.1L616.8 -15.5L622.8 -13.9L628.8 -12.3L634.8 -10.7L640.7 -9.1L646.7 -7.5L652.7 -5.9L658.7 -4.3L664.7 -2.7L670.7 -1.1L676.7 -0.4L682.7 -2L688.7 -3.6L694.6 -5.2L700.6 -6.8L706.6 -8.4L712.6 -10L718.6 -11.6L724.6 -13.2L730.6 -14.8L736.6 -16.4L742.5 -18L748.5 -19.6L754.5 -18.8L760.5 -17.2L766.5 -15.6L772.5 -14L778.5 -12.4L784.5 -10.8L790.5 -9.2L796.4 -7.6L802.4 -6L808.4 -4.4L814.4 -2.8L820.4 -1.2L826.4 -0.4L832.4 -2L838.4 -3.6L844.4 -5.2L850.3 -6.8L856.3 -8.4L862.3 -10L868.3 -11.5L874.3 -13.1L880.3 -14.7L886.3 -16.3L892.3 -17.9L898.2 -19.5L904.2 -18.9L910.2 -17.3L916.2 -15.7L922.2 -14.1L928.2 -12.5L934.2 -10.9L940.2 -9.3L946.2 -7.7L952.1 -6.1L958.1 -4.5L964.1 -2.9L970.1 -1.3L976.1 -0.3L982.1 -1.9L988.1 -3.5L994.1 -5.1L1000 -6.7L1006 -8.3L1012 -9.9L1018 -11.5L1024 -13.1" fill="none" stroke="currentColor" stroke-width="2" stroke-linecap="round"/>
<path d="M0 2.2L6 3.8L12 5.4L18 7L24 8.6L29.9 10.2L35.9 11.8L41.9 13.4L47.9 15L53.9 16.6L59.9 18.2L65.9 19.8L71.9 21.4L77.8 21.5L83.8 19.9L89.8 18.3L95.8 16.7L101.8 15.1L107.8 13.5L113.8 11.9L119.8 10.3L125.8 8.7L131.7 7.1L137.7 5.5L143.7 3.9L149.7 2.3L155.7 3.7L161.7 5.3L167.7 6.9L173.7 8.5L179.6 10.1L185.6 11.7L191.6 13.3L197.6 14.9L203.6 16.5L209.6 18.1L215.6 19.7L221.6 21.3L227.6 21.5L233.5 19.9L239.5 18.3L245.5 16.7L251.5 15.1L257.5 13.5L263.5 11.9L269.5 10.4L275.5 8.8L281.5 7.2L287.4 5.6L293.4 4L299.4 2.4L305.4 3.7L311.4 5.3L317.4 6.8L323.4 8.4L329.4 10L335.3 11.6L341.3 13.2L347.3 14.8L353.3 16.4L359.3 18L365.3 19.6L371.3 21.2L377.3 21.6L383.3 20L389.2 18.4L395.2 16.8L401.2 15.2L407.2 13.6L413.2 12L419.2 10.4L425.2 8.8L431.2 7.2L437.1 5.6L443.1 4L449.1 2.4L455.1 3.6L461.1 5.2L467.1 6.8L473.1 8.4L479.1 10L485.1 11.6L491 13.2L497 14.8L503 16.4L509 17.9L515 19.5L521 21.1L527 21.7L533 20.1L538.9 18.5L544.9 16.9L550.9 15.3L556.9 13.7L562.9 12.1L568.9 10.5L574.9 8.9L580.9 7.3L586.9 5.7L592.8 4.1L598.8 2.5L604.8 3.5L610.8 5.1L616.8 6.7L622.8 8.3L628.8 9.9L634.8 11.5L640.7 13.1L646.7 14.7L652.7 16.3L658.7 17.9L664.7 19.5L670.7 21.1L676.7 21.8L682.7 20.2L688.7 18.6L694.6 17L700.6 15.4L706.6 13.8L712.6 12.2L718.6 10.6L724.6 9L730.6 7.4L736.6 5.8L742.5 4.2L748.5 2.6L754.5 3.4L760.5 5L766.5 6.6L772.5 8.2L778.5 9.8L784.5 11.4L790.5 13L796.4 14.6L802.4 16.2L808.4 17.8L814.4 19.4L820.4 21L826.4 21.8L832.4 20.2L838.4 18.6L844.4 17.1L850.3 15.5L856.3 13.9L862.3 12.3L868.3 10.7L874.3 9.1L880.3 7.5L886.3 5.9L892.3 4.3L898.2 2.7L904.2 3.3L910.2 4.9L916.2 6.5L922.2 8.1L928.2 9.7L934.2 11.3L940.2 12.9L946.2 14.5L952.1 16.1L958.1 17.7L964.1 19.3L970.1 20.9L976.1 21.9L982.1 20.3L988.1 18.7L994.1 17.1L1000 15.5L1006 13.9L1012 12.3L1018 10.7L1024 9.1" fill="none" stroke="currentColor" stroke-width="2" stroke-linecap="round"/>
<path d="M0 24.4L6 26L12 27.6L18 29.2L24 30.8L29.9 32.4L35.9 34L41.9 35.6L47.9 37.2L53.9 38.8L59.9 40.4L65.9 42L71.9 43.6L77.8 43.7L83.8 42.1L89.8 40.5L95.8 38.9L101.8 37.3L107.8 35.7L113.8 34.1L119.8 32.5L125.8 30.9L131.7 29.3L137.7 27.7L143.7 26.1L149.7 24.5L155.7 25.9L161.7 27.5L167.7 29.1L173.7 30.7L179.6 32.3L185.6 33.9L191.6 35.5L197.6 37.1L203.6 38.7L209.6 40.3L215.6 41.9L221.6 43.5L227.6 43.7L233.5 42.1L239.5 40.6L245.5 39L251.5 37.4L257.5 35.8L263.5 34.2L269.5 32.6L275.5 31L281.5 29.4L287.4 27.8L293.4 26.2L299.4 24.6L305.4 25.9L311.4 27.5L317.4 29.1L323.4 30.7L329.4 32.3L335.3 33.9L341.3 35.4L347.3 37L353.3 38.6L359.3 40.2L365.3 41.8L371.3 43.4L377.3 43.8L383.3 42.2L389.2 40.6L395.2 39L401.2 37.4L407.2 35.8L413.2 34.2L419.2 32.6L425.2 31L431.2 29.5L437.1 27.9L443.1 26.3L449.1 24.7L455.1 25.8L461.1 27.4L467.1 29L473.1 30.6L479.1 32.2L485.1 33.8L491 35.4L497 37L503 38.6L509 40.2L515 41.8L521 43.4L527 43.9L533 42.3L538.9 40.7L544.9 39.1L550.9 37.5L556.9 35.9L562.9 34.3L568.9 32.7L574.9 31.1L580.9 29.5L586.9 27.9L592.8 26.3L598.8 24.7L604.8 25.7L610.8 27.3L616.8 28.9L622.8 30.5L628.8 32.1L634.8 33.7L640.7 35.3L646.7 36.9L652.7 38.5L658.7 40.1L664.7 41.7L670.7 43.3L676.7 44L682.7 42.4L688.7 40.8L694.6 39.2L700.6 37.6L706.6 36L712.6 34.4L718.6 32.8L724.6 31.2L730.6 29.6L736.6 28L742.5 26.4L748.5 24.8L754.5 25.6L760.5 27.2L766.5 28.8L772.5 30.4L778.5 32L784.5 33.6L790.5 35.2L796.4 36.8L802.4 38.4L808.4 40L814.4 41.6L820.4 43.2L826.4 44.1L832.4 42.5L838.4 40.9L844.4 39.3L850.3 37.7L856.3 36.1L862.3 34.5L868.3 32.9L874.3 31.3L880.3 29.7L886.3 28.1L892.3 26.5L898.2 24.9L904.2 25.6L910.2 27.2L916.2 28.7L922.2 30.3L928.2 31.9L934.2 33.5L940.2 35.1L946.2 36.7L952.1 38.3L958.1 39.9L964.1 41.5L970.1 43.1L976.1 44.1L982.1 42.5L988.1 40.9L994.1 39.3L1000 37.7L1006 36.1L1012 34.6L1018 33L1024 31.4" fill="none" stroke="currentColor" stroke-width="2" stroke-linecap="round"/>
<path d="M0 46.6L6 48.2L12 49.8L18 51.4L24 53L29.9 54.6L35.9 56.2L41.9 57.8L47.9 59.4L53.9 61L59.9 62.6L65.9 64.2L71.9 65.8L77.8 65.9L83.8 64.3L89.8 62.7L95.8 61.1L101.8 59.5L107.8 57.9L113.8 56.3L119.8 54.7L125.8 53.1L131.7 51.5L137.7 49.9L143.7 48.3L149.7 46.7L155.7 48.2L161.7 49.8L167.7 51.4L173.7 52.9L179.6 54.5L185.6 56.1L191.6 57.7L197.6 59.3L203.6 60.9L209.6 62.5L215.6 64.1L221.6 65.7L227.6 66L233.5 64.4L239.5 62.8L245.5 61.2L251.5 59.6L257.5 58L263.5 56.4L269.5 54.8L275.5 53.2L281.5 51.6L287.4 50L293.4 48.4L299.4 46.8L305.4 48.1L311.4 49.7L317.4 51.3L323.4 52.9L329.4 54.5L335.3 56.1L341.3 57.7L347.3 59.3L353.3 60.9L359.3 62.5L365.3 64L371.3 65.6L377.3 66L383.3 64.4L389.2 62.8L395.2 61.2L401.2 59.6L407.2 58.1L413.2 56.5L419.2 54.9L425.2 53.3L431.2 51.7L437.1 50.1L443.1 48.5L449.1 46.9L455.1 48L461.1 49.6L467.1 51.2L473.1 52.8L479.1 54.4L485.1 56L491 57.6L497 59.2L503 60.8L509 62.4L515 64L521 65.6L527 66.1L533 64.5L538.9 62.9L544.9 61.3L550.9 59.7L556.9 58.1L562.9 56.5L568.9 54.9L574.9 53.3L580.9 51.7L586.9 50.1L592.8 48.5L598.8 47L604.8 47.9L610.8 49.5L616.8 51.1L622.8 52.7L628.8 54.3L634.8 55.9L640.7 57.5L646.7 59.1L652.7 60.7L658.7 62.3L664.7 63.9L670.7 65.5L676.7 66.2L682.7 64.6L688.7 63L694.6 61.4L700.6 59.8L706.6 58.2L712.6 56.6L718.6 55L724.6 53.4L730.6 51.8L736.6 50.2L742.5 48.6L748.5 47L754.5 47.8L760.5 49.4L766.5 51L772.5 52.6L778.5 54.2L784.5 55.8L790.5 57.4L796.4 59L802.4 60.6L808.4 62.2L814.4 63.8L820.4 65.4L826.4 66.3L832.4 64.7L838.4 63.1L844.4 61.5L850.3 59.9L856.3 58.3L862.3 56.7L868.3 55.1L874.3 53.5L880.3 51.9L886.3 50.3L892.3 48.7L898.2 47.1L904.2 47.8L910.2 49.4L916.2 51L922.2 52.6L928.2 54.2L934.2 55.8L940.2 57.3L946.2 58.9L952.1 60.5L958.1 62.1L964.1 63.7L970.1 65.3L976.1 66.3L982.1 64.7L988.1 63.2L994.1 61.6L1000 60L1006 58.4L1012 56.8L1018 55.2L1024 53.6" fill="none" stroke="currentColor" stroke-width="2" stroke-linecap="round"/>
<path d="M0 68.9L6 70.4L12 72L18 73.6L24 75.2L29.9 76.8L35.9 78.4L41.9 80L47.9 81.6L53.9 83.2L59.9 84.8L65.9 86.4L71.9 88L77.8 88.1L83.8 86.5L89.8 84.9L95.8 83.3L101.8 81.7L107.8 80.1L113.8 78.5L119.8 76.9L125.8 75.3L131.7 73.7L137.7 72.1L143.7 70.5L149.7 68.9L155.7 70.4L161.7 72L167.7 73.6L173.7 75.2L179.6 76.8L185.6 78.4L191.6 80L197.6 81.5L203.6 83.1L209.6 84.7L215.6 86.3L221.6 87.9L227.6 88.2L233.5 86.6L239.5 85L245.5 83.4L251.5 81.8L257.5 80.2L263.5 78.6L269.5 77L275.5 75.4L281.5 73.8L287.4 72.2L293.4 70.6L299.4 69L305.4 70.3L311.4 71.9L317.4 73.5L323.4 75.1L329.4 76.7L335.3 78.3L341.3 79.9L347.3 81.5L353.3 83.1L359.3 84.7L365.3 86.3L371.3 87.9L377.3 88.2L383.3 86.7L389.2 85.1L395.2 83.5L401.2 81.9L407.2 80.3L413.2 78.7L419.2 77.1L425.2 75.5L431.2 73.9L437.1 72.3L443.1 70.7L449.1 69.1L455.1 70.2L461.1 71.8L467.1 73.4L473.1 75L479.1 76.6L485.1 78.2L491 79.8L497 81.4L503 83L509 84.6L515 86.2L521 87.8L527 88.3L533 86.7L538.9 85.1L544.9 83.5L550.9 81.9L556.9 80.3L562.9 78.7L568.9 77.1L574.9 75.6L580.9 74L586.9 72.4L592.8 70.8L598.8 69.2L604.8 70.1L610.8 71.7L616.8 73.3L622.8 74.9L628.8 76.5L634.8 78.1L640.7 79.7L646.7 81.3L652.7 82.9L658.7 84.5L664.7 86.1L670.7 87.7L676.7 88.4L682.7 86.8L688.7 85.2L694.6 83.6L700.6 82L706.6 80.4L712.6 78.8L718.6 77.2L724.6 75.6L730.6 74L736.6 72.4L742.5 70.8L748.5 69.2L754.5 70.1L760.5 71.7L766.5 73.3L772.5 74.8L778.5 76.4L784.5 78L790.5 79.6L796.4 81.2L802.4 82.8L808.4 84.4L814.4 86L820.4 87.6L826.4 88.5L832.4 86.9L838.4 85.3L844.4 83.7L850.3 82.1L856.3 80.5L862.3 78.9L868.3 77.3L874.3 75.7L880.3 74.1L886.3 72.5L892.3 70.9L898.2 69.3L904.2 70L910.2 71.6L916.2 73.2L922.2 74.8L928.2 76.4L934.2 78L940.2 79.6L946.2 81.2L952.1 82.8L958.1 84.4L964.1 85.9L970.1 87.5L976.1 88.6L982.1 87L988.1 85.4L994.1 83.8L1000 82.2L1006 80.6L1012 79L1018 77.4L1024 75.8" fill="none" stroke="currentColor" stroke-width="2" stroke-linecap="round"/>
<path d="M0 91.1L6 92.7L12 94.3L18 95.9L24 97.5L29.9 99L35.9 100.6L41.9 102.2L47.9 103.8L53.9 105.4L59.9 107L65.9 108.6L71.9 110.2L77.8 110.3L83.8 108.7L89.8 107.1L95.8 105.5L101.8 103.9L107.8 102.3L113.8 100.7L119.8 99.1L125.8 97.5L131.7 95.9L137.7 94.3L143.7 92.7L149.7 91.1L155.7 92.6L161.7 94.2L167.7 95.8L173.7 97.4L179.6 99L185.6 100.6L191.6 102.2L197.6 103.8L203.6 105.4L209.6 107L215.6 108.6L221.6 110.1L227.6 110.4L233.5 108.8L239.5 107.2L245.5 105.6L251.5 104L257.5 102.4L263.5 100.8L269.5 99.2L275.5 97.6L281.5 96L287.4 94.4L293.4 92.8L299.4 91.2L305.4 92.5L311.4 94.1L317.4 95.7L323.4 97.3L329.4 98.9L335.3 100.5L341.3 102.1L347.3 103.7L353.3 105.3L359.3 106.9L365.3 108.5L371.3 110.1L377.3 110.5L383.3 108.9L389.2 107.3L395.2 105.7L401.2 104.1L407.2 102.5L413.2 100.9L419.2 99.3L425.2 97.7L431.2 96.1L437.1 94.5L443.1 92.9L449.1 91.3L455.1 92.4L461.1 94L467.1 95.6L473.1 97.2L479.1 98.8L485.1 100.4L491 102L497 103.6L503 105.2L509 106.8L515 108.4L521 110L527 110.5L533 108.9L538.9 107.3L544.9 105.7L550.9 104.2L556.9 102.6L562.9 101L568.9 99.4L574.9 97.8L580.9 96.2L586.9 94.6L592.8 93L598.8 91.4L604.8 92.3L610.8 93.9L616.8 95.5L622.8 97.1L628.8 98.7L634.8 100.3L640.7 101.9L646.7 103.5L652.7 105.1L658.7 106.7L664.7 108.3L670.7 109.9L676.7 110.6L682.7 109L688.7 107.4L694.6 105.8L700.6 104.2L706.6 102.6L712.6 101L718.6 99.4L724.6 97.8L730.6 96.2L736.6 94.6L742.5 93.1L748.5 91.5L754.5 92.3L760.5 93.9L766.5 95.5L772.5 97.1L778.5 98.7L784.5 100.3L790.5 101.9L796.4 103.4L802.4 105L808.4 106.6L814.4 108.2L820.4 109.8L826.4 110.7L832.4 109.1L838.4 107.5L844.4 105.9L850.3 104.3L856.3 102.7L862.3 101.1L868.3 99.5L874.3 97.9L880.3 96.3L886.3 94.7L892.3 93.1L898.2 91.5L904.2 92.2L910.2 93.8L916.2 95.4L922.2 97L928.2 98.6L934.2 100.2L940.2 101.8L946.2 103.4L952.1 105L958.1 106.6L964.1 108.2L970.1 109.8L976.1 110.8L982.1 109.2L988.1 107.6L994.1 106L1000 104.4L1006 102.8L1012 101.2L1018 99.6L1024 98" fill="none" stroke="currentColor" stroke-width="2" stroke-linecap="round"/>
<path d="M0 113.3L6 114.9L12 116.5L18 118.1L24 119.7L29.9 121.3L35.9 122.9L41.9 124.5L47.9 126.1L53.9 127.6L59.9 129.2L65.9 130.8L71.9 132.4L77.8 132.5L83.8 130.9L89.8 129.3L95.8 127.7L101.8 126.1L107.8 124.5L113.8 122.9L119.8 121.3L125.8 119.7L131.7 118.1L137.7 116.5L143.7 115L149.7 113.4L155.7 114.8L161.7 116.4L167.7 118L173.7 119.6L179.6 121.2L185.6 122.8L191.6 124.4L197.6 126L203.6 127.6L209.6 129.2L215.6 130.8L221.6 132.4L227.6 132.6L233.5 131L239.5 129.4L245.5 127.8L251.5 126.2L257.5 124.6L263.5 123L269.5 121.4L275.5 119.8L281.5 118.2L287.4 116.6L293.4 115L299.4 113.4L305.4 114.7L311.4 116.3L317.4 117.9L323.4 119.5L329.4 121.1L335.3 122.7L341.3 124.3L347.3 125.9L353.3 127.5L359.3 129.1L365.3 130.7L371.3 132.3L377.3 132.7L383.3 131.1L389.2 129.5L395.2 127.9L401.2 126.3L407.2 124.7L413.2 123.1L419.2 121.5L425.2 119.9L431.2 118.3L437.1 116.7L443.1 115.1L449.1 113.5L455.1 114.6L461.1 116.2L467.1 117.8L473.1 119.4L479.1 121L485.1 122.6L491 124.2L497 125.8L503 127.4L509 129L515 130.6L521 132.2L527 132.8L533 131.2L538.9 129.6L544.9 128L550.9 126.4L556.9 124.8L562.9 123.2L568.9 121.6L574.9 120L580.9 118.4L586.9 116.8L592.8 115.2L598.8 113.6L604.8 114.6L610.8 116.2L616.8 117.8L622.8 119.4L628.8 120.9L634.8 122.5L640.7 124.1L646.7 125.7L652.7 127.3L658.7 128.9L664.7 130.5L670.7 132.1L676.7 132.8L682.7 131.2L688.7 129.6L694.6 128L700.6 126.4L706.6 124.8L712.6 123.2L718.6 121.7L724.6 120.1L730.6 118.5L736.6 116.9L742.5 115.3L748.5 113.7L754.5 114.5L760.5 116.1L766.5 117.7L772.5 119.3L778.5 120.9L784.5 122.5L790.5 124.1L796.4 125.7L802.4 127.3L808.4 128.9L814.4 130.5L820.4 132L826.4 132.9L832.4 131.3L838.4 129.7L844.4 128.1L850.3 126.5L856.3 124.9L862.3 123.3L868.3 121.7L874.3 120.1L880.3 118.5L886.3 116.9L892.3 115.3L898.2 113.7L904.2 114.4L910.2 116L916.2 117.6L922.2 119.2L928.2 120.8L934.2 122.4L940.2 124L946.2 125.6L952.1 127.2L958.1 128.8L964.1 130.4L970.1 132L976.1 133L982.1 131.4L988.1 129.8L994.1 128.2L1000 126.6L1006 125L1012 123.4L1018 121.8L1024 120.2" fill="none" stroke="currentColor" stroke-width="2" stroke-linecap="round"/>
<path d="M0 135.5L6 137.1L12 138.7L18 140.3L24 141.9L29.9 143.5L35.9 145.1L41.9 146.7L47.9 148.3L53.9 149.9L59.9 151.5L65.9 153.1L71.9 154.7L77.8 154.7L83.8 153.1L89.8 151.5L95.8 149.9L101.8 148.3L107.8 146.7L113.8 145.1L119.8 143.6L125.8 142L131.7 140.4L137.7 138.8L143.7 137.2L149.7 135.6L155.7 137L161.7 138.6L167.7 140.2L173.7 141.8L179.6 143.4L185.6 145L191.6 146.6L197.6 148.2L203.6 149.8L209.6 151.4L215.6 153L221.6 154.6L227.6 154.8L233.5 153.2L239.5 151.6L245.5 150L251.5 148.4L257.5 146.8L263.5 145.2L269.5 143.6L275.5 142L281.5 140.4L287.4 138.8L293.4 137.2L299.4 135.6L305.4 136.9L311.4 138.5L317.4 140.1L323.4 141.7L329.4 143.3L335.3 144.9L341.3 146.5L347.3 148.1L353.3 149.7L359.3 151.3L365.3 152.9L371.3 154.5L377.3 154.9L383.3 153.3L389.2 151.7L395.2 150.1L401.2 148.5L407.2 146.9L413.2 145.3L419.2 143.7L425.2 142.1L431.2 140.5L437.1 138.9L443.1 137.3L449.1 135.7L455.1 136.9L461.1 138.4L467.1 140L473.1 141.6L479.1 143.2L485.1 144.8L491 146.4L497 148L503 149.6L509 151.2L515 152.8L521 154.4L527 155L533 153.4L538.9 151.8L544.9 150.2L550.9 148.6L556.9 147L562.9 145.4L568.9 143.8L574.9 142.2L580.9 140.6L586.9 139L592.8 137.4L598.8 135.8L604.8 136.8L610.8 138.4L616.8 140L622.8 141.6L628.8 143.2L634.8 144.8L640.7 146.4L646.7 148L652.7 149.5L658.7 151.1L664.7 152.7L670.7 154.3L676.7 155L682.7 153.4L688.7 151.8L694.6 150.3L700.6 148.7L706.6 147.1L712.6 145.5L718.6 143.9L724.6 142.3L730.6 140.7L736.6 139.1L742.5 137.5L748.5 135.9L754.5 136.7L760.5 138.3L766.5 139.9L772.5 141.5L778.5 143.1L784.5 144.7L790.5 146.3L796.4 147.9L802.4 149.5L808.4 151.1L814.4 152.7L820.4 154.3L826.4 155.1L832.4 153.5L838.4 151.9L844.4 150.3L850.3 148.7L856.3 147.1L862.3 145.5L868.3 143.9L874.3 142.3L880.3 140.7L886.3 139.2L892.3 137.6L898.2 136L904.2 136.6L910.2 138.2L916.2 139.8L922.2 141.4L928.2 143L934.2 144.6L940.2 146.2L946.2 147.8L952.1 149.4L958.1 151L964.1 152.6L970.1 154.2L976.1 155.2L982.1 153.6L988.1 152L994.1 150.4L1000 148.8L1006 147.2L1012 145.6L1018 144L1024 142.4" fill="none" stroke="currentColor" stroke-width="2" stroke-linecap="round"/>
<path d="M0 157.7L6 159.3L12 160.9L18 162.5L24 164.1L29.9 165.7L35.9 167.3L41.9 168.9L47.9 170.5L53.9 172.1L59.9 173.7L65.9 175.3L71.9 176.9L77.8 176.9L83.8 175.3L89.8 173.7L95.8 172.2L101.8 170.6L107.8 169L113.8 167.4L119.8 165.8L125.8 164.2L131.7 162.6L137.7 161L143.7 159.4L149.7 157.8L155.7 159.2L161.7 160.8L167.7 162.4L173.7 164L179.6 165.6L185.6 167.2L191.6 168.8L197.6 170.4L203.6 172L209.6 173.6L215.6 175.2L221.6 176.8L227.6 177L233.5 175.4L239.5 173.8L245.5 172.2L251.5 170.6L257.5 169L263.5 167.4L269.5 165.8L275.5 164.2L281.5 162.6L287.4 161.1L293.4 159.5L299.4 157.9L305.4 159.1L311.4 160.7L317.4 162.3L323.4 163.9L329.4 165.5L335.3 167.1L341.3 168.7L347.3 170.3L353.3 171.9L359.3 173.5L365.3 175.1L371.3 176.7L377.3 177.1L383.3 175.5L389.2 173.9L395.2 172.3L401.2 170.7L407.2 169.1L413.2 167.5L419.2 165.9L425.2 164.3L431.2 162.7L437.1 161.1L443.1 159.5L449.1 157.9L455.1 159.1L461.1 160.7L467.1 162.3L473.1 163.9L479.1 165.5L485.1 167L491 168.6L497 170.2L503 171.8L509 173.4L515 175L521 176.6L527 177.2L533 175.6L538.9 174L544.9 172.4L550.9 170.8L556.9 169.2L562.9 167.6L568.9 166L574.9 164.4L580.9 162.8L586.9 161.2L592.8 159.6L598.8 158L604.8 159L610.8 160.6L616.8 162.2L622.8 163.8L628.8 165.4L634.8 167L640.7 168.6L646.7 170.2L652.7 171.8L658.7 173.4L664.7 175L670.7 176.6L676.7 177.3L682.7 175.7L688.7 174.1L694.6 172.5L700.6 170.9L706.6 169.3L712.6 167.7L718.6 166.1L724.6 164.5L730.6 162.9L736.6 161.3L742.5 159.7L748.5 158.1L754.5 158.9L760.5 160.5L766.5 162.1L772.5 163.7L778.5 165.3L784.5 166.9L790.5 168.5L796.4 170.1L802.4 171.7L808.4 173.3L814.4 174.9L820.4 176.5L826.4 177.3L832.4 175.7L838.4 174.1L844.4 172.5L850.3 170.9L856.3 169.3L862.3 167.8L868.3 166.2L874.3 164.6L880.3 163L886.3 161.4L892.3 159.8L898.2 158.2L904.2 158.8L910.2 160.4L916.2 162L922.2 163.6L928.2 165.2L934.2 166.8L940.2 168.4L946.2 170L952.1 171.6L958.1 173.2L964.1 174.8L970.1 176.4L976.1 177.4L982.1 175.8L988.1 174.2L994.1 172.6L1000 171L1006 169.4L1012 167.8L1018 166.2L1024 164.6" fill="none" stroke="currentColor" stroke-width="2" stroke-linecap="round"/>
<path d="M0 179.9L6 181.5L12 183.1L18 184.7L24 186.3L29.9 187.9L35.9 189.5L41.9 191.1L47.9 192.7L53.9 194.3L59.9 195.9L65.9 197.5L71.9 199.1L77.8 199.2L83.8 197.6L89.8 196L95.8 194.4L101.8 192.8L107.8 191.2L113.8 189.6L119.8 188L125.8 186.4L131.7 184.8L137.7 183.2L143.7 181.6L149.7 180L155.7 181.4L161.7 183L167.7 184.6L173.7 186.2L179.6 187.8L185.6 189.4L191.6 191L197.6 192.6L203.6 194.2L209.6 195.8L215.6 197.4L221.6 199L227.6 199.2L233.5 197.6L239.5 196L245.5 194.4L251.5 192.8L257.5 191.2L263.5 189.7L269.5 188.1L275.5 186.5L281.5 184.9L287.4 183.3L293.4 181.7L299.4 180.1L305.4 181.4L311.4 183L317.4 184.5L323.4 186.1L329.4 187.7L335.3 189.3L341.3 190.9L347.3 192.5L353.3 194.1L359.3 195.7L365.3 197.3L371.3 198.9L377.3 199.3L383.3 197.7L389.2 196.1L395.2 194.5L401.2 192.9L407.2 191.3L413.2 189.7L419.2 188.1L425.2 186.5L431.2 184.9L437.1 183.3L443.1 181.7L449.1 180.1L455.1 181.3L461.1 182.9L467.1 184.5L473.1 186.1L479.1 187.7L485.1 189.3L491 190.9L497 192.5L503 194.1L509 195.6L515 197.2L521 198.8L527 199.4L533 197.8L538.9 196.2L544.9 194.6L550.9 193L556.9 191.4L562.9 189.8L568.9 188.2L574.9 186.6L580.9 185L586.9 183.4L592.8 181.8L598.8 180.2L604.8 181.2L610.8 182.8L616.8 184.4L622.8 186L628.8 187.6L634.8 189.2L640.7 190.8L646.7 192.4L652.7 194L658.7 195.6L664.7 197.2L670.7 198.8L676.7 199.5L682.7 197.9L688.7 196.3L694.6 194.7L700.6 193.1L706.6 191.5L712.6 189.9L718.6 188.3L724.6 186.7L730.6 185.1L736.6 183.5L742.5 181.9L748.5 180.3L754.5 181.1L760.5 182.7L766.5 184.3L772.5 185.9L778.5 187.5L784.5 189.1L790.5 190.7L796.4 192.3L802.4 193.9L808.4 195.5L814.4 197.1L820.4 198.7L826.4 199.5L832.4 197.9L838.4 196.4L844.4 194.8L850.3 193.2L856.3 191.6L862.3 190L868.3 188.4L874.3 186.8L880.3 185.2L886.3 183.6L892.3 182L898.2 180.4L904.2 181L910.2 182.6L916.2 184.2L922.2 185.8L928.2 187.4L934.2 189L940.2 190.6L946.2 192.2L952.1 193.8L958.1 195.4L964.1 197L970.1 198.6L976.1 199.6L982.1 198L988.1 196.4L994.1 194.8L1000 193.2L1006 191.6L1012 190L1018 188.4L1024 186.8" fill="none" stroke="currentColor" stroke-width="2" stroke-linecap="round"/>
<path d="M0 202.1L6 203.7L12 205.3L18 206.9L24 208.5L29.9 210.1L35.9 211.7L41.9 213.3L47.9 214.9L53.9 216.5L59.9 218.1L65.9 219.7L71.9 221.3L77.8 221.4L83.8 219.8L89.8 218.2L95.8 216.6L101.8 215L107.8 213.4L113.8 211.8L119.8 210.2L125.8 208.6L131.7 207L137.7 205.4L143.7 203.8L149.7 202.2L155.7 203.6L161.7 205.2L167.7 206.8L173.7 208.4L179.6 210L185.6 211.6L191.6 213.2L197.6 214.8L203.6 216.4L209.6 218L215.6 219.6L221.6 221.2L227.6 221.4L233.5 219.8L239.5 218.3L245.5 216.7L251.5 215.1L257.5 213.5L263.5 211.9L269.5 210.3L275.5 208.7L281.5 207.1L287.4 205.5L293.4 203.9L299.4 202.3L305.4 203.6L311.4 205.2L317.4 206.8L323.4 208.4L329.4 210L335.3 211.6L341.3 213.1L347.3 214.7L353.3 216.3L359.3 217.9L365.3 219.5L371.3 221.1L377.3 221.5L383.3 219.9L389.2 218.3L395.2 216.7L401.2 215.1L407.2 213.5L413.2 211.9L419.2 210.3L425.2 208.7L431.2 207.2L437.1 205.6L443.1 204L449.1 202.4L455.1 203.5L461.1 205.1L467.1 206.7L473.1 208.3L479.1 209.9L485.1 211.5L491 213.1L497 214.7L503 216.3L509 217.9L515 219.5L521 221.1L527 221.6L533 220L538.9 218.4L544.9 216.8L550.9 215.2L556.9 213.6L562.9 212L568.9 210.4L574.9 208.8L580.9 207.2L586.9 205.6L592.8 204L598.8 202.4L604.8 203.4L610.8 205L616.8 206.6L622.8 208.2L628.8 209.8L634.8 211.4L640.7 213L646.7 214.6L652.7 216.2L658.7 217.8L664.7 219.4L670.7 221L676.7 221.7L682.7 220.1L688.7 218.5L694.6 216.9L700.6 215.3L706.6 213.7L712.6 212.1L718.6 210.5L724.6 208.9L730.6 207.3L736.6 205.7L742.5 204.1L748.5 202.5L754.5 203.3L760.5 204.9L766.5 206.5L772.5 208.1L778.5 209.7L784.5 211.3L790.5 212.9L796.4 214.5L802.4 216.1L808.4 217.7L814.4 219.3L820.4 220.9L826.4 221.8L832.4 220.2L838.4 218.6L844.4 217L850.3 215.4L856.3 213.8L862.3 212.2L868.3 210.6L874.3 209L880.3 207.4L886.3 205.8L892.3 204.2L898.2 202.6L904.2 203.3L910.2 204.9L916.2 206.5L922.2 208L928.2 209.6L934.2 211.2L940.2 212.8L946.2 214.4L952.1 216L958.1 217.6L964.1 219.2L970.1 220.8L976.1 221.8L982.1 220.2L988.1 218.6L994.1 217L1000 215.4L1006 213.9L1012 212.3L1018 210.7L1024 209.1" fill="none" stroke="currentColor" stroke-width="2" stroke-linecap="round"/>
<path d="M0 224.3L6 225.9L12 227.5L18 229.1L24 230.7L29.9 232.3L35.9 233.9L41.9 235.5L47.9 237.1L53.9 238.7L59.9 240.3L65.9 241.9L71.9 243.5L77.8 243.6L83.8 242L89.8 240.4L95.8 238.8L101.8 237.2L107.8 235.6L113.8 234L119.8 232.4L125.8 230.8L131.7 229.2L137.7 227.6L143.7 226L149.7 224.4L155.7 225.9L161.7 227.5L167.7 229.1L173.7 230.6L179.6 232.2L185.6 233.8L191.6 235.4L197.6 237L203.6 238.6L209.6 240.2L215.6 241.8L221.6 243.4L227.6 243.7L233.5 242.1L239.5 240.5L245.5 238.9L251.5 237.3L257.5 235.7L263.5 234.1L269.5 232.5L275.5 230.9L281.5 229.3L287.4 227.7L293.4 226.1L299.4 224.5L305.4 225.8L311.4 227.4L317.4 229L323.4 230.6L329.4 232.2L335.3 233.8L341.3 235.4L347.3 237L353.3 238.6L359.3 240.2L365.3 241.8L371.3 243.3L377.3 243.7L383.3 242.1L389.2 240.5L395.2 238.9L401.2 237.3L407.2 235.8L413.2 234.2L419.2 232.6L425.2 231L431.2 229.4L437.1 227.8L443.1 226.2L449.1 224.6L455.1 225.7L461.1 227.3L467.1 228.9L473.1 230.5L479.1 232.1L485.1 233.7L491 235.3L497 236.9L503 238.5L509 240.1L515 241.7L521 243.3L527 243.8L533 242.2L538.9 240.6L544.9 239L550.9 237.4L556.9 235.8L562.9 234.2L568.9 232.6L574.9 231L580.9 229.4L586.9 227.8L592.8 226.2L598.8 224.7L604.8 225.6L610.8 227.2L616.8 228.8L622.8 230.4L628.8 232L634.8 233.6L640.7 235.2L646.7 236.8L652.7 238.4L658.7 240L664.7 241.6L670.7 243.2L676.7 243.9L682.7 242.3L688.7 240.7L694.6 239.1L700.6 237.5L706.6 235.9L712.6 234.3L718.6 232.7L724.6 231.1L730.6 229.5L736.6 227.9L742.5 226.3L748.5 224.7L754.5 225.5L760.5 227.1L766.5 228.7L772.5 230.3L778.5 231.9L784.5 233.5L790.5 235.1L796.4 236.7L802.4 238.3L808.4 239.9L814.4 241.5L820.4 243.1L826.4 244L832.4 242.4L838.4 240.8L844.4 239.2L850.3 237.6L856.3 236L862.3 234.4L868.3 232.8L874.3 231.2L880.3 229.6L886.3 228L892.3 226.4L898.2 224.8L904.2 225.5L910.2 227.1L916.2 228.7L922.2 230.3L928.2 231.9L934.2 233.5L940.2 235.1L946.2 236.6L952.1 238.2L958.1 239.8L964.1 241.4L970.1 243L976.1 244L982.1 242.5L988.1 240.9L994.1 239.3L1000 237.7L1006 236.1L1012 234.5L1018 232.9L1024 231.3" fill="none" stroke="currentColor" stroke-width="2" stroke-linecap="round"/>
<path d="M0 246.6L6 248.2L12 249.7L18 251.3L24 252.9L29.9 254.5L35.9 256.1L41.9 257.7L47.9 259.3L53.9 260.9L59.9 262.5L65.9 264.1L71.9 265.7L77.8 265.8L83.8 264.2L89.8 262.6L95.8 261L101.8 259.4L107.8 257.8L113.8 256.2L119.8 254.6L125.8 253L131.7 251.4L137.7 249.8L143.7 248.2L149.7 246.6L155.7 248.1L161.7 249.7L167.7 251.3L173.7 252.9L179.6 254.5L185.6 256.1L191.6 257.7L197.6 259.3L203.6 260.8L209.6 262.4L215.6 264L221.6 265.6L227.6 265.9L233.5 264.3L239.5 262.7L245.5 261.1L251.5 259.5L257.5 257.9L263.5 256.3L269.5 254.7L275.5 253.1L281.5 251.5L287.4 249.9L293.4 248.3L299.4 246.7L305.4 248L311.4 249.6L317.4 251.2L323.4 252.8L329.4 254.4L335.3 256L341.3 257.6L347.3 259.2L353.3 260.8L359.3 262.4L365.3 264L371.3 265.6L377.3 265.9L383.3 264.4L389.2 262.8L395.2 261.2L401.2 259.6L407.2 258L413.2 256.4L419.2 254.8L425.2 253.2L431.2 251.6L437.1 250L443.1 248.4L449.1 246.8L455.1 247.9L461.1 249.5L467.1 251.1L473.1 252.7L479.1 254.3L485.1 255.9L491 257.5L497 259.1L503 260.7L509 262.3L515 263.9L521 265.5L527 266L533 264.4L538.9 262.8L544.9 261.2L550.9 259.6L556.9 258L562.9 256.4L568.9 254.8L574.9 253.3L580.9 251.7L586.9 250.1L592.8 248.5L598.8 246.9L604.8 247.8L610.8 249.4L616.8 251L622.8 252.6L628.8 254.2L634.8 255.8L640.7 257.4L646.7 259L652.7 260.6L658.7 262.2L664.7 263.8L670.7 265.4L676.7 266.1L682.7 264.5L688.7 262.9L694.6 261.3L700.6 259.7L706.6 258.1L712.6 256.5L718.6 254.9L724.6 253.3L730.6 251.7L736.6 250.1L742.5 248.5L748.5 246.9L754.5 247.8L760.5 249.4L766.5 251L772.5 252.6L778.5 254.1L784.5 255.7L790.5 257.3L796.4 258.9L802.4 260.5L808.4 262.1L814.4 263.7L820.4 265.3L826.4 266.2L832.4 264.6L838.4 263L844.4 261.4L850.3 259.8L856.3 258.2L862.3 256.6L868.3 255L874.3 253.4L880.3 251.8L886.3 250.2L892.3 248.6L898.2 247L904.2 247.7L910.2 249.3L916.2 250.9L922.2 252.5L928.2 254.1L934.2 255.7L940.2 257.3L946.2 258.9L952.1 260.5L958.1 262.1L964.1 263.7L970.1 265.2L976.1 266.3L982.1 264.7L988.1 263.1L994.1 261.5L1000 259.9L1006 258.3L1012 256.7L1018 255.1L1024 253.5" fill="none" stroke="currentColor" stroke-width="2" stroke-linecap="round"/>
<path d="M0 268.8L6 270.4L12 272L18 273.6L24 275.2L29.9 276.8L35.9 278.3L41.9 279.9L47.9 281.5L53.9 283.1L59.9 284.7L65.9 286.3L71.9 287.9L77.8 288L83.8 286.4L89.8 284.8L95.8 283.2L101.8 281.6L107.8 280L113.8 278.4L119.8 276.8L125.8 275.2L131.7 273.6L137.7 272L143.7 270.4L149.7 268.8L155.7 270.3L161.7 271.9L167.7 273.5L173.7 275.1L179.6 276.7L185.6 278.3L191.6 279.9L197.6 281.5L203.6 283.1L209.6 284.7L215.6 286.3L221.6 287.9L227.6 288.1L233.5 286.5L239.5 284.9L245.5 283.3L251.5 281.7L257.5 280.1L263.5 278.5L269.5 276.9L275.5 275.3L281.5 273.7L287.4 272.1L293.4 270.5L299.4 268.9L305.4 270.2L311.4 271.8L317.4 273.4L323.4 275L329.4 276.6L335.3 278.2L341.3 279.8L347.3 281.4L353.3 283L359.3 284.6L365.3 286.2L371.3 287.8L377.3 288.2L383.3 286.6L389.2 285L395.2 283.4L401.2 281.8L407.2 280.2L413.2 278.6L419.2 277L425.2 275.4L431.2 273.8L437.1 272.2L443.1 270.6L449.1 269L455.1 270.1L461.1 271.7L467.1 273.3L473.1 274.9L479.1 276.5L485.1 278.1L491 279.7L497 281.3L503 282.9L509 284.5L515 286.1L521 287.7L527 288.2L533 286.6L538.9 285L544.9 283.4L550.9 281.9L556.9 280.3L562.9 278.7L568.9 277.1L574.9 275.5L580.9 273.9L586.9 272.3L592.8 270.7L598.8 269.1L604.8 270.1L610.8 271.6L616.8 273.2L622.8 274.8L628.8 276.4L634.8 278L640.7 279.6L646.7 281.2L652.7 282.8L658.7 284.4L664.7 286L670.7 287.6L676.7 288.3L682.7 286.7L688.7 285.1L694.6 283.5L700.6 281.9L706.6 280.3L712.6 278.7L718.6 277.1L724.6 275.5L730.6 273.9L736.6 272.3L742.5 270.8L748.5 269.2L754.5 270L760.5 271.6L766.5 273.2L772.5 274.8L778.5 276.4L784.5 278L790.5 279.6L796.4 281.2L802.4 282.7L808.4 284.3L814.4 285.9L820.4 287.5L826.4 288.4L832.4 286.8L838.4 285.2L844.4 283.6L850.3 282L856.3 280.4L862.3 278.8L868.3 277.2L874.3 275.6L880.3 274L886.3 272.4L892.3 270.8L898.2 269.2L904.2 269.9L910.2 271.5L916.2 273.1L922.2 274.7L928.2 276.3L934.2 277.9L940.2 279.5L946.2 281.1L952.1 282.7L958.1 284.3L964.1 285.9L970.1 287.5L976.1 288.5L982.1 286.9L988.1 285.3L994.1 283.7L1000 282.1L1006 280.5L1012 278.9L1018 277.3L1024 275.7" fill="none" stroke="currentColor" stroke-width="2" stroke-linecap="round"/>
<path d="M0 291L6 292.6L12 294.2L18 295.8L24 297.4L29.9 299L35.9 300.6L41.9 302.2L47.9 303.8L53.9 305.4L59.9 306.9L65.9 308.5L71.9 310.1L77.8 310.2L83.8 308.6L89.8 307L95.8 305.4L101.8 303.8L107.8 302.2L113.8 300.6L119.8 299L125.8 297.4L131.7 295.8L137.7 294.3L143.7 292.7L149.7 291.1L155.7 292.5L161.7 294.1L167.7 295.7L173.7 297.3L179.6 298.9L185.6 300.5L191.6 302.1L197.6 303.7L203.6 305.3L209.6 306.9L215.6 308.5L221.6 310.1L227.6 310.3L233.5 308.7L239.5 307.1L245.5 305.5L251.5 303.9L257.5 302.3L263.5 300.7L269.5 299.1L275.5 297.5L281.5 295.9L287.4 294.3L293.4 292.7L299.4 291.1L305.4 292.4L311.4 294L317.4 295.6L323.4 297.2L329.4 298.8L335.3 300.4L341.3 302L347.3 303.6L353.3 305.2L359.3 306.8L365.3 308.4L371.3 310L377.3 310.4L383.3 308.8L389.2 307.2L395.2 305.6L401.2 304L407.2 302.4L413.2 300.8L419.2 299.2L425.2 297.6L431.2 296L437.1 294.4L443.1 292.8L449.1 291.2L455.1 292.3L461.1 293.9L467.1 295.5L473.1 297.1L479.1 298.7L485.1 300.3L491 301.9L497 303.5L503 305.1L509 306.7L515 308.3L521 309.9L527 310.5L533 308.9L538.9 307.3L544.9 305.7L550.9 304.1L556.9 302.5L562.9 300.9L568.9 299.3L574.9 297.7L580.9 296.1L586.9 294.5L592.8 292.9L598.8 291.3L604.8 292.3L610.8 293.9L616.8 295.5L622.8 297.1L628.8 298.7L634.8 300.2L640.7 301.8L646.7 303.4L652.7 305L658.7 306.6L664.7 308.2L670.7 309.8L676.7 310.5L682.7 308.9L688.7 307.3L694.6 305.7L700.6 304.1L706.6 302.5L712.6 300.9L718.6 299.4L724.6 297.8L730.6 296.2L736.6 294.6L742.5 293L748.5 291.4L754.5 292.2L760.5 293.8L766.5 295.4L772.5 297L778.5 298.6L784.5 300.2L790.5 301.8L796.4 303.4L802.4 305L808.4 306.6L814.4 308.2L820.4 309.8L826.4 310.6L832.4 309L838.4 307.4L844.4 305.8L850.3 304.2L856.3 302.6L862.3 301L868.3 299.4L874.3 297.8L880.3 296.2L886.3 294.6L892.3 293L898.2 291.4L904.2 292.1L910.2 293.7L916.2 295.3L922.2 296.9L928.2 298.5L934.2 300.1L940.2 301.7L946.2 303.3L952.1 304.9L958.1 306.5L964.1 308.1L970.1 309.7L976.1 310.7L982.1 309.1L988.1 307.5L994.1 305.9L1000 304.3L1006 302.7L1012 301.1L1018 299.5L1024 297.9" fill="none" stroke="currentColor" stroke-width="2" stroke-linecap="round"/>
<path d="M0 313.2L6 314.8L12 316.4L18 318L24 319.6L29.9 321.2L35.9 322.8L41.9 324.4L47.9 326L53.9 327.6L59.9 329.2L65.9 330.8L71.9 332.4L77.8 332.4L83.8 330.8L89.8 329.2L95.8 327.6L101.8 326L107.8 324.4L113.8 322.9L119.8 321.3L125.8 319.7L131.7 318.1L137.7 316.5L143.7 314.9L149.7 313.3L155.7 314.7L161.7 316.3L167.7 317.9L173.7 319.5L179.6 321.1L185.6 322.7L191.6 324.3L197.6 325.9L203.6 327.5L209.6 329.1L215.6 330.7L221.6 332.3L227.6 332.5L233.5 330.9L239.5 329.3L245.5 327.7L251.5 326.1L257.5 324.5L263.5 322.9L269.5 321.3L275.5 319.7L281.5 318.1L287.4 316.5L293.4 314.9L299.4 313.3L305.4 314.6L311.4 316.2L317.4 317.8L323.4 319.4L329.4 321L335.3 322.6L341.3 324.2L347.3 325.8L353.3 327.4L359.3 329L365.3 330.6L371.3 332.2L377.3 332.6L383.3 331L389.2 329.4L395.2 327.8L401.2 326.2L407.2 324.6L413.2 323L419.2 321.4L425.2 319.8L431.2 318.2L437.1 316.6L443.1 315L449.1 313.4L455.1 314.6L461.1 316.2L467.1 317.7L473.1 319.3L479.1 320.9L485.1 322.5L491 324.1L497 325.7L503 327.3L509 328.9L515 330.5L521 332.1L527 332.7L533 331.1L538.9 329.5L544.9 327.9L550.9 326.3L556.9 324.7L562.9 323.1L568.9 321.5L574.9 319.9L580.9 318.3L586.9 316.7L592.8 315.1L598.8 313.5L604.8 314.5L610.8 316.1L616.8 317.7L622.8 319.3L628.8 320.9L634.8 322.5L640.7 324.1L646.7 325.7L652.7 327.3L658.7 328.8L664.7 330.4L670.7 332L676.7 332.7L682.7 331.1L688.7 329.6L694.6 328L700.6 326.4L706.6 324.8L712.6 323.2L718.6 321.6L724.6 320L730.6 318.4L736.6 316.8L742.5 315.2L748.5 313.6L754.5 314.4L760.5 316L766.5 317.6L772.5 319.2L778.5 320.8L784.5 322.4L790.5 324L796.4 325.6L802.4 327.2L808.4 328.8L814.4 330.4L820.4 332L826.4 332.8L832.4 331.2L838.4 329.6L844.4 328L850.3 326.4L856.3 324.8L862.3 323.2L868.3 321.6L874.3 320L880.3 318.4L886.3 316.9L892.3 315.3L898.2 313.7L904.2 314.3L910.2 315.9L916.2 317.5L922.2 319.1L928.2 320.7L934.2 322.3L940.2 323.9L946.2 325.5L952.1 327.1L958.1 328.7L964.1 330.3L970.1 331.9L976.1 332.9L982.1 331.3L988.1 329.7L994.1 328.1L1000 326.5L1006 324.9L1012 323.3L1018 321.7L1024 320.1" fill="none" stroke="currentColor" stroke-width="2" stroke-linecap="round"/>
<path d="M0 335.4L6 337L12 338.6L18 340.2L24 341.8L29.9 343.4L35.9 345L41.9 346.6L47.9 348.2L53.9 349.8L59.9 351.4L65.9 353L71.9 354.6L77.8 354.6L83.8 353L89.8 351.5L95.8 349.9L101.8 348.3L107.8 346.7L113.8 345.1L119.8 343.5L125.8 341.9L131.7 340.3L137.7 338.7L143.7 337.1L149.7 335.5L155.7 336.9L161.7 338.5L167.7 340.1L173.7 341.7L179.6 343.3L185.6 344.9L191.6 346.5L197.6 348.1L203.6 349.7L209.6 351.3L215.6 352.9L221.6 354.5L227.6 354.7L233.5 353.1L239.5 351.5L245.5 349.9L251.5 348.3L257.5 346.7L263.5 345.1L269.5 343.5L275.5 341.9L281.5 340.4L287.4 338.8L293.4 337.2L299.4 335.6L305.4 336.8L311.4 338.4L317.4 340L323.4 341.6L329.4 343.2L335.3 344.8L341.3 346.4L347.3 348L353.3 349.6L359.3 351.2L365.3 352.8L371.3 354.4L377.3 354.8L383.3 353.2L389.2 351.6L395.2 350L401.2 348.4L407.2 346.8L413.2 345.2L419.2 343.6L425.2 342L431.2 340.4L437.1 338.8L443.1 337.2L449.1 335.6L455.1 336.8L461.1 338.4L467.1 340L473.1 341.6L479.1 343.2L485.1 344.8L491 346.3L497 347.9L503 349.5L509 351.1L515 352.7L521 354.3L527 354.9L533 353.3L538.9 351.7L544.9 350.1L550.9 348.5L556.9 346.9L562.9 345.3L568.9 343.7L574.9 342.1L580.9 340.5L586.9 338.9L592.8 337.3L598.8 335.7L604.8 336.7L610.8 338.3L616.8 339.9L622.8 341.5L628.8 343.1L634.8 344.7L640.7 346.3L646.7 347.9L652.7 349.5L658.7 351.1L664.7 352.7L670.7 354.3L676.7 355L682.7 353.4L688.7 351.8L694.6 350.2L700.6 348.6L706.6 347L712.6 345.4L718.6 343.8L724.6 342.2L730.6 340.6L736.6 339L742.5 337.4L748.5 335.8L754.5 336.6L760.5 338.2L766.5 339.8L772.5 341.4L778.5 343L784.5 344.6L790.5 346.2L796.4 347.8L802.4 349.4L808.4 351L814.4 352.6L820.4 354.2L826.4 355L832.4 353.4L838.4 351.8L844.4 350.2L850.3 348.6L856.3 347.1L862.3 345.5L868.3 343.9L874.3 342.3L880.3 340.7L886.3 339.1L892.3 337.5L898.2 335.9L904.2 336.5L910.2 338.1L916.2 339.7L922.2 341.3L928.2 342.9L934.2 344.5L940.2 346.1L946.2 347.7L952.1 349.3L958.1 350.9L964.1 352.5L970.1 354.1L976.1 355.1L982.1 353.5L988.1 351.9L994.1 350.3L1000 348.7L1006 347.1L1012 345.5L1018 343.9L1024 342.3" fill="none" stroke="currentColor" stroke-width="2" stroke-linecap="round"/>
<path d="M0 357.6L6 359.2L12 360.8L18 362.4L24 364L29.9 365.6L35.9 367.2L41.9 368.8L47.9 370.4L53.9 372L59.9 373.6L65.9 375.2L71.9 376.8L77.8 376.9L83.8 375.3L89.8 373.7L95.8 372.1L101.8 370.5L107.8 368.9L113.8 367.3L119.8 365.7L125.8 364.1L131.7 362.5L137.7 360.9L143.7 359.3L149.7 357.7L155.7 359.1L161.7 360.7L167.7 362.3L173.7 363.9L179.6 365.5L185.6 367.1L191.6 368.7L197.6 370.3L203.6 371.9L209.6 373.5L215.6 375.1L221.6 376.7L227.6 376.9L233.5 375.3L239.5 373.7L245.5 372.1L251.5 370.5L257.5 369L263.5 367.4L269.5 365.8L275.5 364.2L281.5 362.6L287.4 361L293.4 359.4L299.4 357.8L305.4 359.1L311.4 360.7L317.4 362.3L323.4 363.8L329.4 365.4L335.3 367L341.3 368.6L347.3 370.2L353.3 371.8L359.3 373.4L365.3 375L371.3 376.6L377.3 377L383.3 375.4L389.2 373.8L395.2 372.2L401.2 370.6L407.2 369L413.2 367.4L419.2 365.8L425.2 364.2L431.2 362.6L437.1 361L443.1 359.4L449.1 357.9L455.1 359L461.1 360.6L467.1 362.2L473.1 363.8L479.1 365.4L485.1 367L491 368.6L497 370.2L503 371.8L509 373.4L515 374.9L521 376.5L527 377.1L533 375.5L538.9 373.9L544.9 372.3L550.9 370.7L556.9 369.1L562.9 367.5L568.9 365.9L574.9 364.3L580.9 362.7L586.9 361.1L592.8 359.5L598.8 357.9L604.8 358.9L610.8 360.5L616.8 362.1L622.8 363.7L628.8 365.3L634.8 366.9L640.7 368.5L646.7 370.1L652.7 371.7L658.7 373.3L664.7 374.9L670.7 376.5L676.7 377.2L682.7 375.6L688.7 374L694.6 372.4L700.6 370.8L706.6 369.2L712.6 367.6L718.6 366L724.6 364.4L730.6 362.8L736.6 361.2L742.5 359.6L748.5 358L754.5 358.8L760.5 360.4L766.5 362L772.5 363.6L778.5 365.2L784.5 366.8L790.5 368.4L796.4 370L802.4 371.6L808.4 373.2L814.4 374.8L820.4 376.4L826.4 377.2L832.4 375.7L838.4 374.1L844.4 372.5L850.3 370.9L856.3 369.3L862.3 367.7L868.3 366.1L874.3 364.5L880.3 362.9L886.3 361.3L892.3 359.7L898.2 358.1L904.2 358.7L910.2 360.3L916.2 361.9L922.2 363.5L928.2 365.1L934.2 366.7L940.2 368.3L946.2 369.9L952.1 371.5L958.1 373.1L964.1 374.7L970.1 376.3L976.1 377.3L982.1 375.7L988.1 374.1L994.1 372.5L1000 370.9L1006 369.3L1012 367.7L1018 366.1L1024 364.6" fill="none" stroke="currentColor" stroke-width="2" stroke-linecap="round"/>
<path d="M0 379.8L6 381.4L12 383L18 384.6L24 386.2L29.9 387.8L35.9 389.4L41.9 391L47.9 392.6L53.9 394.2L59.9 395.8L65.9 397.4L71.9 399L77.8 399.1L83.8 397.5L89.8 395.9L95.8 394.3L101.8 392.7L107.8 391.1L113.8 389.5L119.8 387.9L125.8 386.3L131.7 384.7L137.7 383.1L143.7 381.5L149.7 379.9L155.7 381.3L161.7 382.9L167.7 384.5L173.7 386.1L179.6 387.7L185.6 389.3L191.6 390.9L197.6 392.5L203.6 394.1L209.6 395.7L215.6 397.3L221.6 398.9L227.6 399.1L233.5 397.6L239.5 396L245.5 394.4L251.5 392.8L257.5 391.2L263.5 389.6L269.5 388L275.5 386.4L281.5 384.8L287.4 383.2L293.4 381.6L299.4 380L305.4 381.3L311.4 382.9L317.4 384.5L323.4 386.1L329.4 387.7L335.3 389.3L341.3 390.9L347.3 392.4L353.3 394L359.3 395.6L365.3 397.2L371.3 398.8L377.3 399.2L383.3 397.6L389.2 396L395.2 394.4L401.2 392.8L407.2 391.2L413.2 389.6L419.2 388L425.2 386.5L431.2 384.9L437.1 383.3L443.1 381.7L449.1 380.1L455.1 381.2L461.1 382.8L467.1 384.4L473.1 386L479.1 387.6L485.1 389.2L491 390.8L497 392.4L503 394L509 395.6L515 397.2L521 398.8L527 399.3L533 397.7L538.9 396.1L544.9 394.5L550.9 392.9L556.9 391.3L562.9 389.7L568.9 388.1L574.9 386.5L580.9 384.9L586.9 383.3L592.8 381.7L598.8 380.1L604.8 381.1L610.8 382.7L616.8 384.3L622.8 385.9L628.8 387.5L634.8 389.1L640.7 390.7L646.7 392.3L652.7 393.9L658.7 395.5L664.7 397.1L670.7 398.7L676.7 399.4L682.7 397.8L688.7 396.2L694.6 394.6L700.6 393L706.6 391.4L712.6 389.8L718.6 388.2L724.6 386.6L730.6 385L736.6 383.4L742.5 381.8L748.5 380.2L754.5 381L760.5 382.6L766.5 384.2L772.5 385.8L778.5 387.4L784.5 389L790.5 390.6L796.4 392.2L802.4 393.8L808.4 395.4L814.4 397L820.4 398.6L826.4 399.5L832.4 397.9L838.4 396.3L844.4 394.7L850.3 393.1L856.3 391.5L862.3 389.9L868.3 388.3L874.3 386.7L880.3 385.1L886.3 383.5L892.3 381.9L898.2 380.3L904.2 381L910.2 382.6L916.2 384.2L922.2 385.7L928.2 387.3L934.2 388.9L940.2 390.5L946.2 392.1L952.1 393.7L958.1 395.3L964.1 396.9L970.1 398.5L976.1 399.5L982.1 397.9L988.1 396.3L994.1 394.7L1000 393.2L1006 391.6L1012 390L1018 388.4L1024 386.8" fill="none" stroke="currentColor" stroke-width="2" stroke-linecap="round"/>
<path d="M0 402L6 403.6L12 405.2L18 406.8L24 408.4L29.9 410L35.9 411.6L41.9 413.2L47.9 414.8L53.9 416.4L59.9 418L65.9 419.6L71.9 421.2L77.8 421.3L83.8 419.7L89.8 418.1L95.8 416.5L101.8 414.9L107.8 413.3L113.8 411.7L119.8 410.1L125.8 408.5L131.7 406.9L137.7 405.3L143.7 403.7L149.7 402.1L155.7 403.6L161.7 405.2L167.7 406.8L173.7 408.4L179.6 409.9L185.6 411.5L191.6 413.1L197.6 414.7L203.6 416.3L209.6 417.9L215.6 419.5L221.6 421.1L227.6 421.4L233.5 419.8L239.5 418.2L245.5 416.6L251.5 415L257.5 413.4L263.5 411.8L269.5 410.2L275.5 408.6L281.5 407L287.4 405.4L293.4 403.8L299.4 402.2L305.4 403.5L311.4 405.1L317.4 406.7L323.4 408.3L329.4 409.9L335.3 411.5L341.3 413.1L347.3 414.7L353.3 416.3L359.3 417.9L365.3 419.5L371.3 421L377.3 421.4L383.3 419.8L389.2 418.2L395.2 416.6L401.2 415.1L407.2 413.5L413.2 411.9L419.2 410.3L425.2 408.7L431.2 407.1L437.1 405.5L443.1 403.9L449.1 402.3L455.1 403.4L461.1 405L467.1 406.6L473.1 408.2L479.1 409.8L485.1 411.4L491 413L497 414.6L503 416.2L509 417.8L515 419.4L521 421L527 421.5L533 419.9L538.9 418.3L544.9 416.7L550.9 415.1L556.9 413.5L562.9 411.9L568.9 410.3L574.9 408.7L580.9 407.1L586.9 405.5L592.8 404L598.8 402.4L604.8 403.3L610.8 404.9L616.8 406.5L622.8 408.1L628.8 409.7L634.8 411.3L640.7 412.9L646.7 414.5L652.7 416.1L658.7 417.7L664.7 419.3L670.7 420.9L676.7 421.6L682.7 420L688.7 418.4L694.6 416.8L700.6 415.2L706.6 413.6L712.6 412L718.6 410.4L724.6 408.8L730.6 407.2L736.6 405.6L742.5 404L748.5 402.4L754.5 403.2L760.5 404.8L766.5 406.4L772.5 408L778.5 409.6L784.5 411.2L790.5 412.8L796.4 414.4L802.4 416L808.4 417.6L814.4 419.2L820.4 420.8L826.4 421.7L832.4 420.1L838.4 418.5L844.4 416.9L850.3 415.3L856.3 413.7L862.3 412.1L868.3 410.5L874.3 408.9L880.3 407.3L886.3 405.7L892.3 404.1L898.2 402.5L904.2 403.2L910.2 404.8L916.2 406.4L922.2 408L928.2 409.6L934.2 411.2L940.2 412.8L946.2 414.3L952.1 415.9L958.1 417.5L964.1 419.1L970.1 420.7L976.1 421.8L982.1 420.2L988.1 418.6L994.1 417L1000 415.4L1006 413.8L1012 412.2L1018 410.6L1024 409" fill="none" stroke="currentColor" stroke-width="2" stroke-linecap="round"/>
<path d="M0 424.3L6 425.9L12 427.4L18 429L24 430.6L29.9 432.2L35.9 433.8L41.9 435.4L47.9 437L53.9 438.6L59.9 440.2L65.9 441.8L71.9 443.4L77.8 443.5L83.8 441.9L89.8 440.3L95.8 438.7L101.8 437.1L107.8 435.5L113.8 433.9L119.8 432.3L125.8 430.7L131.7 429.1L137.7 427.5L143.7 425.9L149.7 424.3L155.7 425.8L161.7 427.4L167.7 429L173.7 430.6L179.6 432.2L185.6 433.8L191.6 435.4L197.6 437L203.6 438.5L209.6 440.1L215.6 441.7L221.6 443.3L227.6 443.6L233.5 442L239.5 440.4L245.5 438.8L251.5 437.2L257.5 435.6L263.5 434L269.5 432.4L275.5 430.8L281.5 429.2L287.4 427.6L293.4 426L299.4 424.4L305.4 425.7L311.4 427.3L317.4 428.9L323.4 430.5L329.4 432.1L335.3 433.7L341.3 435.3L347.3 436.9L353.3 438.5L359.3 440.1L365.3 441.7L371.3 443.3L377.3 443.7L383.3 442.1L389.2 440.5L395.2 438.9L401.2 437.3L407.2 435.7L413.2 434.1L419.2 432.5L425.2 430.9L431.2 429.3L437.1 427.7L443.1 426.1L449.1 424.5L455.1 425.6L461.1 427.2L467.1 428.8L473.1 430.4L479.1 432L485.1 433.6L491 435.2L497 436.8L503 438.4L509 440L515 441.6L521 443.2L527 443.7L533 442.1L538.9 440.5L544.9 438.9L550.9 437.3L556.9 435.7L562.9 434.1L568.9 432.6L574.9 431L580.9 429.4L586.9 427.8L592.8 426.2L598.8 424.6L604.8 425.5L610.8 427.1L616.8 428.7L622.8 430.3L628.8 431.9L634.8 433.5L640.7 435.1L646.7 436.7L652.7 438.3L658.7 439.9L664.7 441.5L670.7 443.1L676.7 443.8L682.7 442.2L688.7 440.6L694.6 439L700.6 437.4L706.6 435.8L712.6 434.2L718.6 432.6L724.6 431L730.6 429.4L736.6 427.8L742.5 426.2L748.5 424.6L754.5 425.5L760.5 427.1L766.5 428.7L772.5 430.3L778.5 431.8L784.5 433.4L790.5 435L796.4 436.6L802.4 438.2L808.4 439.8L814.4 441.4L820.4 443L826.4 443.9L832.4 442.3L838.4 440.7L844.4 439.1L850.3 437.5L856.3 435.9L862.3 434.3L868.3 432.7L874.3 431.1L880.3 429.5L886.3 427.9L892.3 426.3L898.2 424.7L904.2 425.4L910.2 427L916.2 428.6L922.2 430.2L928.2 431.8L934.2 433.4L940.2 435L946.2 436.6L952.1 438.2L958.1 439.8L964.1 441.4L970.1 443L976.1 444L982.1 442.4L988.1 440.8L994.1 439.2L1000 437.6L1006 436L1012 434.4L1018 432.8L1024 431.2" fill="none" stroke="currentColor" stroke-width="2" stroke-linecap="round"/>
<path d="M0 446.5L6 448.1L12 449.7L18 451.3L24 452.9L29.9 454.5L35.9 456L41.9 457.6L47.9 459.2L53.9 460.8L59.9 462.4L65.9 464L71.9 465.6L77.8 465.7L83.8 464.1L89.8 462.5L95.8 460.9L101.8 459.3L107.8 457.7L113.8 456.1L119.8 454.5L125.8 452.9L131.7 451.3L137.7 449.7L143.7 448.1L149.7 446.5L155.7 448L161.7 449.6L167.7 451.2L173.7 452.8L179.6 454.4L185.6 456L191.6 457.6L197.6 459.2L203.6 460.8L209.6 462.4L215.6 464L221.6 465.6L227.6 465.8L233.5 464.2L239.5 462.6L245.5 461L251.5 459.4L257.5 457.8L263.5 456.2L269.5 454.6L275.5 453L281.5 451.4L287.4 449.8L293.4 448.2L299.4 446.6L305.4 447.9L311.4 449.5L317.4 451.1L323.4 452.7L329.4 454.3L335.3 455.9L341.3 457.5L347.3 459.1L353.3 460.7L359.3 462.3L365.3 463.9L371.3 465.5L377.3 465.9L383.3 464.3L389.2 462.7L395.2 461.1L401.2 459.5L407.2 457.9L413.2 456.3L419.2 454.7L425.2 453.1L431.2 451.5L437.1 449.9L443.1 448.3L449.1 446.7L455.1 447.8L461.1 449.4L467.1 451L473.1 452.6L479.1 454.2L485.1 455.8L491 457.4L497 459L503 460.6L509 462.2L515 463.8L521 465.4L527 465.9L533 464.3L538.9 462.7L544.9 461.2L550.9 459.6L556.9 458L562.9 456.4L568.9 454.8L574.9 453.2L580.9 451.6L586.9 450L592.8 448.4L598.8 446.8L604.8 447.8L610.8 449.3L616.8 450.9L622.8 452.5L628.8 454.1L634.8 455.7L640.7 457.3L646.7 458.9L652.7 460.5L658.7 462.1L664.7 463.7L670.7 465.3L676.7 466L682.7 464.4L688.7 462.8L694.6 461.2L700.6 459.6L706.6 458L712.6 456.4L718.6 454.8L724.6 453.2L730.6 451.6L736.6 450.1L742.5 448.5L748.5 446.9L754.5 447.7L760.5 449.3L766.5 450.9L772.5 452.5L778.5 454.1L784.5 455.7L790.5 457.3L796.4 458.9L802.4 460.5L808.4 462L814.4 463.6L820.4 465.2L826.4 466.1L832.4 464.5L838.4 462.9L844.4 461.3L850.3 459.7L856.3 458.1L862.3 456.5L868.3 454.9L874.3 453.3L880.3 451.7L886.3 450.1L892.3 448.5L898.2 446.9L904.2 447.6L910.2 449.2L916.2 450.8L922.2 452.4L928.2 454L934.2 455.6L940.2 457.2L946.2 458.8L952.1 460.4L958.1 462L964.1 463.6L970.1 465.2L976.1 466.2L982.1 464.6L988.1 463L994.1 461.4L1000 459.8L1006 458.2L1012 456.6L1018 455L1024 453.4" fill="none" stroke="currentColor" stroke-width="2" stroke-linecap="round"/>
<path d="M0 468.7L6 470.3L12 471.9L18 473.5L24 475.1L29.9 476.7L35.9 478.3L41.9 479.9L47.9 481.5L53.9 483.1L59.9 484.6L65.9 486.2L71.9 487.8L77.8 487.9L83.8 486.3L89.8 484.7L95.8 483.1L101.8 481.5L107.8 479.9L113.8 478.3L119.8 476.7L125.8 475.1L131.7 473.5L137.7 472L143.7 470.4L149.7 468.8L155.7 470.2L161.7 471.8L167.7 473.4L173.7 475L179.6 476.6L185.6 478.2L191.6 479.8L197.6 481.4L203.6 483L209.6 484.6L215.6 486.2L221.6 487.8L227.6 488L233.5 486.4L239.5 484.8L245.5 483.2L251.5 481.6L257.5 480L263.5 478.4L269.5 476.8L275.5 475.2L281.5 473.6L287.4 472L293.4 470.4L299.4 468.8L305.4 470.1L311.4 471.7L317.4 473.3L323.4 474.9L329.4 476.5L335.3 478.1L341.3 479.7L347.3 481.3L353.3 482.9L359.3 484.5L365.3 486.1L371.3 487.7L377.3 488.1L383.3 486.5L389.2 484.9L395.2 483.3L401.2 481.7L407.2 480.1L413.2 478.5L419.2 476.9L425.2 475.3L431.2 473.7L437.1 472.1L443.1 470.5L449.1 468.9L455.1 470L461.1 471.6L467.1 473.2L473.1 474.8L479.1 476.4L485.1 478L491 479.6L497 481.2L503 482.8L509 484.4L515 486L521 487.6L527 488.2L533 486.6L538.9 485L544.9 483.4L550.9 481.8L556.9 480.2L562.9 478.6L568.9 477L574.9 475.4L580.9 473.8L586.9 472.2L592.8 470.6L598.8 469L604.8 470L610.8 471.6L616.8 473.2L622.8 474.8L628.8 476.4L634.8 478L640.7 479.5L646.7 481.1L652.7 482.7L658.7 484.3L664.7 485.9L670.7 487.5L676.7 488.2L682.7 486.6L688.7 485L694.6 483.4L700.6 481.8L706.6 480.2L712.6 478.7L718.6 477.1L724.6 475.5L730.6 473.9L736.6 472.3L742.5 470.7L748.5 469.1L754.5 469.9L760.5 471.5L766.5 473.1L772.5 474.7L778.5 476.3L784.5 477.9L790.5 479.5L796.4 481.1L802.4 482.7L808.4 484.3L814.4 485.9L820.4 487.5L826.4 488.3L832.4 486.7L838.4 485.1L844.4 483.5L850.3 481.9L856.3 480.3L862.3 478.7L868.3 477.1L874.3 475.5L880.3 473.9L886.3 472.3L892.3 470.7L898.2 469.1L904.2 469.8L910.2 471.4L916.2 473L922.2 474.6L928.2 476.2L934.2 477.8L940.2 479.4L946.2 481L952.1 482.6L958.1 484.2L964.1 485.8L970.1 487.4L976.1 488.4L982.1 486.8L988.1 485.2L994.1 483.6L1000 482L1006 480.4L1012 478.8L1018 477.2L1024 475.6" fill="none" stroke="currentColor" stroke-width="2" stroke-linecap="round"/>
<path d="M0 490.9L6 492.5L12 494.1L18 495.7L24 497.3L29.9 498.9L35.9 500.5L41.9 502.1L47.9 503.7L53.9 505.3L59.9 506.9L65.9 508.5L71.9 510.1L77.8 510.1L83.8 508.5L89.8 506.9L95.8 505.3L101.8 503.7L107.8 502.1L113.8 500.6L119.8 499L125.8 497.4L131.7 495.8L137.7 494.2L143.7 492.6L149.7 491L155.7 492.4L161.7 494L167.7 495.6L173.7 497.2L179.6 498.8L185.6 500.4L191.6 502L197.6 503.6L203.6 505.2L209.6 506.8L215.6 508.4L221.6 510L227.6 510.2L233.5 508.6L239.5 507L245.5 505.4L251.5 503.8L257.5 502.2L263.5 500.6L269.5 499L275.5 497.4L281.5 495.8L287.4 494.2L293.4 492.6L299.4 491L305.4 492.3L311.4 493.9L317.4 495.5L323.4 497.1L329.4 498.7L335.3 500.3L341.3 501.9L347.3 503.5L353.3 505.1L359.3 506.7L365.3 508.3L371.3 509.9L377.3 510.3L383.3 508.7L389.2 507.1L395.2 505.5L401.2 503.9L407.2 502.3L413.2 500.7L419.2 499.1L425.2 497.5L431.2 495.9L437.1 494.3L443.1 492.7L449.1 491.1L455.1 492.3L461.1 493.9L467.1 495.5L473.1 497L479.1 498.6L485.1 500.2L491 501.8L497 503.4L503 505L509 506.6L515 508.2L521 509.8L527 510.4L533 508.8L538.9 507.2L544.9 505.6L550.9 504L556.9 502.4L562.9 500.8L568.9 499.2L574.9 497.6L580.9 496L586.9 494.4L592.8 492.8L598.8 491.2L604.8 492.2L610.8 493.8L616.8 495.4L622.8 497L628.8 498.6L634.8 500.2L640.7 501.8L646.7 503.4L652.7 505L658.7 506.6L664.7 508.1L670.7 509.7L676.7 510.4L682.7 508.8L688.7 507.3L694.6 505.7L700.6 504.1L706.6 502.5L712.6 500.9L718.6 499.3L724.6 497.7L730.6 496.1L736.6 494.5L742.5 492.9L748.5 491.3L754.5 492.1L760.5 493.7L766.5 495.3L772.5 496.9L778.5 498.5L784.5 500.1L790.5 501.7L796.4 503.3L802.4 504.9L808.4 506.5L814.4 508.1L820.4 509.7L826.4 510.5L832.4 508.9L838.4 507.3L844.4 505.7L850.3 504.1L856.3 502.5L862.3 500.9L868.3 499.3L874.3 497.7L880.3 496.2L886.3 494.6L892.3 493L898.2 491.4L904.2 492L910.2 493.6L916.2 495.2L922.2 496.8L928.2 498.4L934.2 500L940.2 501.6L946.2 503.2L952.1 504.8L958.1 506.4L964.1 508L970.1 509.6L976.1 510.6L982.1 509L988.1 507.4L994.1 505.8L1000 504.2L1006 502.6L1012 501L1018 499.4L1024 497.8" fill="none" stroke="currentColor" stroke-width="2" stroke-linecap="round"/>
<path d="M0 513.1L6 514.7L12 516.3L18 517.9L24 519.5L29.9 521.1L35.9 522.7L41.9 524.3L47.9 525.9L53.9 527.5L59.9 529.1L65.9 530.7L71.9 532.3L77.8 532.3L83.8 530.8L89.8 529.2L95.8 527.6L101.8 526L107.8 524.4L113.8 522.8L119.8 521.2L125.8 519.6L131.7 518L137.7 516.4L143.7 514.8L149.7 513.2L155.7 514.6L161.7 516.2L167.7 517.8L173.7 519.4L179.6 521L185.6 522.6L191.6 524.2L197.6 525.8L203.6 527.4L209.6 529L215.6 530.6L221.6 532.2L227.6 532.4L233.5 530.8L239.5 529.2L245.5 527.6L251.5 526L257.5 524.4L263.5 522.8L269.5 521.2L275.5 519.6L281.5 518.1L287.4 516.5L293.4 514.9L299.4 513.3L305.4 514.5L311.4 516.1L317.4 517.7L323.4 519.3L329.4 520.9L335.3 522.5L341.3 524.1L347.3 525.7L353.3 527.3L359.3 528.9L365.3 530.5L371.3 532.1L377.3 532.5L383.3 530.9L389.2 529.3L395.2 527.7L401.2 526.1L407.2 524.5L413.2 522.9L419.2 521.3L425.2 519.7L431.2 518.1L437.1 516.5L443.1 514.9L449.1 513.3L455.1 514.5L461.1 516.1L467.1 517.7L473.1 519.3L479.1 520.9L485.1 522.5L491 524.1L497 525.6L503 527.2L509 528.8L515 530.4L521 532L527 532.6L533 531L538.9 529.4L544.9 527.8L550.9 526.2L556.9 524.6L562.9 523L568.9 521.4L574.9 519.8L580.9 518.2L586.9 516.6L592.8 515L598.8 513.4L604.8 514.4L610.8 516L616.8 517.6L622.8 519.2L628.8 520.8L634.8 522.4L640.7 524L646.7 525.6L652.7 527.2L658.7 528.8L664.7 530.4L670.7 532L676.7 532.7L682.7 531.1L688.7 529.5L694.6 527.9L700.6 526.3L706.6 524.7L712.6 523.1L718.6 521.5L724.6 519.9L730.6 518.3L736.6 516.7L742.5 515.1L748.5 513.5L754.5 514.3L760.5 515.9L766.5 517.5L772.5 519.1L778.5 520.7L784.5 522.3L790.5 523.9L796.4 525.5L802.4 527.1L808.4 528.7L814.4 530.3L820.4 531.9L826.4 532.7L832.4 531.1L838.4 529.5L844.4 527.9L850.3 526.3L856.3 524.8L862.3 523.2L868.3 521.6L874.3 520L880.3 518.4L886.3 516.8L892.3 515.2L898.2 513.6L904.2 514.2L910.2 515.8L916.2 517.4L922.2 519L928.2 520.6L934.2 522.2L940.2 523.8L946.2 525.4L952.1 527L958.1 528.6L964.1 530.2L970.1 531.8L976.1 532.8L982.1 531.2L988.1 529.6L994.1 528L1000 526.4L1006 524.8L1012 523.2L1018 521.6L1024 520" fill="none" stroke="currentColor" stroke-width="2" stroke-linecap="round"/>
<path d="M0 535.3L6 536.9L12 538.5L18 540.1L24 541.7L29.9 543.3L35.9 544.9L41.9 546.5L47.9 548.1L53.9 549.7L59.9 551.3L65.9 552.9L71.9 554.5L77.8 554.6L83.8 553L89.8 551.4L95.8 549.8L101.8 548.2L107.8 546.6L113.8 545L119.8 543.4L125.8 541.8L131.7 540.2L137.7 538.6L143.7 537L149.7 535.4L155.7 536.8L161.7 538.4L167.7 540L173.7 541.6L179.6 543.2L185.6 544.8L191.6 546.4L197.6 548L203.6 549.6L209.6 551.2L215.6 552.8L221.6 554.4L227.6 554.6L233.5 553L239.5 551.4L245.5 549.8L251.5 548.3L257.5 546.7L263.5 545.1L269.5 543.5L275.5 541.9L281.5 540.3L287.4 538.7L293.4 537.1L299.4 535.5L305.4 536.8L311.4 538.4L317.4 540L323.4 541.6L329.4 543.1L335.3 544.7L341.3 546.3L347.3 547.9L353.3 549.5L359.3 551.1L365.3 552.7L371.3 554.3L377.3 554.7L383.3 553.1L389.2 551.5L395.2 549.9L401.2 548.3L407.2 546.7L413.2 545.1L419.2 543.5L425.2 541.9L431.2 540.3L437.1 538.7L443.1 537.1L449.1 535.6L455.1 536.7L461.1 538.3L467.1 539.9L473.1 541.5L479.1 543.1L485.1 544.7L491 546.3L497 547.9L503 549.5L509 551.1L515 552.7L521 554.2L527 554.8L533 553.2L538.9 551.6L544.9 550L550.9 548.4L556.9 546.8L562.9 545.2L568.9 543.6L574.9 542L580.9 540.4L586.9 538.8L592.8 537.2L598.8 535.6L604.8 536.6L610.8 538.2L616.8 539.8L622.8 541.4L628.8 543L634.8 544.6L640.7 546.2L646.7 547.8L652.7 549.4L658.7 551L664.7 552.6L670.7 554.2L676.7 554.9L682.7 553.3L688.7 551.7L694.6 550.1L700.6 548.5L706.6 546.9L712.6 545.3L718.6 543.7L724.6 542.1L730.6 540.5L736.6 538.9L742.5 537.3L748.5 535.7L754.5 536.5L760.5 538.1L766.5 539.7L772.5 541.3L778.5 542.9L784.5 544.5L790.5 546.1L796.4 547.7L802.4 549.3L808.4 550.9L814.4 552.5L820.4 554.1L826.4 554.9L832.4 553.4L838.4 551.8L844.4 550.2L850.3 548.6L856.3 547L862.3 545.4L868.3 543.8L874.3 542.2L880.3 540.6L886.3 539L892.3 537.4L898.2 535.8L904.2 536.4L910.2 538L916.2 539.6L922.2 541.2L928.2 542.8L934.2 544.4L940.2 546L946.2 547.6L952.1 549.2L958.1 550.8L964.1 552.4L970.1 554L976.1 555L982.1 553.4L988.1 551.8L994.1 550.2L1000 548.6L1006 547L1012 545.4L1018 543.8L1024 542.3" fill="none" stroke="currentColor" stroke-width="2" stroke-linecap="round"/>
<path d="M0 557.5L6 559.1L12 560.7L18 562.3L24 563.9L29.9 565.5L35.9 567.1L41.9 568.7L47.9 570.3L53.9 571.9L59.9 573.5L65.9 575.1L71.9 576.7L77.8 576.8L83.8 575.2L89.8 573.6L95.8 572L101.8 570.4L107.8 568.8L113.8 567.2L119.8 565.6L125.8 564L131.7 562.4L137.7 560.8L143.7 559.2L149.7 557.6L155.7 559.1L161.7 560.6L167.7 562.2L173.7 563.8L179.6 565.4L185.6 567L191.6 568.6L197.6 570.2L203.6 571.8L209.6 573.4L215.6 575L221.6 576.6L227.6 576.9L233.5 575.3L239.5 573.7L245.5 572.1L251.5 570.5L257.5 568.9L263.5 567.3L269.5 565.7L275.5 564.1L281.5 562.5L287.4 560.9L293.4 559.3L299.4 557.7L305.4 559L311.4 560.6L317.4 562.2L323.4 563.8L329.4 565.4L335.3 567L341.3 568.6L347.3 570.2L353.3 571.7L359.3 573.3L365.3 574.9L371.3 576.5L377.3 576.9L383.3 575.3L389.2 573.7L395.2 572.1L401.2 570.5L407.2 568.9L413.2 567.3L419.2 565.8L425.2 564.2L431.2 562.6L437.1 561L443.1 559.4L449.1 557.8L455.1 558.9L461.1 560.5L467.1 562.1L473.1 563.7L479.1 565.3L485.1 566.9L491 568.5L497 570.1L503 571.7L509 573.3L515 574.9L521 576.5L527 577L533 575.4L538.9 573.8L544.9 572.2L550.9 570.6L556.9 569L562.9 567.4L568.9 565.8L574.9 564.2L580.9 562.6L586.9 561L592.8 559.4L598.8 557.8L604.8 558.8L610.8 560.4L616.8 562L622.8 563.6L628.8 565.2L634.8 566.8L640.7 568.4L646.7 570L652.7 571.6L658.7 573.2L664.7 574.8L670.7 576.4L676.7 577.1L682.7 575.5L688.7 573.9L694.6 572.3L700.6 570.7L706.6 569.1L712.6 567.5L718.6 565.9L724.6 564.3L730.6 562.7L736.6 561.1L742.5 559.5L748.5 557.9L754.5 558.7L760.5 560.3L766.5 561.9L772.5 563.5L778.5 565.1L784.5 566.7L790.5 568.3L796.4 569.9L802.4 571.5L808.4 573.1L814.4 574.7L820.4 576.3L826.4 577.2L832.4 575.6L838.4 574L844.4 572.4L850.3 570.8L856.3 569.2L862.3 567.6L868.3 566L874.3 564.4L880.3 562.8L886.3 561.2L892.3 559.6L898.2 558L904.2 558.7L910.2 560.3L916.2 561.9L922.2 563.5L928.2 565L934.2 566.6L940.2 568.2L946.2 569.8L952.1 571.4L958.1 573L964.1 574.6L970.1 576.2L976.1 577.2L982.1 575.6L988.1 574L994.1 572.4L1000 570.9L1006 569.3L1012 567.7L1018 566.1L1024 564.5" fill="none" stroke="currentColor" stroke-width="2" stroke-linecap="round"/>
<path d="M0 579.7L6 581.3L12 582.9L18 584.5L24 586.1L29.9 587.7L35.9 589.3L41.9 590.9L47.9 592.5L53.9 594.1L59.9 595.7L65.9 597.3L71.9 598.9L77.8 599L83.8 597.4L89.8 595.8L95.8 594.2L101.8 592.6L107.8 591L113.8 589.4L119.8 587.8L125.8 586.2L131.7 584.6L137.7 583L143.7 581.4L149.7 579.8L155.7 581.3L161.7 582.9L167.7 584.5L173.7 586.1L179.6 587.7L185.6 589.2L191.6 590.8L197.6 592.4L203.6 594L209.6 595.6L215.6 597.2L221.6 598.8L227.6 599.1L233.5 597.5L239.5 595.9L245.5 594.3L251.5 592.7L257.5 591.1L263.5 589.5L269.5 587.9L275.5 586.3L281.5 584.7L287.4 583.1L293.4 581.5L299.4 579.9L305.4 581.2L311.4 582.8L317.4 584.4L323.4 586L329.4 587.6L335.3 589.2L341.3 590.8L347.3 592.4L353.3 594L359.3 595.6L365.3 597.2L371.3 598.8L377.3 599.1L383.3 597.5L389.2 595.9L395.2 594.4L401.2 592.8L407.2 591.2L413.2 589.6L419.2 588L425.2 586.4L431.2 584.8L437.1 583.2L443.1 581.6L449.1 580L455.1 581.1L461.1 582.7L467.1 584.3L473.1 585.9L479.1 587.5L485.1 589.1L491 590.7L497 592.3L503 593.9L509 595.5L515 597.1L521 598.7L527 599.2L533 597.6L538.9 596L544.9 594.4L550.9 592.8L556.9 591.2L562.9 589.6L568.9 588L574.9 586.4L580.9 584.8L586.9 583.3L592.8 581.7L598.8 580.1L604.8 581L610.8 582.6L616.8 584.2L622.8 585.8L628.8 587.4L634.8 589L640.7 590.6L646.7 592.2L652.7 593.8L658.7 595.4L664.7 597L670.7 598.6L676.7 599.3L682.7 597.7L688.7 596.1L694.6 594.5L700.6 592.9L706.6 591.3L712.6 589.7L718.6 588.1L724.6 586.5L730.6 584.9L736.6 583.3L742.5 581.7L748.5 580.1L754.5 581L760.5 582.5L766.5 584.1L772.5 585.7L778.5 587.3L784.5 588.9L790.5 590.5L796.4 592.1L802.4 593.7L808.4 595.3L814.4 596.9L820.4 598.5L826.4 599.4L832.4 597.8L838.4 596.2L844.4 594.6L850.3 593L856.3 591.4L862.3 589.8L868.3 588.2L874.3 586.6L880.3 585L886.3 583.4L892.3 581.8L898.2 580.2L904.2 580.9L910.2 582.5L916.2 584.1L922.2 585.7L928.2 587.3L934.2 588.9L940.2 590.5L946.2 592.1L952.1 593.6L958.1 595.2L964.1 596.8L970.1 598.4L976.1 599.5L982.1 597.9L988.1 596.3L994.1 594.7L1000 593.1L1006 591.5L1012 589.9L1018 588.3L1024 586.7" fill="none" stroke="currentColor" stroke-width="2" stroke-linecap="round"/>
<path d="M0 602L6 603.6L12 605.2L18 606.7L24 608.3L29.9 609.9L35.9 611.5L41.9 613.1L47.9 614.7L53.9 616.3L59.9 617.9L65.9 619.5L71.9 621.1L77.8 621.2L83.8 619.6L89.8 618L95.8 616.4L101.8 614.8L107.8 613.2L113.8 611.6L119.8 610L125.8 608.4L131.7 606.8L137.7 605.2L143.7 603.6L149.7 602L155.7 603.5L161.7 605.1L167.7 606.7L173.7 608.3L179.6 609.9L185.6 611.5L191.6 613.1L197.6 614.7L203.6 616.3L209.6 617.8L215.6 619.4L221.6 621L227.6 621.3L233.5 619.7L239.5 618.1L245.5 616.5L251.5 614.9L257.5 613.3L263.5 611.7L269.5 610.1L275.5 608.5L281.5 606.9L287.4 605.3L293.4 603.7L299.4 602.1L305.4 603.4L311.4 605L317.4 606.6L323.4 608.2L329.4 609.8L335.3 611.4L341.3 613L347.3 614.6L353.3 616.2L359.3 617.8L365.3 619.4L371.3 621L377.3 621.4L383.3 619.8L389.2 618.2L395.2 616.6L401.2 615L407.2 613.4L413.2 611.8L419.2 610.2L425.2 608.6L431.2 607L437.1 605.4L443.1 603.8L449.1 602.2L455.1 603.3L461.1 604.9L467.1 606.5L473.1 608.1L479.1 609.7L485.1 611.3L491 612.9L497 614.5L503 616.1L509 617.7L515 619.3L521 620.9L527 621.4L533 619.8L538.9 618.2L544.9 616.6L550.9 615L556.9 613.4L562.9 611.9L568.9 610.3L574.9 608.7L580.9 607.1L586.9 605.5L592.8 603.9L598.8 602.3L604.8 603.2L610.8 604.8L616.8 606.4L622.8 608L628.8 609.6L634.8 611.2L640.7 612.8L646.7 614.4L652.7 616L658.7 617.6L664.7 619.2L670.7 620.8L676.7 621.5L682.7 619.9L688.7 618.3L694.6 616.7L700.6 615.1L706.6 613.5L712.6 611.9L718.6 610.3L724.6 608.7L730.6 607.1L736.6 605.5L742.5 603.9L748.5 602.3L754.5 603.2L760.5 604.8L766.5 606.4L772.5 608L778.5 609.6L784.5 611.1L790.5 612.7L796.4 614.3L802.4 615.9L808.4 617.5L814.4 619.1L820.4 620.7L826.4 621.6L832.4 620L838.4 618.4L844.4 616.8L850.3 615.2L856.3 613.6L862.3 612L868.3 610.4L874.3 608.8L880.3 607.2L886.3 605.6L892.3 604L898.2 602.4L904.2 603.1L910.2 604.7L916.2 606.3L922.2 607.9L928.2 609.5L934.2 611.1L940.2 612.7L946.2 614.3L952.1 615.9L958.1 617.5L964.1 619.1L970.1 620.7L976.1 621.7L982.1 620.1L988.1 618.5L994.1 616.9L1000 615.3L1006 613.7L1012 612.1L1018 610.5L1024 608.9" fill="none" stroke="currentColor" stroke-width="2" stroke-linecap="round"/>
<path d="M0 624.2L6 625.8L12 627.4L18 629L24 630.6L29.9 632.2L35.9 633.8L41.9 635.3L47.9 636.9L53.9 638.5L59.9 640.1L65.9 641.7L71.9 643.3L77.8 643.4L83.8 641.8L89.8 640.2L95.8 638.6L101.8 637L107.8 635.4L113.8 633.8L119.8 632.2L125.8 630.6L131.7 629L137.7 627.4L143.7 625.8L149.7 624.2L155.7 625.7L161.7 627.3L167.7 628.9L173.7 630.5L179.6 632.1L185.6 633.7L191.6 635.3L197.6 636.9L203.6 638.5L209.6 640.1L215.6 641.7L221.6 643.3L227.6 643.5L233.5 641.9L239.5 640.3L245.5 638.7L251.5 637.1L257.5 635.5L263.5 633.9L269.5 632.3L275.5 630.7L281.5 629.1L287.4 627.5L293.4 625.9L299.4 624.3L305.4 625.6L311.4 627.2L317.4 628.8L323.4 630.4L329.4 632L335.3 633.6L341.3 635.2L347.3 636.8L353.3 638.4L359.3 640L365.3 641.6L371.3 643.2L377.3 643.6L383.3 642L389.2 640.4L395.2 638.8L401.2 637.2L407.2 635.6L413.2 634L419.2 632.4L425.2 630.8L431.2 629.2L437.1 627.6L443.1 626L449.1 624.4L455.1 625.5L461.1 627.1L467.1 628.7L473.1 630.3L479.1 631.9L485.1 633.5L491 635.1L497 636.7L503 638.3L509 639.9L515 641.5L521 643.1L527 643.6L533 642L538.9 640.5L544.9 638.9L550.9 637.3L556.9 635.7L562.9 634.1L568.9 632.5L574.9 630.9L580.9 629.3L586.9 627.7L592.8 626.1L598.8 624.5L604.8 625.5L610.8 627.1L616.8 628.6L622.8 630.2L628.8 631.8L634.8 633.4L640.7 635L646.7 636.6L652.7 638.2L658.7 639.8L664.7 641.4L670.7 643L676.7 643.7L682.7 642.1L688.7 640.5L694.6 638.9L700.6 637.3L706.6 635.7L712.6 634.1L718.6 632.5L724.6 630.9L730.6 629.4L736.6 627.8L742.5 626.2L748.5 624.6L754.5 625.4L760.5 627L766.5 628.6L772.5 630.2L778.5 631.8L784.5 633.4L790.5 635L796.4 636.6L802.4 638.2L808.4 639.7L814.4 641.3L820.4 642.9L826.4 643.8L832.4 642.2L838.4 640.6L844.4 639L850.3 637.4L856.3 635.8L862.3 634.2L868.3 632.6L874.3 631L880.3 629.4L886.3 627.8L892.3 626.2L898.2 624.6L904.2 625.3L910.2 626.9L916.2 628.5L922.2 630.1L928.2 631.7L934.2 633.3L940.2 634.9L946.2 636.5L952.1 638.1L958.1 639.7L964.1 641.3L970.1 642.9L976.1 643.9L982.1 642.3L988.1 640.7L994.1 639.1L1000 637.5L1006 635.9L1012 634.3L1018 632.7L1024 631.1" fill="none" stroke="currentColor" stroke-width="2" stroke-linecap="round"/>
<path d="M0 646.4L6 648L12 649.6L18 651.2L24 652.8L29.9 654.4L35.9 656L41.9 657.6L47.9 659.2L53.9 660.8L59.9 662.4L65.9 663.9L71.9 665.5L77.8 665.6L83.8 664L89.8 662.4L95.8 660.8L101.8 659.2L107.8 657.6L113.8 656L119.8 654.4L125.8 652.8L131.7 651.3L137.7 649.7L143.7 648.1L149.7 646.5L155.7 647.9L161.7 649.5L167.7 651.1L173.7 652.7L179.6 654.3L185.6 655.9L191.6 657.5L197.6 659.1L203.6 660.7L209.6 662.3L215.6 663.9L221.6 665.5L227.6 665.7L233.5 664.1L239.5 662.5L245.5 660.9L251.5 659.3L257.5 657.7L263.5 656.1L269.5 654.5L275.5 652.9L281.5 651.3L287.4 649.7L293.4 648.1L299.4 646.5L305.4 647.8L311.4 649.4L317.4 651L323.4 652.6L329.4 654.2L335.3 655.8L341.3 657.4L347.3 659L353.3 660.6L359.3 662.2L365.3 663.8L371.3 665.4L377.3 665.8L383.3 664.2L389.2 662.6L395.2 661L401.2 659.4L407.2 657.8L413.2 656.2L419.2 654.6L425.2 653L431.2 651.4L437.1 649.8L443.1 648.2L449.1 646.6L455.1 647.7L461.1 649.3L467.1 650.9L473.1 652.5L479.1 654.1L485.1 655.7L491 657.3L497 658.9L503 660.5L509 662.1L515 663.7L521 665.3L527 665.9L533 664.3L538.9 662.7L544.9 661.1L550.9 659.5L556.9 657.9L562.9 656.3L568.9 654.7L574.9 653.1L580.9 651.5L586.9 649.9L592.8 648.3L598.8 646.7L604.8 647.7L610.8 649.3L616.8 650.9L622.8 652.5L628.8 654.1L634.8 655.7L640.7 657.2L646.7 658.8L652.7 660.4L658.7 662L664.7 663.6L670.7 665.2L676.7 665.9L682.7 664.3L688.7 662.7L694.6 661.1L700.6 659.5L706.6 658L712.6 656.4L718.6 654.8L724.6 653.2L730.6 651.6L736.6 650L742.5 648.4L748.5 646.8L754.5 647.6L760.5 649.2L766.5 650.8L772.5 652.4L778.5 654L784.5 655.6L790.5 657.2L796.4 658.8L802.4 660.4L808.4 662L814.4 663.6L820.4 665.2L826.4 666L832.4 664.4L838.4 662.8L844.4 661.2L850.3 659.6L856.3 658L862.3 656.4L868.3 654.8L874.3 653.2L880.3 651.6L886.3 650L892.3 648.4L898.2 646.9L904.2 647.5L910.2 649.1L916.2 650.7L922.2 652.3L928.2 653.9L934.2 655.5L940.2 657.1L946.2 658.7L952.1 660.3L958.1 661.9L964.1 663.5L970.1 665.1L976.1 666.1L982.1 664.5L988.1 662.9L994.1 661.3L1000 659.7L1006 658.1L1012 656.5L1018 654.9L1024 653.3" fill="none" stroke="currentColor" stroke-width="2" stroke-linecap="round"/>
<path d="M0 668.6L6 670.2L12 671.8L18 673.4L24 675L29.9 676.6L35.9 678.2L41.9 679.8L47.9 681.4L53.9 683L59.9 684.6L65.9 686.2L71.9 687.8L77.8 687.8L83.8 686.2L89.8 684.6L95.8 683L101.8 681.4L107.8 679.9L113.8 678.3L119.8 676.7L125.8 675.1L131.7 673.5L137.7 671.9L143.7 670.3L149.7 668.7L155.7 670.1L161.7 671.7L167.7 673.3L173.7 674.9L179.6 676.5L185.6 678.1L191.6 679.7L197.6 681.3L203.6 682.9L209.6 684.5L215.6 686.1L221.6 687.7L227.6 687.9L233.5 686.3L239.5 684.7L245.5 683.1L251.5 681.5L257.5 679.9L263.5 678.3L269.5 676.7L275.5 675.1L281.5 673.5L287.4 671.9L293.4 670.3L299.4 668.8L305.4 670L311.4 671.6L317.4 673.2L323.4 674.8L329.4 676.4L335.3 678L341.3 679.6L347.3 681.2L353.3 682.8L359.3 684.4L365.3 686L371.3 687.6L377.3 688L383.3 686.4L389.2 684.8L395.2 683.2L401.2 681.6L407.2 680L413.2 678.4L419.2 676.8L425.2 675.2L431.2 673.6L437.1 672L443.1 670.4L449.1 668.8L455.1 670L461.1 671.6L467.1 673.2L473.1 674.7L479.1 676.3L485.1 677.9L491 679.5L497 681.1L503 682.7L509 684.3L515 685.9L521 687.5L527 688.1L533 686.5L538.9 684.9L544.9 683.3L550.9 681.7L556.9 680.1L562.9 678.5L568.9 676.9L574.9 675.3L580.9 673.7L586.9 672.1L592.8 670.5L598.8 668.9L604.8 669.9L610.8 671.5L616.8 673.1L622.8 674.7L628.8 676.3L634.8 677.9L640.7 679.5L646.7 681.1L652.7 682.7L658.7 684.3L664.7 685.8L670.7 687.4L676.7 688.1L682.7 686.6L688.7 685L694.6 683.4L700.6 681.8L706.6 680.2L712.6 678.6L718.6 677L724.6 675.4L730.6 673.8L736.6 672.2L742.5 670.6L748.5 669L754.5 669.8L760.5 671.4L766.5 673L772.5 674.6L778.5 676.2L784.5 677.8L790.5 679.4L796.4 681L802.4 682.6L808.4 684.2L814.4 685.8L820.4 687.4L826.4 688.2L832.4 686.6L838.4 685L844.4 683.4L850.3 681.8L856.3 680.2L862.3 678.6L868.3 677L874.3 675.5L880.3 673.9L886.3 672.3L892.3 670.7L898.2 669.1L904.2 669.7L910.2 671.3L916.2 672.9L922.2 674.5L928.2 676.1L934.2 677.7L940.2 679.3L946.2 680.9L952.1 682.5L958.1 684.1L964.1 685.7L970.1 687.3L976.1 688.3L982.1 686.7L988.1 685.1L994.1 683.5L1000 681.9L1006 680.3L1012 678.7L1018 677.1L1024 675.5" fill="none" stroke="currentColor" stroke-width="2" stroke-linecap="round"/>
<path d="M0 690.8L6 692.4L12 694L18 695.6L24 697.2L29.9 698.8L35.9 700.4L41.9 702L47.9 703.6L53.9 705.2L59.9 706.8L65.9 708.4L71.9 710L77.8 710L83.8 708.5L89.8 706.9L95.8 705.3L101.8 703.7L107.8 702.1L113.8 700.5L119.8 698.9L125.8 697.3L131.7 695.7L137.7 694.1L143.7 692.5L149.7 690.9L155.7 692.3L161.7 693.9L167.7 695.5L173.7 697.1L179.6 698.7L185.6 700.3L191.6 701.9L197.6 703.5L203.6 705.1L209.6 706.7L215.6 708.3L221.6 709.9L227.6 710.1L233.5 708.5L239.5 706.9L245.5 705.3L251.5 703.7L257.5 702.1L263.5 700.5L269.5 698.9L275.5 697.4L281.5 695.8L287.4 694.2L293.4 692.6L299.4 691L305.4 692.2L311.4 693.8L317.4 695.4L323.4 697L329.4 698.6L335.3 700.2L341.3 701.8L347.3 703.4L353.3 705L359.3 706.6L365.3 708.2L371.3 709.8L377.3 710.2L383.3 708.6L389.2 707L395.2 705.4L401.2 703.8L407.2 702.2L413.2 700.6L419.2 699L425.2 697.4L431.2 695.8L437.1 694.2L443.1 692.6L449.1 691L455.1 692.2L461.1 693.8L467.1 695.4L473.1 697L479.1 698.6L485.1 700.2L491 701.8L497 703.3L503 704.9L509 706.5L515 708.1L521 709.7L527 710.3L533 708.7L538.9 707.1L544.9 705.5L550.9 703.9L556.9 702.3L562.9 700.7L568.9 699.1L574.9 697.5L580.9 695.9L586.9 694.3L592.8 692.7L598.8 691.1L604.8 692.1L610.8 693.7L616.8 695.3L622.8 696.9L628.8 698.5L634.8 700.1L640.7 701.7L646.7 703.3L652.7 704.9L658.7 706.5L664.7 708.1L670.7 709.7L676.7 710.4L682.7 708.8L688.7 707.2L694.6 705.6L700.6 704L706.6 702.4L712.6 700.8L718.6 699.2L724.6 697.6L730.6 696L736.6 694.4L742.5 692.8L748.5 691.2L754.5 692L760.5 693.6L766.5 695.2L772.5 696.8L778.5 698.4L784.5 700L790.5 701.6L796.4 703.2L802.4 704.8L808.4 706.4L814.4 708L820.4 709.6L826.4 710.4L832.4 708.8L838.4 707.2L844.4 705.6L850.3 704.1L856.3 702.5L862.3 700.9L868.3 699.3L874.3 697.7L880.3 696.1L886.3 694.5L892.3 692.9L898.2 691.3L904.2 691.9L910.2 693.5L916.2 695.1L922.2 696.7L928.2 698.3L934.2 699.9L940.2 701.5L946.2 703.1L952.1 704.7L958.1 706.3L964.1 707.9L970.1 709.5L976.1 710.5L982.1 708.9L988.1 707.3L994.1 705.7L1000 704.1L1006 702.5L1012 700.9L1018 699.3L1024 697.7" fill="none" stroke="currentColor" stroke-width="2" stroke-linecap="round"/>
<path d="M0 713L6 714.6L12 716.2L18 717.8L24 719.4L29.9 721L35.9 722.6L41.9 724.2L47.9 725.8L53.9 727.4L59.9 729L65.9 730.6L71.9 732.2L77.8 732.3L83.8 730.7L89.8 729.1L95.8 727.5L101.8 725.9L107.8 724.3L113.8 722.7L119.8 721.1L125.8 719.5L131.7 717.9L137.7 716.3L143.7 714.7L149.7 713.1L155.7 714.5L161.7 716.1L167.7 717.7L173.7 719.3L179.6 720.9L185.6 722.5L191.6 724.1L197.6 725.7L203.6 727.3L209.6 728.9L215.6 730.5L221.6 732.1L227.6 732.3L233.5 730.7L239.5 729.1L245.5 727.5L251.5 726L257.5 724.4L263.5 722.8L269.5 721.2L275.5 719.6L281.5 718L287.4 716.4L293.4 714.8L299.4 713.2L305.4 714.5L311.4 716.1L317.4 717.7L323.4 719.3L329.4 720.8L335.3 722.4L341.3 724L347.3 725.6L353.3 727.2L359.3 728.8L365.3 730.4L371.3 732L377.3 732.4L383.3 730.8L389.2 729.2L395.2 727.6L401.2 726L407.2 724.4L413.2 722.8L419.2 721.2L425.2 719.6L431.2 718L437.1 716.4L443.1 714.9L449.1 713.3L455.1 714.4L461.1 716L467.1 717.6L473.1 719.2L479.1 720.8L485.1 722.4L491 724L497 725.6L503 727.2L509 728.8L515 730.4L521 731.9L527 732.5L533 730.9L538.9 729.3L544.9 727.7L550.9 726.1L556.9 724.5L562.9 722.9L568.9 721.3L574.9 719.7L580.9 718.1L586.9 716.5L592.8 714.9L598.8 713.3L604.8 714.3L610.8 715.9L616.8 717.5L622.8 719.1L628.8 720.7L634.8 722.3L640.7 723.9L646.7 725.5L652.7 727.1L658.7 728.7L664.7 730.3L670.7 731.9L676.7 732.6L682.7 731L688.7 729.4L694.6 727.8L700.6 726.2L706.6 724.6L712.6 723L718.6 721.4L724.6 719.8L730.6 718.2L736.6 716.6L742.5 715L748.5 713.4L754.5 714.2L760.5 715.8L766.5 717.4L772.5 719L778.5 720.6L784.5 722.2L790.5 723.8L796.4 725.4L802.4 727L808.4 728.6L814.4 730.2L820.4 731.8L826.4 732.7L832.4 731.1L838.4 729.5L844.4 727.9L850.3 726.3L856.3 724.7L862.3 723.1L868.3 721.5L874.3 719.9L880.3 718.3L886.3 716.7L892.3 715.1L898.2 713.5L904.2 714.2L910.2 715.7L916.2 717.3L922.2 718.9L928.2 720.5L934.2 722.1L940.2 723.7L946.2 725.3L952.1 726.9L958.1 728.5L964.1 730.1L970.1 731.7L976.1 732.7L982.1 731.1L988.1 729.5L994.1 727.9L1000 726.3L1006 724.7L1012 723.1L1018 721.6L1024 720" fill="none" stroke="currentColor" stroke-width="2" stroke-linecap="round"/>
<path d="M0 735.2L6 736.8L12 738.4L18 740L24 741.6L29.9 743.2L35.9 744.8L41.9 746.4L47.9 748L53.9 749.6L59.9 751.2L65.9 752.8L71.9 754.4L77.8 754.5L83.8 752.9L89.8 751.3L95.8 749.7L101.8 748.1L107.8 746.5L113.8 744.9L119.8 743.3L125.8 741.7L131.7 740.1L137.7 738.5L143.7 736.9L149.7 735.3L155.7 736.8L161.7 738.3L167.7 739.9L173.7 741.5L179.6 743.1L185.6 744.7L191.6 746.3L197.6 747.9L203.6 749.5L209.6 751.1L215.6 752.7L221.6 754.3L227.6 754.6L233.5 753L239.5 751.4L245.5 749.8L251.5 748.2L257.5 746.6L263.5 745L269.5 743.4L275.5 741.8L281.5 740.2L287.4 738.6L293.4 737L299.4 735.4L305.4 736.7L311.4 738.3L317.4 739.9L323.4 741.5L329.4 743.1L335.3 744.7L341.3 746.3L347.3 747.9L353.3 749.5L359.3 751L365.3 752.6L371.3 754.2L377.3 754.6L383.3 753L389.2 751.4L395.2 749.8L401.2 748.2L407.2 746.6L413.2 745L419.2 743.5L425.2 741.9L431.2 740.3L437.1 738.7L443.1 737.1L449.1 735.5L455.1 736.6L461.1 738.2L467.1 739.8L473.1 741.4L479.1 743L485.1 744.6L491 746.2L497 747.8L503 749.4L509 751L515 752.6L521 754.2L527 754.7L533 753.1L538.9 751.5L544.9 749.9L550.9 748.3L556.9 746.7L562.9 745.1L568.9 743.5L574.9 741.9L580.9 740.3L586.9 738.7L592.8 737.1L598.8 735.5L604.8 736.5L610.8 738.1L616.8 739.7L622.8 741.3L628.8 742.9L634.8 744.5L640.7 746.1L646.7 747.7L652.7 749.3L658.7 750.9L664.7 752.5L670.7 754.1L676.7 754.8L682.7 753.2L688.7 751.6L694.6 750L700.6 748.4L706.6 746.8L712.6 745.2L718.6 743.6L724.6 742L730.6 740.4L736.6 738.8L742.5 737.2L748.5 735.6L754.5 736.4L760.5 738L766.5 739.6L772.5 741.2L778.5 742.8L784.5 744.4L790.5 746L796.4 747.6L802.4 749.2L808.4 750.8L814.4 752.4L820.4 754L826.4 754.9L832.4 753.3L838.4 751.7L844.4 750.1L850.3 748.5L856.3 746.9L862.3 745.3L868.3 743.7L874.3 742.1L880.3 740.5L886.3 738.9L892.3 737.3L898.2 735.7L904.2 736.4L910.2 738L916.2 739.6L922.2 741.2L928.2 742.8L934.2 744.3L940.2 745.9L946.2 747.5L952.1 749.1L958.1 750.7L964.1 752.3L970.1 753.9L976.1 754.9L982.1 753.3L988.1 751.7L994.1 750.2L1000 748.6L1006 747L1012 745.4L1018 743.8L1024 742.2" fill="none" stroke="currentColor" stroke-width="2" stroke-linecap="round"/>
<path d="M0 757.4L6 759L12 760.6L18 762.2L24 763.8L29.9 765.4L35.9 767L41.9 768.6L47.9 770.2L53.9 771.8L59.9 773.4L65.9 775L71.9 776.6L77.8 776.7L83.8 775.1L89.8 773.5L95.8 771.9L101.8 770.3L107.8 768.7L113.8 767.1L119.8 765.5L125.8 763.9L131.7 762.3L137.7 760.7L143.7 759.1L149.7 757.5L155.7 759L161.7 760.6L167.7 762.2L173.7 763.8L179.6 765.4L185.6 767L191.6 768.5L197.6 770.1L203.6 771.7L209.6 773.3L215.6 774.9L221.6 776.5L227.6 776.8L233.5 775.2L239.5 773.6L245.5 772L251.5 770.4L257.5 768.8L263.5 767.2L269.5 765.6L275.5 764L281.5 762.4L287.4 760.8L293.4 759.2L299.4 757.6L305.4 758.9L311.4 760.5L317.4 762.1L323.4 763.7L329.4 765.3L335.3 766.9L341.3 768.5L347.3 770.1L353.3 771.7L359.3 773.3L365.3 774.9L371.3 776.5L377.3 776.8L383.3 775.2L389.2 773.6L395.2 772.1L401.2 770.5L407.2 768.9L413.2 767.3L419.2 765.7L425.2 764.1L431.2 762.5L437.1 760.9L443.1 759.3L449.1 757.7L455.1 758.8L461.1 760.4L467.1 762L473.1 763.6L479.1 765.2L485.1 766.8L491 768.4L497 770L503 771.6L509 773.2L515 774.8L521 776.4L527 776.9L533 775.3L538.9 773.7L544.9 772.1L550.9 770.5L556.9 768.9L562.9 767.3L568.9 765.7L574.9 764.1L580.9 762.5L586.9 761L592.8 759.4L598.8 757.8L604.8 758.7L610.8 760.3L616.8 761.9L622.8 763.5L628.8 765.1L634.8 766.7L640.7 768.3L646.7 769.9L652.7 771.5L658.7 773.1L664.7 774.7L670.7 776.3L676.7 777L682.7 775.4L688.7 773.8L694.6 772.2L700.6 770.6L706.6 769L712.6 767.4L718.6 765.8L724.6 764.2L730.6 762.6L736.6 761L742.5 759.4L748.5 757.8L754.5 758.7L760.5 760.3L766.5 761.8L772.5 763.4L778.5 765L784.5 766.6L790.5 768.2L796.4 769.8L802.4 771.4L808.4 773L814.4 774.6L820.4 776.2L826.4 777.1L832.4 775.5L838.4 773.9L844.4 772.3L850.3 770.7L856.3 769.1L862.3 767.5L868.3 765.9L874.3 764.3L880.3 762.7L886.3 761.1L892.3 759.5L898.2 757.9L904.2 758.6L910.2 760.2L916.2 761.8L922.2 763.4L928.2 765L934.2 766.6L940.2 768.2L946.2 769.8L952.1 771.4L958.1 772.9L964.1 774.5L970.1 776.1L976.1 777.2L982.1 775.6L988.1 774L994.1 772.4L1000 770.8L1006 769.2L1012 767.6L1018 766L1024 764.4" fill="none" stroke="currentColor" stroke-width="2" stroke-linecap="round"/>
<path d="M0 779.7L6 781.3L12 782.9L18 784.5L24 786L29.9 787.6L35.9 789.2L41.9 790.8L47.9 792.4L53.9 794L59.9 795.6L65.9 797.2L71.9 798.8L77.8 798.9L83.8 797.3L89.8 795.7L95.8 794.1L101.8 792.5L107.8 790.9L113.8 789.3L119.8 787.7L125.8 786.1L131.7 784.5L137.7 782.9L143.7 781.3L149.7 779.7L155.7 781.2L161.7 782.8L167.7 784.4L173.7 786L179.6 787.6L185.6 789.2L191.6 790.8L197.6 792.4L203.6 794L209.6 795.6L215.6 797.1L221.6 798.7L227.6 799L233.5 797.4L239.5 795.8L245.5 794.2L251.5 792.6L257.5 791L263.5 789.4L269.5 787.8L275.5 786.2L281.5 784.6L287.4 783L293.4 781.4L299.4 779.8L305.4 781.1L311.4 782.7L317.4 784.3L323.4 785.9L329.4 787.5L335.3 789.1L341.3 790.7L347.3 792.3L353.3 793.9L359.3 795.5L365.3 797.1L371.3 798.7L377.3 799.1L383.3 797.5L389.2 795.9L395.2 794.3L401.2 792.7L407.2 791.1L413.2 789.5L419.2 787.9L425.2 786.3L431.2 784.7L437.1 783.1L443.1 781.5L449.1 779.9L455.1 781L461.1 782.6L467.1 784.2L473.1 785.8L479.1 787.4L485.1 789L491 790.6L497 792.2L503 793.8L509 795.4L515 797L521 798.6L527 799.1L533 797.5L538.9 795.9L544.9 794.3L550.9 792.7L556.9 791.1L562.9 789.6L568.9 788L574.9 786.4L580.9 784.8L586.9 783.2L592.8 781.6L598.8 780L604.8 780.9L610.8 782.5L616.8 784.1L622.8 785.7L628.8 787.3L634.8 788.9L640.7 790.5L646.7 792.1L652.7 793.7L658.7 795.3L664.7 796.9L670.7 798.5L676.7 799.2L682.7 797.6L688.7 796L694.6 794.4L700.6 792.8L706.6 791.2L712.6 789.6L718.6 788L724.6 786.4L730.6 784.8L736.6 783.2L742.5 781.6L748.5 780L754.5 780.9L760.5 782.5L766.5 784.1L772.5 785.7L778.5 787.3L784.5 788.9L790.5 790.4L796.4 792L802.4 793.6L808.4 795.2L814.4 796.8L820.4 798.4L826.4 799.3L832.4 797.7L838.4 796.1L844.4 794.5L850.3 792.9L856.3 791.3L862.3 789.7L868.3 788.1L874.3 786.5L880.3 784.9L886.3 783.3L892.3 781.7L898.2 780.1L904.2 780.8L910.2 782.4L916.2 784L922.2 785.6L928.2 787.2L934.2 788.8L940.2 790.4L946.2 792L952.1 793.6L958.1 795.2L964.1 796.8L970.1 798.4L976.1 799.4L982.1 797.8L988.1 796.2L994.1 794.6L1000 793L1006 791.4L1012 789.8L1018 788.2L1024 786.6" fill="none" stroke="currentColor" stroke-width="2" stroke-linecap="round"/>
<path d="M0 801.9L6 803.5L12 805.1L18 806.7L24 808.3L29.9 809.9L35.9 811.5L41.9 813.1L47.9 814.6L53.9 816.2L59.9 817.8L65.9 819.4L71.9 821L77.8 821.1L83.8 819.5L89.8 817.9L95.8 816.3L101.8 814.7L107.8 813.1L113.8 811.5L119.8 809.9L125.8 808.3L131.7 806.7L137.7 805.1L143.7 803.5L149.7 802L155.7 803.4L161.7 805L167.7 806.6L173.7 808.2L179.6 809.8L185.6 811.4L191.6 813L197.6 814.6L203.6 816.2L209.6 817.8L215.6 819.4L221.6 821L227.6 821.2L233.5 819.6L239.5 818L245.5 816.4L251.5 814.8L257.5 813.2L263.5 811.6L269.5 810L275.5 808.4L281.5 806.8L287.4 805.2L293.4 803.6L299.4 802L305.4 803.3L311.4 804.9L317.4 806.5L323.4 808.1L329.4 809.7L335.3 811.3L341.3 812.9L347.3 814.5L353.3 816.1L359.3 817.7L365.3 819.3L371.3 820.9L377.3 821.3L383.3 819.7L389.2 818.1L395.2 816.5L401.2 814.9L407.2 813.3L413.2 811.7L419.2 810.1L425.2 808.5L431.2 806.9L437.1 805.3L443.1 803.7L449.1 802.1L455.1 803.2L461.1 804.8L467.1 806.4L473.1 808L479.1 809.6L485.1 811.2L491 812.8L497 814.4L503 816L509 817.6L515 819.2L521 820.8L527 821.3L533 819.7L538.9 818.2L544.9 816.6L550.9 815L556.9 813.4L562.9 811.8L568.9 810.2L574.9 808.6L580.9 807L586.9 805.4L592.8 803.8L598.8 802.2L604.8 803.2L610.8 804.8L616.8 806.4L622.8 807.9L628.8 809.5L634.8 811.1L640.7 812.7L646.7 814.3L652.7 815.9L658.7 817.5L664.7 819.1L670.7 820.7L676.7 821.4L682.7 819.8L688.7 818.2L694.6 816.6L700.6 815L706.6 813.4L712.6 811.8L718.6 810.2L724.6 808.6L730.6 807.1L736.6 805.5L742.5 803.9L748.5 802.3L754.5 803.1L760.5 804.7L766.5 806.3L772.5 807.9L778.5 809.5L784.5 811.1L790.5 812.7L796.4 814.3L802.4 815.9L808.4 817.5L814.4 819L820.4 820.6L826.4 821.5L832.4 819.9L838.4 818.3L844.4 816.7L850.3 815.1L856.3 813.5L862.3 811.9L868.3 810.3L874.3 808.7L880.3 807.1L886.3 805.5L892.3 803.9L898.2 802.3L904.2 803L910.2 804.6L916.2 806.2L922.2 807.8L928.2 809.4L934.2 811L940.2 812.6L946.2 814.2L952.1 815.8L958.1 817.4L964.1 819L970.1 820.6L976.1 821.6L982.1 820L988.1 818.4L994.1 816.8L1000 815.2L1006 813.6L1012 812L1018 810.4L1024 808.8" fill="none" stroke="currentColor" stroke-width="2" stroke-linecap="round"/>
<path d="M0 824.1L6 825.7L12 827.3L18 828.9L24 830.5L29.9 832.1L35.9 833.7L41.9 835.3L47.9 836.9L53.9 838.5L59.9 840.1L65.9 841.7L71.9 843.2L77.8 843.3L83.8 841.7L89.8 840.1L95.8 838.5L101.8 836.9L107.8 835.3L113.8 833.7L119.8 832.1L125.8 830.6L131.7 829L137.7 827.4L143.7 825.8L149.7 824.2L155.7 825.6L161.7 827.2L167.7 828.8L173.7 830.4L179.6 832L185.6 833.6L191.6 835.2L197.6 836.8L203.6 838.4L209.6 840L215.6 841.6L221.6 843.2L227.6 843.4L233.5 841.8L239.5 840.2L245.5 838.6L251.5 837L257.5 835.4L263.5 833.8L269.5 832.2L275.5 830.6L281.5 829L287.4 827.4L293.4 825.8L299.4 824.2L305.4 825.5L311.4 827.1L317.4 828.7L323.4 830.3L329.4 831.9L335.3 833.5L341.3 835.1L347.3 836.7L353.3 838.3L359.3 839.9L365.3 841.5L371.3 843.1L377.3 843.5L383.3 841.9L389.2 840.3L395.2 838.7L401.2 837.1L407.2 835.5L413.2 833.9L419.2 832.3L425.2 830.7L431.2 829.1L437.1 827.5L443.1 825.9L449.1 824.3L455.1 825.4L461.1 827L467.1 828.6L473.1 830.2L479.1 831.8L485.1 833.4L491 835L497 836.6L503 838.2L509 839.8L515 841.4L521 843L527 843.6L533 842L538.9 840.4L544.9 838.8L550.9 837.2L556.9 835.6L562.9 834L568.9 832.4L574.9 830.8L580.9 829.2L586.9 827.6L592.8 826L598.8 824.4L604.8 825.4L610.8 827L616.8 828.6L622.8 830.2L628.8 831.8L634.8 833.4L640.7 835L646.7 836.5L652.7 838.1L658.7 839.7L664.7 841.3L670.7 842.9L676.7 843.6L682.7 842L688.7 840.4L694.6 838.8L700.6 837.3L706.6 835.7L712.6 834.1L718.6 832.5L724.6 830.9L730.6 829.3L736.6 827.7L742.5 826.1L748.5 824.5L754.5 825.3L760.5 826.9L766.5 828.5L772.5 830.1L778.5 831.7L784.5 833.3L790.5 834.9L796.4 836.5L802.4 838.1L808.4 839.7L814.4 841.3L820.4 842.9L826.4 843.7L832.4 842.1L838.4 840.5L844.4 838.9L850.3 837.3L856.3 835.7L862.3 834.1L868.3 832.5L874.3 830.9L880.3 829.3L886.3 827.7L892.3 826.1L898.2 824.6L904.2 825.2L910.2 826.8L916.2 828.4L922.2 830L928.2 831.6L934.2 833.2L940.2 834.8L946.2 836.4L952.1 838L958.1 839.6L964.1 841.2L970.1 842.8L976.1 843.8L982.1 842.2L988.1 840.6L994.1 839L1000 837.4L1006 835.8L1012 834.2L1018 832.6L1024 831" fill="none" stroke="currentColor" stroke-width="2" stroke-linecap="round"/>
<path d="M0 846.3L6 847.9L12 849.5L18 851.1L24 852.7L29.9 854.3L35.9 855.9L41.9 857.5L47.9 859.1L53.9 860.7L59.9 862.3L65.9 863.9L71.9 865.5L77.8 865.5L83.8 863.9L89.8 862.3L95.8 860.7L101.8 859.2L107.8 857.6L113.8 856L119.8 854.4L125.8 852.8L131.7 851.2L137.7 849.6L143.7 848L149.7 846.4L155.7 847.8L161.7 849.4L167.7 851L173.7 852.6L179.6 854.2L185.6 855.8L191.6 857.4L197.6 859L203.6 860.6L209.6 862.2L215.6 863.8L221.6 865.4L227.6 865.6L233.5 864L239.5 862.4L245.5 860.8L251.5 859.2L257.5 857.6L263.5 856L269.5 854.4L275.5 852.8L281.5 851.2L287.4 849.6L293.4 848.1L299.4 846.5L305.4 847.7L311.4 849.3L317.4 850.9L323.4 852.5L329.4 854.1L335.3 855.7L341.3 857.3L347.3 858.9L353.3 860.5L359.3 862.1L365.3 863.7L371.3 865.3L377.3 865.7L383.3 864.1L389.2 862.5L395.2 860.9L401.2 859.3L407.2 857.7L413.2 856.1L419.2 854.5L425.2 852.9L431.2 851.3L437.1 849.7L443.1 848.1L449.1 846.5L455.1 847.7L461.1 849.3L467.1 850.9L473.1 852.5L479.1 854L485.1 855.6L491 857.2L497 858.8L503 860.4L509 862L515 863.6L521 865.2L527 865.8L533 864.2L538.9 862.6L544.9 861L550.9 859.4L556.9 857.8L562.9 856.2L568.9 854.6L574.9 853L580.9 851.4L586.9 849.8L592.8 848.2L598.8 846.6L604.8 847.6L610.8 849.2L616.8 850.8L622.8 852.4L628.8 854L634.8 855.6L640.7 857.2L646.7 858.8L652.7 860.4L658.7 862L664.7 863.6L670.7 865.1L676.7 865.9L682.7 864.3L688.7 862.7L694.6 861.1L700.6 859.5L706.6 857.9L712.6 856.3L718.6 854.7L724.6 853.1L730.6 851.5L736.6 849.9L742.5 848.3L748.5 846.7L754.5 847.5L760.5 849.1L766.5 850.7L772.5 852.3L778.5 853.9L784.5 855.5L790.5 857.1L796.4 858.7L802.4 860.3L808.4 861.9L814.4 863.5L820.4 865.1L826.4 865.9L832.4 864.3L838.4 862.7L844.4 861.1L850.3 859.5L856.3 857.9L862.3 856.3L868.3 854.8L874.3 853.2L880.3 851.6L886.3 850L892.3 848.4L898.2 846.8L904.2 847.4L910.2 849L916.2 850.6L922.2 852.2L928.2 853.8L934.2 855.4L940.2 857L946.2 858.6L952.1 860.2L958.1 861.8L964.1 863.4L970.1 865L976.1 866L982.1 864.4L988.1 862.8L994.1 861.2L1000 859.6L1006 858L1012 856.4L1018 854.8L1024 853.2" fill="none" stroke="currentColor" stroke-width="2" stroke-linecap="round"/>
<path d="M0 868.5L6 870.1L12 871.7L18 873.3L24 874.9L29.9 876.5L35.9 878.1L41.9 879.7L47.9 881.3L53.9 882.9L59.9 884.5L65.9 886.1L71.9 887.7L77.8 887.8L83.8 886.2L89.8 884.6L95.8 883L101.8 881.4L107.8 879.8L113.8 878.2L119.8 876.6L125.8 875L131.7 873.4L137.7 871.8L143.7 870.2L149.7 868.6L155.7 870L161.7 871.6L167.7 873.2L173.7 874.8L179.6 876.4L185.6 878L191.6 879.6L197.6 881.2L203.6 882.8L209.6 884.4L215.6 886L221.6 887.6L227.6 887.8L233.5 886.2L239.5 884.6L245.5 883L251.5 881.4L257.5 879.8L263.5 878.2L269.5 876.7L275.5 875.1L281.5 873.5L287.4 871.9L293.4 870.3L299.4 868.7L305.4 870L311.4 871.5L317.4 873.1L323.4 874.7L329.4 876.3L335.3 877.9L341.3 879.5L347.3 881.1L353.3 882.7L359.3 884.3L365.3 885.9L371.3 887.5L377.3 887.9L383.3 886.3L389.2 884.7L395.2 883.1L401.2 881.5L407.2 879.9L413.2 878.3L419.2 876.7L425.2 875.1L431.2 873.5L437.1 871.9L443.1 870.3L449.1 868.7L455.1 869.9L461.1 871.5L467.1 873.1L473.1 874.7L479.1 876.3L485.1 877.9L491 879.5L497 881.1L503 882.6L509 884.2L515 885.8L521 887.4L527 888L533 886.4L538.9 884.8L544.9 883.2L550.9 881.6L556.9 880L562.9 878.4L568.9 876.8L574.9 875.2L580.9 873.6L586.9 872L592.8 870.4L598.8 868.8L604.8 869.8L610.8 871.4L616.8 873L622.8 874.6L628.8 876.2L634.8 877.8L640.7 879.4L646.7 881L652.7 882.6L658.7 884.2L664.7 885.8L670.7 887.4L676.7 888.1L682.7 886.5L688.7 884.9L694.6 883.3L700.6 881.7L706.6 880.1L712.6 878.5L718.6 876.9L724.6 875.3L730.6 873.7L736.6 872.1L742.5 870.5L748.5 868.9L754.5 869.7L760.5 871.3L766.5 872.9L772.5 874.5L778.5 876.1L784.5 877.7L790.5 879.3L796.4 880.9L802.4 882.5L808.4 884.1L814.4 885.7L820.4 887.3L826.4 888.1L832.4 886.5L838.4 884.9L844.4 883.4L850.3 881.8L856.3 880.2L862.3 878.6L868.3 877L874.3 875.4L880.3 873.8L886.3 872.2L892.3 870.6L898.2 869L904.2 869.6L910.2 871.2L916.2 872.8L922.2 874.4L928.2 876L934.2 877.6L940.2 879.2L946.2 880.8L952.1 882.4L958.1 884L964.1 885.6L970.1 887.2L976.1 888.2L982.1 886.6L988.1 885L994.1 883.4L1000 881.8L1006 880.2L1012 878.6L1018 877L1024 875.4" fill="none" stroke="currentColor" stroke-width="2" stroke-linecap="round"/>
<path d="M0 890.7L6 892.3L12 893.9L18 895.5L24 897.1L29.9 898.7L35.9 900.3L41.9 901.9L47.9 903.5L53.9 905.1L59.9 906.7L65.9 908.3L71.9 909.9L77.8 910L83.8 908.4L89.8 906.8L95.8 905.2L101.8 903.6L107.8 902L113.8 900.4L119.8 898.8L125.8 897.2L131.7 895.6L137.7 894L143.7 892.4L149.7 890.8L155.7 892.2L161.7 893.8L167.7 895.4L173.7 897L179.6 898.6L185.6 900.2L191.6 901.8L197.6 903.4L203.6 905L209.6 906.6L215.6 908.2L221.6 909.8L227.6 910L233.5 908.4L239.5 906.8L245.5 905.3L251.5 903.7L257.5 902.1L263.5 900.5L269.5 898.9L275.5 897.3L281.5 895.7L287.4 894.1L293.4 892.5L299.4 890.9L305.4 892.2L311.4 893.8L317.4 895.4L323.4 897L329.4 898.6L335.3 900.1L341.3 901.7L347.3 903.3L353.3 904.9L359.3 906.5L365.3 908.1L371.3 909.7L377.3 910.1L383.3 908.5L389.2 906.9L395.2 905.3L401.2 903.7L407.2 902.1L413.2 900.5L419.2 898.9L425.2 897.3L431.2 895.7L437.1 894.2L443.1 892.6L449.1 891L455.1 892.1L461.1 893.7L467.1 895.3L473.1 896.9L479.1 898.5L485.1 900.1L491 901.7L497 903.3L503 904.9L509 906.5L515 908.1L521 909.7L527 910.2L533 908.6L538.9 907L544.9 905.4L550.9 903.8L556.9 902.2L562.9 900.6L568.9 899L574.9 897.4L580.9 895.8L586.9 894.2L592.8 892.6L598.8 891L604.8 892L610.8 893.6L616.8 895.2L622.8 896.8L628.8 898.4L634.8 900L640.7 901.6L646.7 903.2L652.7 904.8L658.7 906.4L664.7 908L670.7 909.6L676.7 910.3L682.7 908.7L688.7 907.1L694.6 905.5L700.6 903.9L706.6 902.3L712.6 900.7L718.6 899.1L724.6 897.5L730.6 895.9L736.6 894.3L742.5 892.7L748.5 891.1L754.5 891.9L760.5 893.5L766.5 895.1L772.5 896.7L778.5 898.3L784.5 899.9L790.5 901.5L796.4 903.1L802.4 904.7L808.4 906.3L814.4 907.9L820.4 909.5L826.4 910.4L832.4 908.8L838.4 907.2L844.4 905.6L850.3 904L856.3 902.4L862.3 900.8L868.3 899.2L874.3 897.6L880.3 896L886.3 894.4L892.3 892.8L898.2 891.2L904.2 891.9L910.2 893.4L916.2 895L922.2 896.6L928.2 898.2L934.2 899.8L940.2 901.4L946.2 903L952.1 904.6L958.1 906.2L964.1 907.8L970.1 909.4L976.1 910.4L982.1 908.8L988.1 907.2L994.1 905.6L1000 904L1006 902.4L1012 900.9L1018 899.3L1024 897.7" fill="none" stroke="currentColor" stroke-width="2" stroke-linecap="round"/>
<path d="M0 912.9L6 914.5L12 916.1L18 917.7L24 919.3L29.9 920.9L35.9 922.5L41.9 924.1L47.9 925.7L53.9 927.3L59.9 928.9L65.9 930.5L71.9 932.1L77.8 932.2L83.8 930.6L89.8 929L95.8 927.4L101.8 925.8L107.8 924.2L113.8 922.6L119.8 921L125.8 919.4L131.7 917.8L137.7 916.2L143.7 914.6L149.7 913L155.7 914.5L161.7 916.1L167.7 917.6L173.7 919.2L179.6 920.8L185.6 922.4L191.6 924L197.6 925.6L203.6 927.2L209.6 928.8L215.6 930.4L221.6 932L227.6 932.3L233.5 930.7L239.5 929.1L245.5 927.5L251.5 925.9L257.5 924.3L263.5 922.7L269.5 921.1L275.5 919.5L281.5 917.9L287.4 916.3L293.4 914.7L299.4 913.1L305.4 914.4L311.4 916L317.4 917.6L323.4 919.2L329.4 920.8L335.3 922.4L341.3 924L347.3 925.6L353.3 927.2L359.3 928.7L365.3 930.3L371.3 931.9L377.3 932.3L383.3 930.7L389.2 929.1L395.2 927.5L401.2 925.9L407.2 924.3L413.2 922.8L419.2 921.2L425.2 919.6L431.2 918L437.1 916.4L443.1 914.8L449.1 913.2L455.1 914.3L461.1 915.9L467.1 917.5L473.1 919.1L479.1 920.7L485.1 922.3L491 923.9L497 925.5L503 927.1L509 928.7L515 930.3L521 931.9L527 932.4L533 930.8L538.9 929.2L544.9 927.6L550.9 926L556.9 924.4L562.9 922.8L568.9 921.2L574.9 919.6L580.9 918L586.9 916.4L592.8 914.8L598.8 913.2L604.8 914.2L610.8 915.8L616.8 917.4L622.8 919L628.8 920.6L634.8 922.2L640.7 923.8L646.7 925.4L652.7 927L658.7 928.6L664.7 930.2L670.7 931.8L676.7 932.5L682.7 930.9L688.7 929.3L694.6 927.7L700.6 926.1L706.6 924.5L712.6 922.9L718.6 921.3L724.6 919.7L730.6 918.1L736.6 916.5L742.5 914.9L748.5 913.3L754.5 914.1L760.5 915.7L766.5 917.3L772.5 918.9L778.5 920.5L784.5 922.1L790.5 923.7L796.4 925.3L802.4 926.9L808.4 928.5L814.4 930.1L820.4 931.7L826.4 932.6L832.4 931L838.4 929.4L844.4 927.8L850.3 926.2L856.3 924.6L862.3 923L868.3 921.4L874.3 919.8L880.3 918.2L886.3 916.6L892.3 915L898.2 913.4L904.2 914.1L910.2 915.7L916.2 917.3L922.2 918.9L928.2 920.5L934.2 922L940.2 923.6L946.2 925.2L952.1 926.8L958.1 928.4L964.1 930L970.1 931.6L976.1 932.6L982.1 931L988.1 929.5L994.1 927.9L1000 926.3L1006 924.7L1012 923.1L1018 921.5L1024 919.9" fill="none" stroke="currentColor" stroke-width="2" stroke-linecap="round"/>
<path d="M0 935.1L6 936.7L12 938.3L18 939.9L24 941.5L29.9 943.1L35.9 944.7L41.9 946.3L47.9 947.9L53.9 949.5L59.9 951.1L65.9 952.7L71.9 954.3L77.8 954.4L83.8 952.8L89.8 951.2L95.8 949.6L101.8 948L107.8 946.4L113.8 944.8L119.8 943.2L125.8 941.6L131.7 940L137.7 938.4L143.7 936.8L149.7 935.2L155.7 936.7L161.7 938.3L167.7 939.9L173.7 941.5L179.6 943.1L185.6 944.7L191.6 946.2L197.6 947.8L203.6 949.4L209.6 951L215.6 952.6L221.6 954.2L227.6 954.5L233.5 952.9L239.5 951.3L245.5 949.7L251.5 948.1L257.5 946.5L263.5 944.9L269.5 943.3L275.5 941.7L281.5 940.1L287.4 938.5L293.4 936.9L299.4 935.3L305.4 936.6L311.4 938.2L317.4 939.8L323.4 941.4L329.4 943L335.3 944.6L341.3 946.2L347.3 947.8L353.3 949.4L359.3 951L365.3 952.6L371.3 954.2L377.3 954.5L383.3 952.9L389.2 951.4L395.2 949.8L401.2 948.2L407.2 946.6L413.2 945L419.2 943.4L425.2 941.8L431.2 940.2L437.1 938.6L443.1 937L449.1 935.4L455.1 936.5L461.1 938.1L467.1 939.7L473.1 941.3L479.1 942.9L485.1 944.5L491 946.1L497 947.7L503 949.3L509 950.9L515 952.5L521 954.1L527 954.6L533 953L538.9 951.4L544.9 949.8L550.9 948.2L556.9 946.6L562.9 945L568.9 943.4L574.9 941.8L580.9 940.3L586.9 938.7L592.8 937.1L598.8 935.5L604.8 936.4L610.8 938L616.8 939.6L622.8 941.2L628.8 942.8L634.8 944.4L640.7 946L646.7 947.6L652.7 949.2L658.7 950.8L664.7 952.4L670.7 954L676.7 954.7L682.7 953.1L688.7 951.5L694.6 949.9L700.6 948.3L706.6 946.7L712.6 945.1L718.6 943.5L724.6 941.9L730.6 940.3L736.6 938.7L742.5 937.1L748.5 935.5L754.5 936.4L760.5 938L766.5 939.5L772.5 941.1L778.5 942.7L784.5 944.3L790.5 945.9L796.4 947.5L802.4 949.1L808.4 950.7L814.4 952.3L820.4 953.9L826.4 954.8L832.4 953.2L838.4 951.6L844.4 950L850.3 948.4L856.3 946.8L862.3 945.2L868.3 943.6L874.3 942L880.3 940.4L886.3 938.8L892.3 937.2L898.2 935.6L904.2 936.3L910.2 937.9L916.2 939.5L922.2 941.1L928.2 942.7L934.2 944.3L940.2 945.9L946.2 947.5L952.1 949.1L958.1 950.6L964.1 952.2L970.1 953.8L976.1 954.9L982.1 953.3L988.1 951.7L994.1 950.1L1000 948.5L1006 946.9L1012 945.3L1018 943.7L1024 942.1" fill="none" stroke="currentColor" stroke-width="2" stroke-linecap="round"/>
<path d="M0 957.4L6 959L12 960.6L18 962.2L24 963.7L29.9 965.3L35.9 966.9L41.9 968.5L47.9 970.1L53.9 971.7L59.9 973.3L65.9 974.9L71.9 976.5L77.8 976.6L83.8 975L89.8 973.4L95.8 971.8L101.8 970.2L107.8 968.6L113.8 967L119.8 965.4L125.8 963.8L131.7 962.2L137.7 960.6L143.7 959L149.7 957.4L155.7 958.9L161.7 960.5L167.7 962.1L173.7 963.7L179.6 965.3L185.6 966.9L191.6 968.5L197.6 970.1L203.6 971.7L209.6 973.3L215.6 974.8L221.6 976.4L227.6 976.7L233.5 975.1L239.5 973.5L245.5 971.9L251.5 970.3L257.5 968.7L263.5 967.1L269.5 965.5L275.5 963.9L281.5 962.3L287.4 960.7L293.4 959.1L299.4 957.5L305.4 958.8L311.4 960.4L317.4 962L323.4 963.6L329.4 965.2L335.3 966.8L341.3 968.4L347.3 970L353.3 971.6L359.3 973.2L365.3 974.8L371.3 976.4L377.3 976.8L383.3 975.2L389.2 973.6L395.2 972L401.2 970.4L407.2 968.8L413.2 967.2L419.2 965.6L425.2 964L431.2 962.4L437.1 960.8L443.1 959.2L449.1 957.6L455.1 958.7L461.1 960.3L467.1 961.9L473.1 963.5L479.1 965.1L485.1 966.7L491 968.3L497 969.9L503 971.5L509 973.1L515 974.7L521 976.3L527 976.8L533 975.2L538.9 973.6L544.9 972L550.9 970.4L556.9 968.9L562.9 967.3L568.9 965.7L574.9 964.1L580.9 962.5L586.9 960.9L592.8 959.3L598.8 957.7L604.8 958.6L610.8 960.2L616.8 961.8L622.8 963.4L628.8 965L634.8 966.6L640.7 968.2L646.7 969.8L652.7 971.4L658.7 973L664.7 974.6L670.7 976.2L676.7 976.9L682.7 975.3L688.7 973.7L694.6 972.1L700.6 970.5L706.6 968.9L712.6 967.3L718.6 965.7L724.6 964.1L730.6 962.5L736.6 960.9L742.5 959.3L748.5 957.8L754.5 958.6L760.5 960.2L766.5 961.8L772.5 963.4L778.5 965L784.5 966.6L790.5 968.2L796.4 969.7L802.4 971.3L808.4 972.9L814.4 974.5L820.4 976.1L826.4 977L832.4 975.4L838.4 973.8L844.4 972.2L850.3 970.6L856.3 969L862.3 967.4L868.3 965.8L874.3 964.2L880.3 962.6L886.3 961L892.3 959.4L898.2 957.8L904.2 958.5L910.2 960.1L916.2 961.7L922.2 963.3L928.2 964.9L934.2 966.5L940.2 968.1L946.2 969.7L952.1 971.3L958.1 972.9L964.1 974.5L970.1 976.1L976.1 977.1L982.1 975.5L988.1 973.9L994.1 972.3L1000 970.7L1006 969.1L1012 967.5L1018 965.9L1024 964.3" fill="none" stroke="currentColor" stroke-width="2" stroke-linecap="round"/>
<path d="M0 979.6L6 981.2L12 982.8L18 984.4L24 986L29.9 987.6L35.9 989.2L41.9 990.8L47.9 992.3L53.9 993.9L59.9 995.5L65.9 997.1L71.9 998.7L77.8 998.8L83.8 997.2L89.8 995.6L95.8 994L101.8 992.4L107.8 990.8L113.8 989.2L119.8 987.6L125.8 986L131.7 984.4L137.7 982.8L143.7 981.2L149.7 979.7L155.7 981.1L161.7 982.7L167.7 984.3L173.7 985.9L179.6 987.5L185.6 989.1L191.6 990.7L197.6 992.3L203.6 993.9L209.6 995.5L215.6 997.1L221.6 998.7L227.6 998.9L233.5 997.3L239.5 995.7L245.5 994.1L251.5 992.5L257.5 990.9L263.5 989.3L269.5 987.7L275.5 986.1L281.5 984.5L287.4 982.9L293.4 981.3L299.4 979.7L305.4 981L311.4 982.6L317.4 984.2L323.4 985.8L329.4 987.4L335.3 989L341.3 990.6L347.3 992.2L353.3 993.8L359.3 995.4L365.3 997L371.3 998.6L377.3 999L383.3 997.4L389.2 995.8L395.2 994.2L401.2 992.6L407.2 991L413.2 989.4L419.2 987.8L425.2 986.2L431.2 984.6L437.1 983L443.1 981.4L449.1 979.8L455.1 980.9L461.1 982.5L467.1 984.1L473.1 985.7L479.1 987.3L485.1 988.9L491 990.5L497 992.1L503 993.7L509 995.3L515 996.9L521 998.5L527 999L533 997.5L538.9 995.9L544.9 994.3L550.9 992.7L556.9 991.1L562.9 989.5L568.9 987.9L574.9 986.3L580.9 984.7L586.9 983.1L592.8 981.5L598.8 979.9L604.8 980.9L610.8 982.5L616.8 984.1L622.8 985.7L628.8 987.2L634.8 988.8L640.7 990.4L646.7 992L652.7 993.6L658.7 995.2L664.7 996.8L670.7 998.4L676.7 999.1L682.7 997.5L688.7 995.9L694.6 994.3L700.6 992.7L706.6 991.1L712.6 989.5L718.6 987.9L724.6 986.4L730.6 984.8L736.6 983.2L742.5 981.6L748.5 980L754.5 980.8L760.5 982.4L766.5 984L772.5 985.6L778.5 987.2L784.5 988.8L790.5 990.4L796.4 992L802.4 993.6L808.4 995.2L814.4 996.8L820.4 998.3L826.4 999.2L832.4 997.6L838.4 996L844.4 994.4L850.3 992.8L856.3 991.2L862.3 989.6L868.3 988L874.3 986.4L880.3 984.8L886.3 983.2L892.3 981.6L898.2 980L904.2 980.7L910.2 982.3L916.2 983.9L922.2 985.5L928.2 987.1L934.2 988.7L940.2 990.3L946.2 991.9L952.1 993.5L958.1 995.1L964.1 996.7L970.1 998.3L976.1 999.3L982.1 997.7L988.1 996.1L994.1 994.5L1000 992.9L1006 991.3L1012 989.7L1018 988.1L1024 986.5" fill="none" stroke="currentColor" stroke-width="2" stroke-linecap="round"/>
<path d="M0 1001.8L6 1003.4L12 1005L18 1006.6L24 1008.2L29.9 1009.8L35.9 1011.4L41.9 1013L47.9 1014.6L53.9 1016.2L59.9 1017.8L65.9 1019.4L71.9 1020.9L77.8 1021L83.8 1019.4L89.8 1017.8L95.8 1016.2L101.8 1014.6L107.8 1013L113.8 1011.4L119.8 1009.8L125.8 1008.3L131.7 1006.7L137.7 1005.1L143.7 1003.5L149.7 1001.9L155.7 1003.3L161.7 1004.9L167.7 1006.5L173.7 1008.1L179.6 1009.7L185.6 1011.3L191.6 1012.9L197.6 1014.5L203.6 1016.1L209.6 1017.7L215.6 1019.3L221.6 1020.9L227.6 1021.1L233.5 1019.5L239.5 1017.9L245.5 1016.3L251.5 1014.7L257.5 1013.1L263.5 1011.5L269.5 1009.9L275.5 1008.3L281.5 1006.7L287.4 1005.1L293.4 1003.5L299.4 1001.9L305.4 1003.2L311.4 1004.8L317.4 1006.4L323.4 1008L329.4 1009.6L335.3 1011.2L341.3 1012.8L347.3 1014.4L353.3 1016L359.3 1017.6L365.3 1019.2L371.3 1020.8L377.3 1021.2L383.3 1019.6L389.2 1018L395.2 1016.4L401.2 1014.8L407.2 1013.2L413.2 1011.6L419.2 1010L425.2 1008.4L431.2 1006.8L437.1 1005.2L443.1 1003.6L449.1 1002L455.1 1003.2L461.1 1004.7L467.1 1006.3L473.1 1007.9L479.1 1009.5L485.1 1011.1L491 1012.7L497 1014.3L503 1015.9L509 1017.5L515 1019.1L521 1020.7L527 1021.3L533 1019.7L538.9 1018.1L544.9 1016.5L550.9 1014.9L556.9 1013.3L562.9 1011.7L568.9 1010.1L574.9 1008.5L580.9 1006.9L586.9 1005.3L592.8 1003.7L598.8 1002.1L604.8 1003.1L610.8 1004.7L616.8 1006.3L622.8 1007.9L628.8 1009.5L634.8 1011.1L640.7 1012.7L646.7 1014.3L652.7 1015.8L658.7 1017.4L664.7 1019L670.7 1020.6L676.7 1021.3L682.7 1019.7L688.7 1018.1L694.6 1016.5L700.6 1015L706.6 1013.4L712.6 1011.8L718.6 1010.2L724.6 1008.6L730.6 1007L736.6 1005.4L742.5 1003.8L748.5 1002.2L754.5 1003L760.5 1004.6L766.5 1006.2L772.5 1007.8L778.5 1009.4L784.5 1011L790.5 1012.6L796.4 1014.2L802.4 1015.8L808.4 1017.4L814.4 1019L820.4 1020.6L826.4 1021.4L832.4 1019.8L838.4 1018.2L844.4 1016.6L850.3 1015L856.3 1013.4L862.3 1011.8L868.3 1010.2L874.3 1008.6L880.3 1007L886.3 1005.4L892.3 1003.9L898.2 1002.3L904.2 1002.9L910.2 1004.5L916.2 1006.1L922.2 1007.7L928.2 1009.3L934.2 1010.9L940.2 1012.5L946.2 1014.1L952.1 1015.7L958.1 1017.3L964.1 1018.9L970.1 1020.5L976.1 1021.5L982.1 1019.9L988.1 1018.3L994.1 1016.7L1000 1015.1L1006 1013.5L1012 1011.9L1018 1010.3L1024 1008.7" fill="none" stroke="currentColor" stroke-width="2" stroke-linecap="round"/>
<path d="M0 1024L6 1025.6L12 1027.2L18 1028.8L24 1030.4L29.9 1032L35.9 1033.6L41.9 1035.2L47.9 1036.8L53.9 1038.4L59.9 1040L65.9 1041.6L71.9 1043.2L77.8 1043.2L83.8 1041.6L89.8 1040L95.8 1038.4L101.8 1036.9L107.8 1035.3L113.8 1033.7L119.8 1032.1L125.8 1030.5L131.7 1028.9L137.7 1027.3L143.7 1025.7L149.7 1024.1L155.7 1025.5L161.7 1027.1L167.7 1028.7L173.7 1030.3L179.6 1031.9L185.6 1033.5L191.6 1035.1L197.6 1036.7L203.6 1038.3L209.6 1039.9L215.6 1041.5L221.6 1043.1L227.6 1043.3L233.5 1041.7L239.5 1040.1L245.5 1038.5L251.5 1036.9L257.5 1035.3L263.5 1033.7L269.5 1032.1L275.5 1030.5L281.5 1028.9L287.4 1027.3L293.4 1025.8L299.4 1024.2L305.4 1025.4L311.4 1027L317.4 1028.6L323.4 1030.2L329.4 1031.8L335.3 1033.4L341.3 1035L347.3 1036.6L353.3 1038.2L359.3 1039.8L365.3 1041.4L371.3 1043L377.3 1043.4L383.3 1041.8L389.2 1040.2L395.2 1038.6L401.2 1037L407.2 1035.4L413.2 1033.8L419.2 1032.2L425.2 1030.6L431.2 1029L437.1 1027.4L443.1 1025.8L449.1 1024.2L455.1 1025.4L461.1 1027L467.1 1028.6L473.1 1030.2L479.1 1031.8L485.1 1033.3L491 1034.9L497 1036.5L503 1038.1L509 1039.7L515 1041.3L521 1042.9L527 1043.5L533 1041.9L538.9 1040.3L544.9 1038.7L550.9 1037.1L556.9 1035.5L562.9 1033.9L568.9 1032.3L574.9 1030.7L580.9 1029.1L586.9 1027.5L592.8 1025.9L598.8 1024.3L604.8 1025.3L610.8 1026.9L616.8 1028.5L622.8 1030.1L628.8 1031.7L634.8 1033.3L640.7 1034.9L646.7 1036.5L652.7 1038.1L658.7 1039.7L664.7 1041.3L670.7 1042.9L676.7 1043.6L682.7 1042L688.7 1040.4L694.6 1038.8L700.6 1037.2L706.6 1035.6L712.6 1034L718.6 1032.4L724.6 1030.8L730.6 1029.2L736.6 1027.6L742.5 1026L748.5 1024.4L754.5 1025.2L760.5 1026.8L766.5 1028.4L772.5 1030L778.5 1031.6L784.5 1033.2L790.5 1034.8L796.4 1036.4L802.4 1038L808.4 1039.6L814.4 1041.2L820.4 1042.8L826.4 1043.6L832.4 1042L838.4 1040.4L844.4 1038.8L850.3 1037.2L856.3 1035.6L862.3 1034L868.3 1032.5L874.3 1030.9L880.3 1029.3L886.3 1027.7L892.3 1026.1L898.2 1024.5L904.2 1025.1L910.2 1026.7L916.2 1028.3L922.2 1029.9L928.2 1031.5L934.2 1033.1L940.2 1034.7L946.2 1036.3L952.1 1037.9L958.1 1039.5L964.1 1041.1L970.1 1042.7L976.1 1043.7L982.1 1042.1L988.1 1040.5L994.1 1038.9L1000 1037.3L1006 1035.7L1012 1034.1L1018 1032.5L1024 1030.9" fill="none" stroke="currentColor" stroke-width="2" stroke-linecap="round"/>
</svg>
